<svg xmlns="http://www.w3.org/2000/svg" width="44.812" height="45" viewBox="0 0 44.812 45">
  <metadata><?xpacket begin="﻿" id="W5M0MpCehiHzreSzNTczkc9d"?>
<x:xmpmeta xmlns:x="adobe:ns:meta/" x:xmptk="Adobe XMP Core 5.6-c142 79.160924, 2017/07/13-01:06:39        ">
   <rdf:RDF xmlns:rdf="http://www.w3.org/1999/02/22-rdf-syntax-ns#">
      <rdf:Description rdf:about=""/>
   </rdf:RDF>
</x:xmpmeta>
                                                                                                    
                                                                                                    
                                                                                                    
                                                                                                    
                                                                                                    
                                                                                                    
                                                                                                    
                                                                                                    
                                                                                                    
                                                                                                    
                                                                                                    
                                                                                                    
                                                                                                    
                                                                                                    
                                                                                                    
                                                                                                    
                                                                                                    
                                                                                                    
                                                                                                    
                                                                                                    
                           
<?xpacket end="w"?></metadata>
<defs>
    <style>
      .cls-1 {
        fill: #fff;
        fill-rule: evenodd;
      }
    </style>
  </defs>
  <path id="Favs" class="cls-1" d="M736,373.082l7.147,11.632,13.271,3.2-8.854,10.391,1.056,13.611L736,406.708l-12.618,5.21,1.056-13.611-8.855-10.391,13.272-3.2L736,373.082m0-2h0a2,2,0,0,0-1.7.953l-6.713,10.929-12.469,3.008a2,2,0,0,0-1.053,3.241l8.319,9.763-0.992,12.788a2,2,0,0,0,2.757,2L736,408.872l11.856,4.895a2,2,0,0,0,2.758-2l-0.992-12.788,8.319-9.763a2,2,0,0,0-1.054-3.241l-12.469-3.008L737.7,372.035a2,2,0,0,0-1.7-.953h0Z" transform="translate(-713.594 -370)"/>
</svg>
