<svg id="Layer_1" data-name="Layer 1" xmlns="http://www.w3.org/2000/svg" xmlns:xlink="http://www.w3.org/1999/xlink" viewBox="0 0 297.51 89.29"><defs><style>.cls-1{fill:#ba272f;}.cls-2{fill:url(#linear-gradient);}.cls-3{fill:#cc2128;}.cls-4{fill:#2c4d74;}</style><linearGradient id="linear-gradient" x1="314.67" y1="217.76" x2="266.53" y2="216.36" gradientUnits="userSpaceOnUse"><stop offset="0" stop-color="#fff"/><stop offset="1" stop-color="#557c9b"/></linearGradient></defs><title>EuroGlass</title><path class="cls-1" d="M136.15,272.07l3.46,1.86a19.24,19.24,0,0,1-3.93,5.5,15.57,15.57,0,0,1-5,3.19,17.18,17.18,0,0,1-6.3,1.09q-7.8,0-12.2-5.22a17.83,17.83,0,0,1-4.4-11.8,17.64,17.64,0,0,1,3.72-11,15.11,15.11,0,0,1,12.64-6.16,15.6,15.6,0,0,1,13,6.31,17.88,17.88,0,0,1,3.52,11.13H112a13.4,13.4,0,0,0,3.55,9.3,11.2,11.2,0,0,0,8.48,3.63,13.35,13.35,0,0,0,4.74-.86,12.39,12.39,0,0,0,3.92-2.29A19.49,19.49,0,0,0,136.15,272.07Zm0-8.77a14,14,0,0,0-2.39-5.36,11.35,11.35,0,0,0-4.15-3.23,12.49,12.49,0,0,0-5.43-1.23,11.55,11.55,0,0,0-8.07,3.08,14,14,0,0,0-3.72,6.73Z" transform="translate(-107.77 -206.32)"/><path class="cls-1" d="M147.79,250.31h4.1v15.2a33.16,33.16,0,0,0,.59,7.66,8.53,8.53,0,0,0,3.36,4.73,10,10,0,0,0,5.91,1.74,9.83,9.83,0,0,0,5.82-1.69,8.64,8.64,0,0,0,3.3-4.44q.62-1.89.62-8v-15.2h4.19v16q0,6.73-1.54,10.14a11.93,11.93,0,0,1-4.63,5.34,14.39,14.39,0,0,1-7.75,1.93,14.54,14.54,0,0,1-7.78-1.93,11.83,11.83,0,0,1-4.66-5.39q-1.54-3.46-1.54-10.4Z" transform="translate(-107.77 -206.32)"/><path class="cls-1" d="M183.23,250.31h4.19v4.76a14.87,14.87,0,0,1,4-4.2,7.69,7.69,0,0,1,4.34-1.39,7.37,7.37,0,0,1,3.63,1.11l-2.14,3.53a5.61,5.61,0,0,0-2.17-.57,5.87,5.87,0,0,0-4,1.72,10.93,10.93,0,0,0-2.9,5.34q-.76,2.78-.76,11.25v11h-4.19Z" transform="translate(-107.77 -206.32)"/><path class="cls-1" d="M234.92,235a24.61,24.61,0,0,1,19.22,8.57,27.94,27.94,0,0,1-.39,37.28q-7.32,8-18.82,8t-18.87-8a27.88,27.88,0,0,1-.39-37.23A24.61,24.61,0,0,1,234.92,235Zm0,6.45a18.44,18.44,0,0,0-13.84,6.08,20.54,20.54,0,0,0-5.78,14.69,21.19,21.19,0,0,0,2.64,10.36A18.91,18.91,0,0,0,225,280a19.89,19.89,0,0,0,19.71,0,18.91,18.91,0,0,0,7.13-7.42,21.19,21.19,0,0,0,2.64-10.36,20.49,20.49,0,0,0-5.81-14.69A18.46,18.46,0,0,0,234.89,241.47Z" transform="translate(-107.77 -206.32)"/><polygon class="cls-1" points="127.23 42.39 130.16 51.4 139.63 51.4 131.97 56.97 134.9 65.98 127.23 60.41 119.57 65.98 122.5 56.97 114.83 51.4 124.31 51.4 127.23 42.39"/><path class="cls-2" d="M312.32,212.13s-29.78-2.87-44.78,4.79c-1.21.62.54,2.05,3.39,2,11.57-.37,46.06,3.45,49.3,4.83C317.75,218.15,312.32,212.13,312.32,212.13Z" transform="translate(-107.77 -206.32)"/><path class="cls-3" d="M354,230.17a60.06,60.06,0,0,0-7.48-5.65,84.7,84.7,0,0,0-9.32-5.3,93.73,93.73,0,0,0-12.9-5.07,87.9,87.9,0,0,0-34.18-3.36,104.89,104.89,0,0,0-19.06,3.74,32.41,32.41,0,0,0-4.51,1.74,10.59,10.59,0,0,0-1.89,1.16,3,3,0,0,0-.59.6c-.12.18-.09.23-.09.15s0,0,.16.16a3.24,3.24,0,0,0,.74.44,10.17,10.17,0,0,0,2.12.64,25.75,25.75,0,0,0,4.81.42c6.89,0,13.77.48,20.49,1.09s13.33,1.5,19.68,2.5,12.47,2.19,18.22,3.49,11.15,2.73,16.08,4.22,9.39,3,13.28,4.56,7.24,3,9.94,4.26c1.36.62,2.55,1.23,3.59,1.77s1.91,1,2.6,1.4l2.15,1.2-2.22-1.05c-.72-.35-1.62-.76-2.69-1.22s-2.28-1-3.67-1.56c-2.75-1.17-6.15-2.41-10.09-3.75s-8.44-2.63-13.37-4-10.34-2.53-16.07-3.69-11.83-2.16-18.15-3.07-12.88-1.63-19.55-2.23-13.46-1-20.25-1a28.62,28.62,0,0,1-5.38-.5,13,13,0,0,1-2.77-.86,6.1,6.1,0,0,1-1.44-.89,3.27,3.27,0,0,1-1.15-2,3.15,3.15,0,0,1,.58-2.25,5.85,5.85,0,0,1,1.18-1.23,13.38,13.38,0,0,1,2.44-1.5,35.2,35.2,0,0,1,4.94-1.9,97.73,97.73,0,0,1,19.7-3.66c3.24-.28,6.44-.32,9.57-.28a88.61,88.61,0,0,1,9.13.76,83.31,83.31,0,0,1,29.17,9.6,85.58,85.58,0,0,1,9.13,5.85,59.69,59.69,0,0,1,5.37,4.43C353.42,229.54,354,230.17,354,230.17Z" transform="translate(-107.77 -206.32)"/><path class="cls-3" d="M168.83,232.67a4.53,4.53,0,0,0,.37.3,10.39,10.39,0,0,0,1.11.72,19.6,19.6,0,0,0,1.81.9,23.77,23.77,0,0,0,2.48.83,9.81,9.81,0,0,0,1.45.34c.51.09,1,.22,1.56.3,1.09.1,2.23.28,3.43.29.6,0,1.2.06,1.82.05s1.24-.06,1.87-.07a37.73,37.73,0,0,0,3.8-.33l1-.09.95-.16,1.89-.32c1.25-.18,2.47-.49,3.65-.74s2.34-.49,3.41-.8,2.1-.55,3-.79,1.8-.53,2.57-.74l2-.56c1.11-.3,1.75-.46,1.75-.46s-.58.31-1.61.83l-1.87.91c-.73.33-1.53.77-2.46,1.11s-1.92.75-3,1.13c-.54.19-1.08.41-1.65.58s-1.16.33-1.76.5a34.88,34.88,0,0,1-3.72.93l-1.94.36-1,.18-1,.11a39.62,39.62,0,0,1-4,.27c-.66,0-1.31,0-2,0s-1.29-.11-1.91-.16a25.54,25.54,0,0,1-3.58-.58,20.74,20.74,0,0,1-3.1-1,17.12,17.12,0,0,1-2.46-1.23,14,14,0,0,1-1.7-1.26,7.63,7.63,0,0,1-1-1A4.53,4.53,0,0,1,168.83,232.67Z" transform="translate(-107.77 -206.32)"/><path class="cls-3" d="M200.5,246.13s.15-.31.46-.89.78-1.42,1.46-2.44a41.59,41.59,0,0,1,2.59-3.59c.52-.68,1.14-1.35,1.76-2.09s1.36-1.44,2.1-2.19a42,42,0,0,1,5.27-4.39,39.31,39.31,0,0,1,6.69-3.86,35.67,35.67,0,0,1,8-2.44l2-.34,2.2-.15,1.11-.07c.37,0,.72,0,1.09,0l2.17.08a34.84,34.84,0,0,1,8.42,1.87c.67.25,1.35.46,2,.74l1.89.92.94.46.88.54,1.74,1.06c1.11.77,2.18,1.56,3.18,2.37s1.92,1.7,2.75,2.61l1.21,1.35a12.22,12.22,0,0,1,1.12,1.35c.66.95,1.36,1.81,1.92,2.72l1.55,2.63,1.14,2.5a17,17,0,0,1,.86,2.24l.65,1.93c.31,1.19.49,2.14.63,2.77l.21,1-1.41-3.54-.89-1.79a20.16,20.16,0,0,0-1.09-2.07l-1.37-2.27L262,240.78c-.6-.82-1.34-1.58-2-2.42s-1.57-1.57-2.37-2.4-1.8-1.5-2.72-2.28-2-1.41-3.06-2.07a35.51,35.51,0,0,0-7-3.21,29.32,29.32,0,0,0-3.8-1,15.83,15.83,0,0,0-2-.32c-.66-.08-1.31-.21-2-.24l-2-.1c-.33,0-.66,0-1,0l-1,.05-1.93.09-2,.31-1,.16-.25,0h-.05l-.12,0-.47.12-1.88.46a15.66,15.66,0,0,0-1.83.57l-1.79.62a45,45,0,0,0-6.48,3.29,51.68,51.68,0,0,0-5.36,3.81c-1.57,1.32-3,2.58-4.15,3.77s-2.19,2.26-3,3.18C201.3,245,200.5,246.13,200.5,246.13Z" transform="translate(-107.77 -206.32)"/><path class="cls-3" d="M270.93,237.33l.9.2c.58.14,1.45.29,2.55.52s2.44.44,4,.73,3.26.54,5.15.78c.95.12,1.93.27,2.95.39l3.16.35c1.08.14,2.2.23,3.34.3s2.3.19,3.49.29c2.37.08,4.82.25,7.31.26s5,.08,7.54-.1l3.78-.13,3.74-.35,1.85-.17c.61-.05,1.23-.08,1.83-.18l3.57-.51c1.17-.18,2.33-.3,3.45-.53l3.28-.67,3.11-.63c1-.24,1.94-.52,2.86-.76,1.83-.52,3.54-.91,5-1.35l3.81-1.29c2.13-.7,3.36-1.08,3.36-1.08s-1.12.61-3.13,1.63l-3.64,1.82c-1.44.63-3.1,1.24-4.92,1.92-.91.33-1.85.71-2.84,1l-3.12.87-3.3.91c-1.12.33-2.31.47-3.5.71l-3.64.68c-1.23.24-2.49.32-3.76.47l-3.83.41-3.88.18c-2.59.14-5.18,0-7.72,0-1.27,0-2.53-.11-3.78-.22l-3.68-.31c-2.4-.32-4.73-.58-6.91-1l-3.18-.59c-1-.22-2-.46-2.94-.68-1.89-.41-3.59-.94-5.1-1.36s-2.8-.88-3.86-1.27-1.88-.71-2.44-.94Z" transform="translate(-107.77 -206.32)"/><path class="cls-3" d="M312.32,210.27s.41.32,1.09.93,1.64,1.49,2.72,2.61c.55.55,1.14,1.16,1.72,1.83s1.22,1.37,1.84,2.11,1.25,1.53,1.87,2.35,1.26,1.63,1.86,2.48l1.71,2.59c.57.85,1.11,1.7,1.57,2.56s.92,1.69,1.34,2.48a24.82,24.82,0,0,1,1.12,2.26c1.21,2.89,1.84,4.87,1.84,4.87s-1.25-1.7-2.85-4.31c-.39-.66-.92-1.32-1.4-2.05s-1-1.49-1.54-2.3-1.13-1.59-1.69-2.43l-1.74-2.51-6.53-9.2c-.89-1.26-1.62-2.33-2.13-3.08Z" transform="translate(-107.77 -206.32)"/><path class="cls-3" d="M257.33,218.17,245.84,218l-11.49-.06c-7.66,0-15.31.06-22.95.33q-5.73.2-11.43.66c-1.9.15-3.79.35-5.67.59s-3.7.55-5.59,1-3.73.77-5.58,1.2-3.69.9-5.51,1.44-3.62,1.09-5.38,1.76c-.88.33-1.74.7-2.58,1.1-.41.2-.83.41-1.22.64a8.38,8.38,0,0,0-1,.67l-.23-1.32c.7.3,1.39.63,2.11.89s1.44.52,2.17.76,1.47.44,2.22.62,1.5.35,2.25.5a52.73,52.73,0,0,0,9.21.94,70.61,70.61,0,0,0,9.31-.42q2.32-.25,4.63-.65c1.54-.26,3.08-.55,4.59-.92a62.75,62.75,0,0,1-9.15,2.13,68.94,68.94,0,0,1-9.39.89,53.84,53.84,0,0,1-9.46-.61c-.78-.13-1.56-.27-2.34-.45s-1.55-.37-2.32-.58-1.53-.45-2.28-.73-1.49-.58-2.24-.87l-1.19-.47,1-.85a8.74,8.74,0,0,1,1.32-1c.43-.27.87-.5,1.31-.73.88-.44,1.77-.86,2.68-1.22q2.71-1.11,5.49-1.94c1.85-.56,3.72-1.05,5.6-1.51s3.78-.89,5.65-1.25,3.83-.7,5.74-.95,3.84-.43,5.77-.56c3.84-.3,7.69-.43,11.53-.51s7.68-.08,11.52,0,7.67.15,11.5.3,7.66.34,11.49.57S253.51,217.82,257.33,218.17Z" transform="translate(-107.77 -206.32)"/><path class="cls-3" d="M289.33,207.33l-.93,0h-2.62c-2.26,0-5.48.06-9.35.21-1.93.05-4,.2-6.23.3s-4.53.3-6.94.49-4.89.42-7.4.71l-3.8.41-3.82.52c-2.55.29-5.09.72-7.59,1.12s-4.94.87-7.32,1.3-4.64,1-6.81,1.41l-3.15.68-2.92.73c-1.87.49-3.6.86-5.12,1.27l-3.92,1.11c-2.18.61-3.43.93-3.43.93s1.2-.49,3.31-1.3l3.82-1.45c1.48-.54,3.18-1.07,5-1.66l2.89-.92c1-.29,2.06-.55,3.13-.84,2.16-.56,4.42-1.22,6.8-1.68s4.82-1.1,7.35-1.48,5.07-.89,7.65-1.2l3.85-.49,3.84-.38c2.54-.29,5.05-.38,7.47-.54s4.78-.18,7-.23,4.33,0,6.27,0,3.72.14,5.3.24,2.95.21,4.07.31C288.05,207.13,289.33,207.33,289.33,207.33Z" transform="translate(-107.77 -206.32)"/><path class="cls-4" d="M300,250.31h4.1v25.94q0,6.85-1.17,10a13,13,0,0,1-5.6,6.91,18.09,18.09,0,0,1-9.58,2.42,21.53,21.53,0,0,1-7.37-1.18,14.68,14.68,0,0,1-5.32-3.18,19,19,0,0,1-3.78-5.84h4.45a11.89,11.89,0,0,0,4.69,4.79,14.83,14.83,0,0,0,7.13,1.56,14.48,14.48,0,0,0,7.08-1.6,9.68,9.68,0,0,0,4.12-4q1.23-2.42,1.23-7.8v-1.67a15.59,15.59,0,0,1-5.66,4.59,16.49,16.49,0,0,1-15.37-.63,15.66,15.66,0,0,1-6-6,16.67,16.67,0,0,1-2.11-8.29,16.88,16.88,0,0,1,2.2-8.42,16.32,16.32,0,0,1,6.08-6.18,16,16,0,0,1,8.2-2.27,15,15,0,0,1,6.67,1.51,18.48,18.48,0,0,1,6,5Zm-12.1,3.2a12.76,12.76,0,0,0-6.47,1.72,12.33,12.33,0,0,0-4.69,4.76,13.23,13.23,0,0,0-1.7,6.57,12,12,0,0,0,3.51,8.86,12.54,12.54,0,0,0,21.65-9.1,13.44,13.44,0,0,0-1.58-6.57,11.66,11.66,0,0,0-4.48-4.56A12.27,12.27,0,0,0,288,253.51Z" transform="translate(-107.77 -206.32)"/><path class="cls-4" d="M312.32,237.75h4.1v45.12h-4.1Z" transform="translate(-107.77 -206.32)"/><path class="cls-4" d="M356.71,250.31v32.55h-4v-5.6a17.66,17.66,0,0,1-5.79,4.82,15.9,15.9,0,0,1-18.57-3.4,17,17,0,0,1-4.79-12.19,16.68,16.68,0,0,1,4.83-12,15.6,15.6,0,0,1,11.63-5,14.79,14.79,0,0,1,7.1,1.71,16.29,16.29,0,0,1,5.58,5.12v-6Zm-16.39,3.2a12.16,12.16,0,0,0-6.32,1.72,12.48,12.48,0,0,0-4.61,4.83,13.44,13.44,0,0,0,0,13.15A12.73,12.73,0,0,0,334,278.1a11.93,11.93,0,0,0,6.25,1.75,12.59,12.59,0,0,0,6.38-1.73,12,12,0,0,0,4.64-4.69,13.62,13.62,0,0,0,1.62-6.67,13.1,13.1,0,0,0-3.64-9.44A11.94,11.94,0,0,0,340.32,253.51Z" transform="translate(-107.77 -206.32)"/><path class="cls-4" d="M382,253.87l-2.64,2.78q-3.29-3.26-6.43-3.26a4.81,4.81,0,0,0-3.42,1.35,4.2,4.2,0,0,0-1.42,3.14,4.71,4.71,0,0,0,1.17,3,16.49,16.49,0,0,0,4.93,3.44q4.58,2.42,6.22,4.67a8.63,8.63,0,0,1,1.61,5.12,9.47,9.47,0,0,1-9.65,9.58,11.85,11.85,0,0,1-5.27-1.23,11.49,11.49,0,0,1-4.15-3.38l2.58-3q3.14,3.62,6.67,3.62a5.93,5.93,0,0,0,4.2-1.62,5,5,0,0,0,1.73-3.8,4.93,4.93,0,0,0-1.14-3.2,18.4,18.4,0,0,0-5.17-3.47q-4.32-2.27-5.87-4.49a8.58,8.58,0,0,1-1.56-5.06,8.31,8.31,0,0,1,2.48-6.16,8.54,8.54,0,0,1,6.26-2.45Q377.5,249.48,382,253.87Z" transform="translate(-107.77 -206.32)"/><path class="cls-4" d="M405.25,253.87l-2.64,2.78q-3.29-3.26-6.43-3.26a4.81,4.81,0,0,0-3.42,1.35,4.2,4.2,0,0,0-1.42,3.14,4.71,4.71,0,0,0,1.17,3,16.49,16.49,0,0,0,4.93,3.44q4.58,2.42,6.22,4.67a8.63,8.63,0,0,1,1.61,5.12,9.47,9.47,0,0,1-9.65,9.58,11.85,11.85,0,0,1-5.27-1.23,11.49,11.49,0,0,1-4.15-3.38l2.58-3q3.14,3.62,6.67,3.62a5.93,5.93,0,0,0,4.2-1.62,5,5,0,0,0,1.73-3.8,4.93,4.93,0,0,0-1.14-3.2,18.4,18.4,0,0,0-5.17-3.47q-4.32-2.27-5.87-4.49a8.58,8.58,0,0,1-1.56-5.06,8.31,8.31,0,0,1,2.48-6.16,8.54,8.54,0,0,1,6.26-2.45Q400.79,249.48,405.25,253.87Z" transform="translate(-107.77 -206.32)"/></svg>