<svg xmlns="http://www.w3.org/2000/svg" width="43" height="43" viewBox="0 0 43 43">
  <metadata><?xpacket begin="﻿" id="W5M0MpCehiHzreSzNTczkc9d"?>
<x:xmpmeta xmlns:x="adobe:ns:meta/" x:xmptk="Adobe XMP Core 5.6-c142 79.160924, 2017/07/13-01:06:39        ">
   <rdf:RDF xmlns:rdf="http://www.w3.org/1999/02/22-rdf-syntax-ns#">
      <rdf:Description rdf:about=""/>
   </rdf:RDF>
</x:xmpmeta>
                                                                                                    
                                                                                                    
                                                                                                    
                                                                                                    
                                                                                                    
                                                                                                    
                                                                                                    
                                                                                                    
                                                                                                    
                                                                                                    
                                                                                                    
                                                                                                    
                                                                                                    
                                                                                                    
                                                                                                    
                                                                                                    
                                                                                                    
                                                                                                    
                                                                                                    
                                                                                                    
                           
<?xpacket end="w"?></metadata>
<defs>
    <style>
      .cls-1 {
        fill: #fff;
        fill-rule: evenodd;
      }
    </style>
  </defs>
  <path id="Info" class="cls-1" d="M573,568a21.5,21.5,0,1,1,21.5-21.5A21.525,21.525,0,0,1,573,568Zm0-41a19.5,19.5,0,1,0,19.5,19.5A19.523,19.523,0,0,0,573,527Zm2.42,10.876a2.656,2.656,0,1,1,2.655-2.655A2.655,2.655,0,0,1,575.42,537.876Zm-6.691,4.667v-0.649c2.106-.836,5.352-0.53,7.526-1.3h0.26c-1.048,5.312-3.262,10.144-3.764,15.571a0.606,0.606,0,0,0,.26.129c1.634,0.548,2.571-3.248,3.633-2.984s-0.666,2.149-.908,2.466c-0.953,1.246-2.774,3.363-4.931,3.373-1.523.009-3.1-.952-2.854-3.5s1.681-6.107,2.465-8.954C571.049,544.4,571.865,542.48,568.729,542.543Z" transform="translate(-551.5 -525)"/>
</svg>
