<svg xmlns="http://www.w3.org/2000/svg" width="43.062" height="43" viewBox="0 0 43.062 43">
  <metadata><?xpacket begin="﻿" id="W5M0MpCehiHzreSzNTczkc9d"?>
<x:xmpmeta xmlns:x="adobe:ns:meta/" x:xmptk="Adobe XMP Core 5.6-c142 79.160924, 2017/07/13-01:06:39        ">
   <rdf:RDF xmlns:rdf="http://www.w3.org/1999/02/22-rdf-syntax-ns#">
      <rdf:Description rdf:about=""/>
   </rdf:RDF>
</x:xmpmeta>
                                                                                                    
                                                                                                    
                                                                                                    
                                                                                                    
                                                                                                    
                                                                                                    
                                                                                                    
                                                                                                    
                                                                                                    
                                                                                                    
                                                                                                    
                                                                                                    
                                                                                                    
                                                                                                    
                                                                                                    
                                                                                                    
                                                                                                    
                                                                                                    
                                                                                                    
                                                                                                    
                           
<?xpacket end="w"?></metadata>
<defs>
    <style>
      .cls-1 {
        fill: #fff;
        fill-rule: evenodd;
      }
    </style>
  </defs>
  <path id="Code_Scanner" data-name="Code Scanner" class="cls-1" d="M426,301a1,1,0,0,1-2,0c0-.01.006-0.018,0.006-0.028V297a2,2,0,0,0-2-2h-1.6v-0.006h-1.347a0.28,0.28,0,0,1-.028.006,1,1,0,0,1,0-2h0v-0.006h3.305V293h0.675a3,3,0,0,1,3,3v5H426Zm-6,10.007h-2.009v-9.038H420v9.038Zm-5.009-9.038H416v9.038h-1.009v-9.038Zm-4,0h1v9.038h-1v-9.038Zm-4,0H409v9.038h-2.009v-9.038Zm-6.982,0h3v9.038h-3v-9.038Zm-3.014,0h1v9.038h-1v-9.038Zm-4,0H394v9.038h-1.009v-9.038ZM390.048,295a0.28,0.28,0,0,1-.028-0.006h-0.408V295H387a2,2,0,0,0-2,2v3.972A0.28,0.28,0,0,1,385,301a1,1,0,0,1-2,0h-0.006v-5a3,3,0,0,1,3-3h0.748v-0.006h3.305V293h0A1,1,0,0,1,390.048,295Zm0.95,6.969v9.038h-2.009v-9.038H391ZM383.96,313.02h41.085a0.987,0.987,0,0,1,0,1.973H383.96A0.987,0.987,0,1,1,383.96,313.02Zm5.029,4H391v10.015h-2.009V317.016ZM383,328a1,1,0,0,1,2,0,0.28,0.28,0,0,1-.006.028V332a1.994,1.994,0,0,0,1.749,1.975v-0.029h3.305v0.006h0a1,1,0,0,1,0,2,0.28,0.28,0,0,1-.028-0.006h-0.408V336H386a3,3,0,0,1-3-3v-5H383Zm11-5h-1.009v-5.98H394V323Zm1,4h-2v-2.028h2v2.028Zm3-4h-1v-5.98h1V323Zm1,4h-2v-2.028h2v2.028Zm4.008-4h-3v-5.98h3V323Zm-0.008,4h-2v-2.028h2v2.028Zm3.986-9.976H409V323h-2.009v-5.98Zm0,9.976h-2v-2.028h2v2.028ZM412,317.016V323h-1v-5.98h1Zm0,9.976h-2v-2.028h2v2.028Zm4-9.976V323h-1.009v-5.98H416Zm0,9.976h-2v-2.028h2v2.028Zm4,0.039h-2.009V317.016H420v10.015Zm-0.97,6.921h0v-0.006h3.305v0.021A2,2,0,0,0,424.008,332v-3.972c0-.01-0.006-0.018-0.006-0.028a1,1,0,0,1,2,0h0.007v5a3,3,0,0,1-3,3h-2.6v-0.054h-1.347a0.28,0.28,0,0,1-.028.006A1,1,0,0,1,419.028,333.952Z" transform="translate(-382.969 -293)"/>
</svg>
