<svg xmlns="http://www.w3.org/2000/svg" width="43.625" height="40.281" viewBox="0 0 43.625 40.281">
  <metadata><?xpacket begin="﻿" id="W5M0MpCehiHzreSzNTczkc9d"?>
<x:xmpmeta xmlns:x="adobe:ns:meta/" x:xmptk="Adobe XMP Core 5.6-c142 79.160924, 2017/07/13-01:06:39        ">
   <rdf:RDF xmlns:rdf="http://www.w3.org/1999/02/22-rdf-syntax-ns#">
      <rdf:Description rdf:about=""/>
   </rdf:RDF>
</x:xmpmeta>
                                                                                                    
                                                                                                    
                                                                                                    
                                                                                                    
                                                                                                    
                                                                                                    
                                                                                                    
                                                                                                    
                                                                                                    
                                                                                                    
                                                                                                    
                                                                                                    
                                                                                                    
                                                                                                    
                                                                                                    
                                                                                                    
                                                                                                    
                                                                                                    
                                                                                                    
                                                                                                    
                           
<?xpacket end="w"?></metadata>
<defs>
    <style>
      .cls-1 {
        fill: #fff;
        fill-rule: evenodd;
      }
    </style>
  </defs>
  <path id="Like" class="cls-1" d="M223.519,565.978a3.365,3.365,0,0,1-2.58-1.549c-0.8-.962-1.358-1.422-2.33-1.422l-7.613,0c-0.55,0-.993.111-0.993-0.439V547.416a1,1,0,0,1,.306-0.72,1.019,1.019,0,0,1,.728-0.28,19.733,19.733,0,0,0,5.748-.953C221.364,544,228.1,538.287,228,533.7c-0.038-1.707.056-2.83,0.013-3.6-0.094-1.669-.115-2.065.617-2.921a5.729,5.729,0,0,1,3.79-1.466c1.763,0,4.78,1,5.192,7.666a1.084,1.084,0,0,1,0,.114c-0.125,2.369-.315,4.559-0.474,5.5l7.232,0.02h4.926a4.031,4.031,0,0,1,4.331,3.957,4.344,4.344,0,0,1-1.36,3.146,5.437,5.437,0,0,1-.789,7.7,5.485,5.485,0,0,1,.279,1.721,5.411,5.411,0,0,1-2.869,4.8,2.458,2.458,0,0,1,.18.929c0,3-2.441,4.725-5.442,4.725H240.7ZM212,560.984c1.489,0.008,4.7-.008,6.606-0.008a4.785,4.785,0,0,1,3.868,2.049,2.634,2.634,0,0,0,1.042.953l17.175,0.008h2.93c1.9,0,3.442-.827,3.442-2.725a1.751,1.751,0,0,0-.347-1.043,1,1,0,0,1,.6-1.394,3.444,3.444,0,0,0,2.03-4.907,1,1,0,0,1,.393-1.342,3.441,3.441,0,0,0,.353-5.781,1,1,0,0,1,.171-1.714,2.336,2.336,0,0,0,1.355-2.113,2.043,2.043,0,0,0-2.331-1.957h-4.968l-8.459-.07a1,1,0,0,1-.906-1.315,45.856,45.856,0,0,0,.648-6.18c-0.169-2.629-.863-5.732-3.192-5.732a4.154,4.154,0,0,0-2.276.774,1.989,1.989,0,0,0-.165.209,8.805,8.805,0,0,0,.031,1.292c0.044,0.781-.049,1.925-0.01,3.663,0.126,5.736-7.4,12.055-12.6,13.717A24.292,24.292,0,0,1,212,548.381v12.6Zm38.542-13.023h-9.776a1,1,0,0,1,0-2h9.776A1,1,0,0,1,250.545,547.961ZM250.919,554H240.774a1,1,0,0,1,0-2h10.145A1,1,0,0,1,250.919,554Zm-3.105,5.984h-6.977a1,1,0,0,1,0-2h6.977A1,1,0,0,1,247.814,559.982Z" transform="translate(-210 -525.719)"/>
</svg>
