<svg xmlns="http://www.w3.org/2000/svg" width="35.938" height="37" viewBox="0 0 35.938 37">
  <metadata><?xpacket begin="﻿" id="W5M0MpCehiHzreSzNTczkc9d"?>
<x:xmpmeta xmlns:x="adobe:ns:meta/" x:xmptk="Adobe XMP Core 5.6-c142 79.160924, 2017/07/13-01:06:39        ">
   <rdf:RDF xmlns:rdf="http://www.w3.org/1999/02/22-rdf-syntax-ns#">
      <rdf:Description rdf:about=""/>
   </rdf:RDF>
</x:xmpmeta>
                                                                                                    
                                                                                                    
                                                                                                    
                                                                                                    
                                                                                                    
                                                                                                    
                                                                                                    
                                                                                                    
                                                                                                    
                                                                                                    
                                                                                                    
                                                                                                    
                                                                                                    
                                                                                                    
                                                                                                    
                                                                                                    
                                                                                                    
                                                                                                    
                                                                                                    
                                                                                                    
                           
<?xpacket end="w"?></metadata>
<defs>
    <style>
      .cls-1 {
        fill: #fff;
        fill-rule: evenodd;
      }
    </style>
  </defs>
  <path id="List_View" data-name="List View" class="cls-1" d="M161.929,557.994H139.265a1,1,0,0,1,0-2h22.664A1,1,0,0,1,161.929,557.994Zm0-7H139.265a1,1,0,0,1,0-2h22.664A1,1,0,0,1,161.929,551Zm0-7H139.265a1,1,0,0,1,0-2h22.664A1,1,0,0,1,161.929,543.993Zm0-7H139.265a1,1,0,0,1,0-2h22.664A1,1,0,0,1,161.929,537Zm0-7H139.265a1,1,0,0,1,0-2h22.664A1,1,0,0,1,161.929,529.993ZM133.988,565h-5a2,2,0,0,1-2-2v-5a2,2,0,0,1,2-2h5a2,2,0,0,1,2,2v5A2,2,0,0,1,133.988,565Zm0-7h-5v5h5v-5Zm0-7h-5a2,2,0,0,1-2-2v-5a2,2,0,0,1,2-2h5a2,2,0,0,1,2,2v5A2,2,0,0,1,133.988,551Zm0-7h-5v5h5v-5Zm0-7h-5a2,2,0,0,1-2-2v-5a2,2,0,0,1,2-2h5a2,2,0,0,1,2,2v5A2,2,0,0,1,133.988,537Zm0-7h-5v5h5v-5Zm5.277,33h22.664a1,1,0,0,1,0,2H139.265A1,1,0,0,1,139.265,563Z" transform="translate(-127 -528)"/>
</svg>
