<svg xmlns="http://www.w3.org/2000/svg" width="34.688" height="46.219" viewBox="0 0 34.688 46.219">
  <metadata><?xpacket begin="﻿" id="W5M0MpCehiHzreSzNTczkc9d"?>
<x:xmpmeta xmlns:x="adobe:ns:meta/" x:xmptk="Adobe XMP Core 5.6-c142 79.160924, 2017/07/13-01:06:39        ">
   <rdf:RDF xmlns:rdf="http://www.w3.org/1999/02/22-rdf-syntax-ns#">
      <rdf:Description rdf:about=""/>
   </rdf:RDF>
</x:xmpmeta>
                                                                                                    
                                                                                                    
                                                                                                    
                                                                                                    
                                                                                                    
                                                                                                    
                                                                                                    
                                                                                                    
                                                                                                    
                                                                                                    
                                                                                                    
                                                                                                    
                                                                                                    
                                                                                                    
                                                                                                    
                                                                                                    
                                                                                                    
                                                                                                    
                                                                                                    
                                                                                                    
                           
<?xpacket end="w"?></metadata>
<defs>
    <style>
      .cls-1 {
        fill: #fff;
        fill-rule: evenodd;
      }
    </style>
  </defs>
  <path id="Medal" class="cls-1" d="M590.359,386.092a1,1,0,0,0-.314-0.732l-3.8-3.588,1.028-5.123a1,1,0,0,0-.851-1.189l-5.183-.67-2.18-4.749a1,1,0,0,0-1.388-.461l-4.587,2.5-4.554-2.561a1,1,0,0,0-1.394.443l-2.239,4.721-5.19.606a0.96,0.96,0,0,0-.689.4,1,1,0,0,0-.178.777l0.964,5.135-3.843,3.541a1,1,0,0,0-.008,1.462l3.8,3.588-1.028,5.124a1,1,0,0,0,.853,1.188l5.182,0.67,0.32,0.7-3.819,14.445a1,1,0,0,0,1.251,1.2l4.582-1.335,2.824,3.092a1,1,0,0,0,.666.323,1.014,1.014,0,0,0,.349-0.036,1,1,0,0,0,.707-0.782l1.766-9.108,2.431,7.215a1,1,0,0,0,.733.681,1.022,1.022,0,0,0,.3.023,1,1,0,0,0,.661-0.318l3.242-3.5,4.013,1.2A1,1,0,0,0,586,409.661l-4.975-12.226,0.072-.153,5.192-.606a0.209,0.209,0,0,0,.034,0l0.019,0a1,1,0,0,0,.839-1.139,1.025,1.025,0,0,0-.063-0.228l-0.926-4.94,3.843-3.54A1,1,0,0,0,590.359,386.092ZM570.033,412.44l-1.883-2.06a1,1,0,0,0-1.019-.287l-3.512,1.024,2.769-10.388,0.551,1.2a1,1,0,0,0,.594.532,0.993,0.993,0,0,0,.794-0.072l4.112-2.244Zm13.386-3.962-2.676-.8a1,1,0,0,0-1.02.28l-2.485,2.684-2.958-8.634a0.971,0.971,0,0,0-.121-0.222l0.21-1.084,3.1,1.742a1,1,0,0,0,.64.117,0.918,0.918,0,0,0,.153-0.036,1,1,0,0,0,.6-0.524l1.009-2.129Zm1.012-19.212a1,1,0,0,0-.305.92L585,394.814l-4.677.546a1.021,1.021,0,0,0-.788.565l-2.017,4.252-4.1-2.306a0.989,0.989,0,0,0-.641-0.117,0.959,0.959,0,0,0-.328.111l-4.133,2.255-1.964-4.278a1,1,0,0,0-.78-0.575l-4.669-.6,0.927-4.615a1,1,0,0,0-.294-0.923l-3.422-3.234,3.462-3.19a1,1,0,0,0,.305-0.92l-0.868-4.626,4.676-.545a0.961,0.961,0,0,0,.787-0.565l2.017-4.253,4.1,2.306a1,1,0,0,0,.97.007l4.132-2.256,1.964,4.278a1,1,0,0,0,.779.575l4.669,0.6-0.925,4.616a1,1,0,0,0,.293.923l3.421,3.233Zm-11.267-11.205a7.949,7.949,0,1,0,7.948,7.948A7.958,7.958,0,0,0,573.164,378.061Zm0,13.9a5.949,5.949,0,1,1,5.948-5.95A5.957,5.957,0,0,1,573.164,391.959Z" transform="translate(-555.656 -369.375)"/>
</svg>
