<svg xmlns="http://www.w3.org/2000/svg" width="44.999" height="44.999" viewBox="0 0 43 43">
  <metadata><?xpacket begin="﻿" id="W5M0MpCehiHzreSzNTczkc9d"?>
<x:xmpmeta xmlns:x="adobe:ns:meta/" x:xmptk="Adobe XMP Core 5.6-c142 79.160924, 2017/07/13-01:06:39        ">
   <rdf:RDF xmlns:rdf="http://www.w3.org/1999/02/22-rdf-syntax-ns#">
      <rdf:Description rdf:about=""/>
   </rdf:RDF>
</x:xmpmeta>
                                                                                                    
                                                                                                    
                                                                                                    
                                                                                                    
                                                                                                    
                                                                                                    
                                                                                                    
                                                                                                    
                                                                                                    
                                                                                                    
                                                                                                    
                                                                                                    
                                                                                                    
                                                                                                    
                                                                                                    
                                                                                                    
                                                                                                    
                                                                                                    
                                                                                                    
                                                                                                    
                           
<?xpacket end="w"?></metadata>
<defs>
    <style>
      .cls-1 {
        fill: #fff;
        fill-rule: evenodd;
      }
    </style>
  </defs>
  <path id="User" class="cls-1" d="M736,568a21.5,21.5,0,1,1,21.5-21.5A21.525,21.525,0,0,1,736,568Zm13.269-7.252a14.525,14.525,0,0,0-4.191-1.428c-2.108-.523-4.922-0.9-4.675-3.328a6.646,6.646,0,0,1-6.735,1.11c-0.726-.3-1.214-0.916-1.743-0.872,0.147,2.362-2.726,2.616-4.675,3.09a12.571,12.571,0,0,0-4.341,1.59A19.384,19.384,0,0,0,749.269,560.748Zm-11.8-26.307c-6.544-.563-9.742,3.907-8.795,10.459a0.93,0.93,0,0,0-.713.4c0.018,1.963.387,3.575,1.823,4.12,0.715,3.224,2.993,7,7.051,6.5,3.278-.4,5.073-3.585,5.784-6.5,1.38-.557,1.874-2.392,1.743-4.2-0.029-.314-0.526-0.161-0.713-0.317C744.827,539.768,741.864,534.819,737.471,534.441ZM736,527a19.468,19.468,0,0,0-14.342,32.667,5.991,5.991,0,0,1,1.155-.822c2.085-1.1,4.815-.964,7.369-2.219v-2.218c-1.031-.931-1.194-2.464-1.9-3.724a22.328,22.328,0,0,1-1.426-1.981,6.565,6.565,0,0,1-.634-3.328c0.071-.659.482-1.076,0.555-1.664,0.1-.82-0.074-1.675,0-2.456a9.381,9.381,0,0,1,8.082-8.557h2.693c4.613,0.759,7.77,4.168,8.082,9.191,0.037,0.589-.175,1.242-0.079,1.9a17.562,17.562,0,0,1,.634,1.822,6.605,6.605,0,0,1-2.14,5.071,10.752,10.752,0,0,1-1.822,3.724v2.139c2.135,1.267,5.014,1.17,7.131,2.219a6.728,6.728,0,0,1,1.14.731A19.467,19.467,0,0,0,736,527Z" transform="translate(-714.5 -525)"/>
</svg>
