<svg width="56" height="56" viewBox="0 0 56 56" fill="none" xmlns="http://www.w3.org/2000/svg">
<path d="M56 28C56 43.4571 43.4571 56 28 56C22 56 16.4286 54.1143 11.8571 50.8857C10.7143 50.0857 9.62857 49.1714 8.6 48.2C3.31429 43.1143 0 35.9429 0 28C0 12.5429 12.5429 0 28 0C43.4857 0 56 12.5429 56 28Z" fill="#FFC200"/>
<path d="M22.7151 25.1142L19.5722 28.5999L16.4294 25.1142H15.8008V33.3428H17.4579V28.7428L19.5722 30.9428L21.6865 28.7428V33.3428H23.3436V25.1142H22.7151Z" fill="white"/>
<path d="M25.1992 33.3428V25.1142H28.4278C31.6278 25.1142 31.5992 30.1999 28.4278 30.1999H26.8278V33.3428H25.1992ZM28.2849 28.5999C29.3992 28.5999 29.3992 26.7713 28.2849 26.7713H26.8278V28.5999H28.2849Z" fill="white"/>
<path d="M33.7724 25.1142V31.6856H36.3724V33.3428H32.1152V25.1142H33.7724Z" fill="white"/>
<path d="M37.8008 33.3428V25.1142H41.9151V26.7713H39.4294V28.4285H41.6008V30.0856H39.4294V31.7428H42.0294V33.3999H37.8008V33.3428Z" fill="white"/>
<path d="M50.3995 33.3428H48.4566L46.8852 30.5142C46.2566 31.5713 45.6566 32.5713 44.9995 33.3428C40.9709 38.9142 34.3995 42.5428 26.9995 42.5428C20.7424 42.5428 15.0852 39.9428 11.0566 35.7713C11.5138 35.5142 11.9424 35.2285 12.3138 34.8571C16.0566 38.6571 21.2566 40.9999 26.9995 40.9999C34.1995 40.9999 40.5424 37.3142 44.2281 31.7142L45.2852 29.9428L45.8566 28.9713L45.7995 28.8856L43.6281 25.1142H45.6281L46.5995 26.8856L46.8852 27.3999L48.1138 25.1142H50.0566L47.8281 28.9713L50.3995 33.3428Z" fill="white"/>
<path d="M13.4292 33.3429C13.2292 33.7715 12.972 34.1429 12.6863 34.5143C12.572 34.6286 12.4578 34.7715 12.3435 34.8858C11.972 35.2572 11.5435 35.5429 11.0863 35.8C10.372 36.1715 9.54347 36.4 8.65776 36.4572C8.5149 36.4572 8.37204 36.4572 8.22918 36.4572C7.65776 36.4572 6.65776 36.3715 5.48633 35.9429L5.68633 34.2572C6.77204 34.7143 7.7149 34.8 8.22918 34.8C8.34347 34.8 8.45776 34.8 8.54347 34.8C9.02918 34.7715 9.5149 34.6858 9.9149 34.5143C10.4292 34.3143 10.8578 34.0286 11.2292 33.6572C11.3149 33.5715 11.4292 33.4572 11.5149 33.3429H13.4292Z" fill="white"/>
<path d="M13.9716 25.1142H12.3145V30.9142H13.9716V25.1142Z" fill="white"/>
<path d="M10.9431 30.9143C10.9431 32.2857 10.0003 33.3428 8.45742 33.4C8.05742 33.4285 7.22885 33.4 6.28599 33C6.14314 32.9428 6.00028 32.8857 5.85742 32.8L6.05742 31.0857C6.34314 31.2857 6.65742 31.4571 6.94314 31.5428C7.57171 31.7714 8.14314 31.7714 8.40028 31.7428C8.88599 31.7143 9.28599 31.3714 9.25742 30.9143C9.22885 30.4571 8.85742 30.2285 8.40028 30.0857C8.17171 30 7.97171 29.9143 7.77171 29.8285C6.77171 29.3714 5.97171 28.7143 5.97171 27.5714C5.97171 26.2 6.91456 25.1428 8.28599 25.0571C8.65742 25.0285 9.11456 25.0285 9.91456 25.2571C10.0574 25.2857 10.1717 25.3428 10.3146 25.4L10.1146 27C9.77171 26.8571 9.45742 26.7714 9.22885 26.7143C8.85742 26.6285 8.60028 26.6285 8.42885 26.6571C7.82885 26.6857 7.57171 27.1143 7.60028 27.5714C7.65742 28 8.00028 28.2 8.42885 28.3714C8.45742 28.3714 8.48599 28.4 8.51456 28.4C9.82885 28.8571 10.9431 29.6 10.9431 30.9143Z" fill="white"/>
</svg>
