<svg width="12" height="12" viewBox="0 0 12 12" fill="none" xmlns="http://www.w3.org/2000/svg">
<path d="M11.8936 11.388L8.97738 8.47184C9.75965 7.57251 10.2333 6.39911 10.2333 5.11663C10.2333 2.29357 7.93703 0 5.11663 0C2.29357 0 0 2.29623 0 5.11663C0 7.93703 2.29623 10.2333 5.11663 10.2333C6.39911 10.2333 7.57251 9.75965 8.47184 8.97738L11.388 11.8936C11.4572 11.9627 11.5503 12 11.6408 12C11.7313 12 11.8244 11.9654 11.8936 11.8936C12.0319 11.7552 12.0319 11.5264 11.8936 11.388ZM0.715743 5.11663C0.715743 2.69002 2.69002 0.718404 5.11397 0.718404C7.54058 0.718404 9.51219 2.69268 9.51219 5.11663C9.51219 7.54058 7.54058 9.51752 5.11397 9.51752C2.69002 9.51752 0.715743 7.54324 0.715743 5.11663Z" fill="#535B63"/>
</svg>
