<svg width="50" height="50" viewBox="0 0 50 50" fill="none" xmlns="http://www.w3.org/2000/svg">
<g clip-path="url(#clip0)">
<path d="M48.6722 25.0001C50.0089 26.9158 50.4396 29.3092 49.8193 31.6247C49.1994 33.9387 47.6293 35.7961 45.514 36.7871C45.7131 39.1152 44.8903 41.4029 43.1951 43.0974C41.5006 44.7926 39.2129 45.6155 36.8848 45.4163C35.8937 47.5316 34.0364 49.1017 31.7224 49.7216C31.268 49.8429 30.8103 49.9249 30.354 49.9657C30.1099 49.9883 29.8657 50.0001 29.6227 50.0001C29.3786 50.0001 29.1345 49.9883 28.8934 49.9657C27.5411 49.8418 26.2402 49.3703 25.1065 48.5802C25.1035 48.5783 25.1008 48.5764 25.0977 48.5745C23.182 49.9112 20.7887 50.3419 18.4731 49.7216C16.1591 49.1017 14.3018 47.5316 13.3107 45.4163C10.9826 45.6166 8.69453 44.7926 7.00042 43.0974C5.30517 41.4029 4.48196 39.1152 4.68146 36.7871C2.56621 35.7961 0.996082 33.9387 0.375811 31.6247C-0.244078 29.3092 0.186602 26.9158 1.52327 25.0001C0.186602 23.0843 -0.244078 20.691 0.375811 18.3755C0.996082 16.0615 2.56621 14.2041 4.68146 13.213C4.48196 10.8849 5.30517 8.59687 7.00042 6.90276C8.69453 5.20751 10.9826 4.3843 13.3107 4.58381C14.3018 2.46855 16.1591 0.898425 18.4731 0.278155C20.7887 -0.341734 23.182 0.0889457 25.0977 1.42562C25.1008 1.42371 25.1035 1.4218 25.1065 1.41989C27.0204 0.0878013 29.411 -0.340589 31.7224 0.278155C34.0364 0.898425 35.8937 2.46855 36.8848 4.58381C39.2129 4.38353 41.5006 5.20751 43.1951 6.90276C44.8903 8.59687 45.7131 10.8849 45.514 13.213C47.6293 14.2041 49.1994 16.0615 49.8193 18.3755C50.4396 20.691 50.0089 23.0843 48.6722 25.0001Z" fill="#F0E7DF"/>
<path d="M48.6731 24.9999C50.0098 26.9157 50.4405 29.309 49.8202 31.6245C49.2003 33.9385 47.6302 35.7959 45.5149 36.787C45.7141 39.1151 44.8912 41.4028 43.196 43.0973C41.5015 44.7925 39.2138 45.6153 36.8857 45.4162C35.8946 47.5315 34.0373 49.1016 31.7233 49.7215C31.2689 49.8428 30.8112 49.9248 30.3549 49.9656H25.1074V1.41976C27.0213 0.087671 29.4119 -0.34072 31.7233 0.278024C34.0373 0.898294 35.8946 2.46842 36.8857 4.58367C39.2138 4.3834 41.5015 5.20738 43.196 6.90263C44.8912 8.59674 45.7141 10.8848 45.5149 13.2129C47.6302 14.204 49.2003 16.0613 49.8202 18.3753C50.4405 20.6909 50.0098 23.0842 48.6731 24.9999Z" fill="#DFCDBD"/>
<path d="M39.8867 24.8232V27.1441C39.8867 33.5772 34.6537 38.8113 28.2206 38.8113C27.1425 38.8113 26.0984 38.6649 25.1074 38.3883C20.1811 37.0234 16.5544 32.4992 16.5544 27.1441V25.7323C16.5544 20.9856 20.3772 17.1149 25.1074 17.0405C25.1532 17.0386 25.2001 17.0386 25.247 17.0386H25.6006C30.1989 17.0386 33.9407 20.7804 33.9407 25.3786C33.9407 28.3793 31.4993 30.8207 28.4987 30.8207C27.2177 30.8207 26.0378 30.3755 25.1074 29.6313C23.8585 28.6333 23.0577 27.0972 23.0577 25.3786V23.9668H25.9871V25.3786C25.9871 26.7645 27.1139 27.8914 28.4987 27.8914C29.8845 27.8914 31.0114 26.7645 31.0114 25.3786C31.0114 22.3955 28.5837 19.9679 25.6006 19.9679H25.247C25.2001 19.9679 25.1532 19.969 25.1074 19.9698C21.9942 20.0442 19.4838 22.6008 19.4838 25.7323V27.1441C19.4838 30.8657 21.8225 34.0517 25.1074 35.3075C26.0752 35.6787 27.1238 35.8816 28.2206 35.8816C33.0385 35.8816 36.957 31.962 36.957 27.1441V24.8232C36.957 18.2925 31.6439 12.9725 25.1131 12.9645H25.0986C21.9339 12.9645 18.9585 14.1958 16.7185 16.4332C14.4754 18.6732 13.2402 21.6536 13.2402 24.8232V31.5482H10.3105V24.8232C10.3105 20.8693 11.8505 17.1538 14.6482 14.3599C17.441 11.5702 21.1515 10.0352 25.0986 10.0352H25.1173C33.2609 10.0451 39.8867 16.6792 39.8867 24.8232Z" fill="#FF633D"/>
<path d="M33.9407 25.3787C33.9407 28.3793 31.4993 30.8207 28.4987 30.8207C27.2177 30.8207 26.0378 30.3755 25.1074 29.6313V23.9668H25.9871V25.3787C25.9871 26.7645 27.114 27.8914 28.4987 27.8914C29.8846 27.8914 31.0114 26.7645 31.0114 25.3787C31.0114 22.3956 28.5838 19.9679 25.6007 19.9679H25.247C25.2001 19.9679 25.1532 19.969 25.1074 19.9698V17.0405C25.1532 17.0386 25.2001 17.0386 25.247 17.0386H25.6007C30.1989 17.0386 33.9407 20.7804 33.9407 25.3787Z" fill="#E70021"/>
<path d="M39.8867 24.8232V27.1441C39.8867 33.5772 34.6537 38.8113 28.2206 38.8113C27.1426 38.8113 26.0985 38.6649 25.1074 38.3883V35.3075C26.0752 35.6787 27.1239 35.8816 28.2206 35.8816C33.0386 35.8816 36.957 31.962 36.957 27.1441V24.8232C36.957 18.2925 31.6439 12.9725 25.1131 12.9645H25.1074V10.0352H25.1173C33.261 10.0451 39.8867 16.6792 39.8867 24.8232Z" fill="#E70021"/>
</g>
<defs>
<clipPath id="clip0">
<rect width="50" height="50" fill="white"/>
</clipPath>
</defs>
</svg>
