<svg width="12" height="12" viewBox="0 0 12 12" fill="none" xmlns="http://www.w3.org/2000/svg">
<circle cx="6" cy="6" r="5.5" transform="rotate(-90 6 6)" stroke="#535B63"/>
<path d="M6 0.5C6.53701 0.5 7.15779 0.948332 7.67411 1.98097C8.17547 2.98369 8.5 4.40394 8.5 6C8.5 7.59606 8.17547 9.01631 7.67411 10.019C7.15779 11.0517 6.53701 11.5 6 11.5C5.46299 11.5 4.84221 11.0517 4.32589 10.019C3.82453 9.01631 3.5 7.59606 3.5 6C3.5 4.40394 3.82453 2.98369 4.32589 1.98097C4.84221 0.948332 5.46299 0.5 6 0.5Z" stroke="#535B63"/>
<line x1="0.75" y1="6.25" x2="11.25" y2="6.25" stroke="#535B63"/>
</svg>
