<svg width="1440" height="786" viewBox="0 0 1440 786" fill="none" xmlns="http://www.w3.org/2000/svg">
<path d="M178.302 215.01C290.796 104.999 406.985 -8.62556 643.5 42.9998C704.904 56.4027 761.088 71.3798 813.413 85.3281C950.435 121.854 1060.99 151.325 1169.5 127C1245.76 109.904 1308.7 73.9111 1367.83 40.1008C1392.32 26.0986 1416.15 12.4706 1440 0.714111V785.463C1353.14 735.025 1237.23 690.761 991.5 717C816.616 735.674 709.757 682.116 599.528 626.87C523.819 588.925 446.521 550.183 344.5 533.5C202.301 510.247 92.095 546.538 0 599.558V355.153C67.9359 322.94 122.667 269.417 178.302 215.01Z" fill="#FCC032"/>
</svg>
