<svg width="145" height="197" viewBox="0 0 145 197" fill="none" xmlns="http://www.w3.org/2000/svg">
<path d="M101.345 167L31 156.453C31 114.192 31.1158 73.2759 39.7931 31.6421L127.724 45.7053L101.345 167Z" fill="#FCC032"/>
<path d="M32.7586 24.6105L36.2759 8.78947L47.5447 10.6327L52.1034 0L120.69 12.3053L121.855 22.7875L133 24.6105V39.4788L32.7586 24.6105Z" fill="#FCC032"/>
<ellipse opacity="0.1" cx="72.5" cy="189" rx="72.5" ry="8" fill="black"/>
<path d="M51.2319 78.1921C51.3141 78.1851 51.5424 78.1508 51.9169 78.0894C52.3143 78.0115 52.5541 77.9689 52.6362 77.9619C52.7184 77.9548 52.9254 77.9273 53.2572 77.8793C53.6087 77.8345 53.8355 77.8101 53.9374 77.8062C54.0622 77.7858 54.2676 77.7681 54.5536 77.7533C54.8624 77.7219 55.0975 77.709 55.2586 77.7146C55.4229 77.7005 55.6465 77.6959 55.9293 77.7008C56.2121 77.7057 56.4637 77.7157 56.6841 77.7309C57.1248 77.7611 57.6711 77.8286 58.3227 77.9333C59.8037 78.1711 61.1952 78.8403 62.4972 79.9407C63.0325 80.3912 63.2764 80.7646 63.2288 81.0608C63.1812 81.3571 63.0772 81.5632 62.9168 81.6792C62.7761 81.7984 62.5577 81.8342 62.2615 81.7866C61.985 81.7422 61.7576 81.6449 61.5791 81.4947C60.383 80.4924 59.2221 79.9008 58.0965 79.72C56.9709 79.5392 55.9579 79.4778 55.0573 79.5357C54.1764 79.5968 53.0396 79.7383 51.6468 79.9603C51.3182 79.9885 51.0847 79.9915 50.9465 79.9693C50.3541 79.8742 50.1055 79.5304 50.2006 78.938C50.264 78.5431 50.6078 78.2944 51.2319 78.1921ZM54.8773 93.3317L55.8204 93.5136C57.2619 93.7451 59.0186 93.3386 61.0905 92.2939C61.2675 92.2008 61.4843 92.1748 61.741 92.2161C62.3334 92.3112 62.5821 92.655 62.4869 93.2474C62.452 93.4646 62.1691 93.7129 61.6381 93.9922C59.4058 95.1529 57.4405 95.5969 55.7423 95.3241C54.0638 95.0545 52.8317 94.6541 52.046 94.1228C51.2603 93.5915 50.707 92.8747 50.386 91.9723C50.319 91.759 50.3013 91.5536 50.333 91.3561C50.4282 90.7637 50.772 90.5151 51.3644 90.6102C51.6211 90.6515 51.811 90.7934 51.9341 91.036C52.0801 91.262 52.1467 91.4145 52.1341 91.4935C52.2547 91.8775 52.5858 92.275 53.1275 92.6861C53.2923 90.5249 53.5634 88.2693 53.9408 85.9195L54.5117 82.365C54.6069 81.7726 54.9506 81.524 55.543 81.6191C56.1354 81.7143 56.3841 82.058 56.2889 82.6505L55.7181 86.2049C55.3787 88.3178 55.131 90.3644 54.975 92.3448L54.8773 93.3317ZM73.4394 96.9511C73.6201 95.8255 73.0361 94.3543 71.6871 92.5374C71.6374 92.4686 71.4369 92.2035 71.0856 91.7419C70.7541 91.2835 70.5371 90.9955 70.4344 90.8777C70.3547 90.7434 70.1756 90.4715 69.897 90.0622C69.6381 89.656 69.4621 89.3644 69.369 89.1874C69.2791 88.9906 69.1524 88.707 68.9891 88.3364C68.8093 87.9429 68.6989 87.6213 68.6579 87.3716C68.5415 86.5832 68.5182 85.9718 68.5879 85.5373C68.829 84.0366 69.4486 82.8903 70.4468 82.0986C71.4449 81.3069 72.6747 81.0283 74.1359 81.263C75.0443 81.4089 75.7558 81.8979 76.2703 82.7301C76.788 83.5424 76.9724 84.4127 76.8233 85.3408C76.7504 85.795 76.5475 86.2384 76.2147 86.6711C75.9047 87.0872 75.6017 87.2715 75.3055 87.2239C74.7131 87.1288 74.4644 86.785 74.5596 86.1926C74.5945 85.9754 74.6803 85.7562 74.8171 85.5351C74.9571 85.2943 75.0334 85.1343 75.0461 85.0553C75.1222 84.5814 75.0506 84.1445 74.8312 83.7447C74.6118 83.3448 74.2849 83.11 73.8505 83.0403C72.9027 82.888 72.1244 83.0669 71.5159 83.5768C70.9105 84.067 70.5269 84.8157 70.3652 85.8228C70.2764 86.3757 70.3704 86.9883 70.6473 87.6608C70.9241 88.3332 71.2086 88.8954 71.5006 89.3474C71.8155 89.7829 72.3144 90.4605 72.9971 91.3805C73.6996 92.3035 74.2592 93.234 74.6757 94.172C75.3184 93.3231 76.2033 92.5436 77.3302 91.8333C78.4768 91.1262 79.5242 90.5956 80.4723 90.2414C81.4434 89.8707 82.3122 89.4431 83.0788 88.9585C83.8651 88.4771 84.2994 87.9797 84.3819 87.4663C84.4675 86.9331 84.1457 86.1623 83.4164 85.1539C82.71 84.1289 82.0112 83.5609 81.3201 83.4499C80.6487 83.3421 79.9605 83.4645 79.2557 83.8172C78.5706 84.1731 78.1194 84.3336 77.9022 84.2987C77.3098 84.2035 77.0612 83.8598 77.1563 83.2674C77.2134 82.9119 77.7322 82.5192 78.7128 82.0893C79.7132 81.6625 80.7366 81.5332 81.7832 81.7013C82.8298 81.8694 83.8539 82.682 84.8555 84.1393C85.88 85.58 86.3209 86.7446 86.1781 87.6333C86.0354 88.5219 85.5926 89.261 84.8497 89.8507C84.1068 90.4403 83.2368 90.9386 82.2396 91.3457C81.2654 91.7361 80.2765 92.1546 79.273 92.6011C78.2892 93.0508 77.41 93.6692 76.6354 94.4563C75.864 95.2237 75.391 96.1504 75.2166 97.2365C75.0897 98.0264 74.7301 98.3738 74.1377 98.2786C73.5453 98.1835 73.3125 97.741 73.4394 96.9511ZM101.12 86.0526L101.142 85.722C101.187 85.4456 101.301 85.2411 101.484 85.1085C101.687 84.979 101.887 84.9302 102.085 84.9619C102.578 85.0412 102.857 85.3897 102.92 86.0075C103.04 87.5258 103.001 88.9071 102.801 90.1511C102.601 91.3952 102.227 92.7126 101.68 94.1034C101.136 95.4744 100.474 96.7557 99.6953 97.9473C98.9197 99.1191 97.9831 100.032 96.8854 100.686C95.7878 101.341 94.6959 101.58 93.6098 101.406C92.5435 101.235 91.7258 100.84 91.1566 100.222C90.6071 99.6071 90.2719 98.7936 90.1508 97.7816C89.9275 96.1455 89.9918 94.2315 90.3438 92.0396C90.699 89.8279 91.2375 87.7369 91.9591 85.7664C92.0627 85.4994 92.2161 85.3012 92.4192 85.1718C92.6223 85.0424 92.8127 84.9919 92.9904 85.0205C93.5828 85.1156 93.8314 85.4594 93.7363 86.0518L93.557 86.6003C92.9549 88.2051 92.5397 89.7184 92.3113 91.1402C92.0862 92.5422 91.939 93.5213 91.87 94.0774C91.8041 94.6137 91.7634 95.2453 91.748 95.972C91.7555 96.6822 91.8116 97.2786 91.9164 97.7614C92.0243 98.2243 92.2307 98.6424 92.5354 99.0154C92.8432 99.3687 93.244 99.585 93.7377 99.6643C94.8238 99.8387 95.8932 99.423 96.946 98.4173C98.002 97.3917 98.8788 96.0944 99.5765 94.5251C100.294 92.9591 100.76 91.5047 100.976 90.1619C101.195 88.7993 101.243 87.4296 101.12 86.0526Z" fill="white"/>
<path d="M51.2319 78.1921L51.1463 77.1958L51.108 77.1991L51.0701 77.2053L51.2319 78.1921ZM51.9169 78.0894L52.0787 79.0763L52.0941 79.0737L52.1094 79.0707L51.9169 78.0894ZM52.6362 77.9619L52.7218 78.9582L52.7218 78.9582L52.6362 77.9619ZM53.2572 77.8793L53.1307 76.8873L53.1224 76.8884L53.114 76.8896L53.2572 77.8793ZM53.9374 77.8062L53.9755 78.8055L54.0377 78.8031L54.0991 78.7931L53.9374 77.8062ZM54.5536 77.7533L54.6054 78.7519L54.6301 78.7507L54.6547 78.7482L54.5536 77.7533ZM55.2586 77.7146L55.2237 78.714L55.2841 78.7161L55.3442 78.7109L55.2586 77.7146ZM55.9293 77.7008L55.9119 78.7006L55.9119 78.7006L55.9293 77.7008ZM56.6841 77.7309L56.7526 76.7332L56.7526 76.7332L56.6841 77.7309ZM62.4972 79.9407L61.8517 80.7044L61.8532 80.7057L62.4972 79.9407ZM62.9168 81.6792L62.3308 80.8689L62.2997 80.8914L62.2704 80.9162L62.9168 81.6792ZM61.5791 81.4947L62.2231 80.7297L62.2214 80.7283L61.5791 81.4947ZM55.0573 79.5357L54.9931 78.5378L54.9881 78.5381L55.0573 79.5357ZM51.6468 79.9603L51.7324 80.9566L51.7684 80.9535L51.8042 80.9478L51.6468 79.9603ZM54.8773 93.3317L53.8821 93.2332L53.7922 94.1409L54.6879 94.3137L54.8773 93.3317ZM55.8204 93.5136L55.631 94.4955L55.6464 94.4985L55.6618 94.5009L55.8204 93.5136ZM61.0905 92.2939L61.5407 93.1868L61.5484 93.1829L61.556 93.1789L61.0905 92.2939ZM61.6381 93.9922L62.0994 94.8795L62.1036 94.8772L61.6381 93.9922ZM50.386 91.9723L49.432 92.2721L49.4376 92.2899L49.4438 92.3075L50.386 91.9723ZM51.9341 91.036L51.0423 91.4885L51.0659 91.5349L51.0941 91.5786L51.9341 91.036ZM52.1341 91.4935L51.1467 91.3349L51.1093 91.568L51.18 91.7932L52.1341 91.4935ZM53.1275 92.6861L52.5229 93.4827L53.985 94.5923L54.1246 92.7621L53.1275 92.6861ZM54.975 92.3448L55.9701 92.4433L55.9711 92.4333L55.9719 92.4233L54.975 92.3448ZM51.3176 79.1884C51.4475 79.1773 51.7219 79.1347 52.0787 79.0763L51.7551 77.1026C51.5699 77.133 51.4242 77.156 51.3165 77.1722C51.2626 77.1803 51.2206 77.1863 51.1891 77.1904C51.1547 77.195 51.1433 77.196 51.1463 77.1958L51.3176 79.1884ZM52.1094 79.0707C52.3055 79.0323 52.4581 79.0034 52.5693 78.9837C52.6961 78.9612 52.7328 78.9573 52.7218 78.9582L52.5506 76.9656C52.4007 76.9784 52.0948 77.0355 51.7244 77.1081L52.1094 79.0707ZM52.7218 78.9582C52.8395 78.9481 53.0795 78.9154 53.4003 78.869L53.114 76.8896C52.7712 76.9392 52.5973 76.9615 52.5506 76.9656L52.7218 78.9582ZM53.3836 78.8713C53.556 78.8493 53.6934 78.8329 53.7977 78.8217C53.8498 78.8161 53.8912 78.8121 53.9231 78.8093C53.939 78.808 53.9514 78.807 53.9608 78.8064C53.9654 78.8061 53.969 78.8059 53.9716 78.8057C53.9728 78.8056 53.9738 78.8056 53.9745 78.8056C53.9752 78.8055 53.9755 78.8055 53.9755 78.8055L53.8992 76.807C53.7441 76.8129 53.4701 76.8441 53.1307 76.8873L53.3836 78.8713ZM54.0991 78.7931C54.1648 78.7823 54.3221 78.7666 54.6054 78.7519L54.5017 76.7546C54.213 76.7696 53.9596 76.7893 53.7756 76.8194L54.0991 78.7931ZM54.6547 78.7482C54.9517 78.718 55.1322 78.7108 55.2237 78.714L55.2935 76.7152C55.0627 76.7072 54.7732 76.7258 54.4524 76.7584L54.6547 78.7482ZM55.3442 78.7109C55.4586 78.7011 55.643 78.696 55.9119 78.7006L55.9466 76.7009C55.65 76.6958 55.3872 76.6999 55.173 76.7183L55.3442 78.7109ZM55.9119 78.7006C56.1821 78.7053 56.4161 78.7148 56.6155 78.7285L56.7526 76.7332C56.5112 76.7166 56.2421 76.7061 55.9466 76.7009L55.9119 78.7006ZM56.6155 78.7285C57.0154 78.756 57.5293 78.8187 58.1641 78.9206L58.4813 76.9459C57.8128 76.8386 57.2343 76.7663 56.7526 76.7332L56.6155 78.7285ZM58.1641 78.9206C59.442 79.1259 60.6693 79.7051 61.8517 80.7044L63.1427 79.1769C61.7211 77.9754 60.1654 77.2164 58.4813 76.9459L58.1641 78.9206ZM61.8532 80.7057C62.0835 80.8995 62.1972 81.0333 62.2443 81.1055C62.295 81.183 62.2104 81.0959 62.2415 80.9023L64.2162 81.2194C64.2948 80.7296 64.1121 80.3077 63.9188 80.0118C63.7221 79.7106 63.4462 79.4324 63.1412 79.1756L61.8532 80.7057ZM62.2415 80.9023C62.2294 80.9775 62.2165 80.9987 62.2224 80.9871C62.2259 80.98 62.2354 80.963 62.2536 80.9408C62.2722 80.9182 62.2977 80.8928 62.3308 80.8689L63.5028 82.4895C63.9669 82.1538 64.1479 81.6447 64.2162 81.2194L62.2415 80.9023ZM62.2704 80.9162C62.3637 80.8371 62.4521 80.8141 62.4857 80.8086C62.5127 80.8042 62.4971 80.8117 62.4201 80.7993L62.1029 82.774C62.5104 82.8394 63.0922 82.8413 63.5633 82.4422L62.2704 80.9162ZM62.4201 80.7993C62.2865 80.7778 62.2374 80.7417 62.2231 80.7297L60.9352 82.2598C61.2778 82.5482 61.6835 82.7066 62.1029 82.774L62.4201 80.7993ZM62.2214 80.7283C60.9359 79.6511 59.6129 78.9507 58.2551 78.7327L57.9379 80.7074C58.8312 80.8508 59.83 81.3337 60.9369 82.2612L62.2214 80.7283ZM58.2551 78.7327C57.0742 78.543 55.9845 78.474 54.9931 78.5378L55.1215 80.5337C55.9312 80.4816 56.8677 80.5355 57.9379 80.7074L58.2551 78.7327ZM54.9881 78.5381C54.0657 78.6021 52.8965 78.7485 51.4894 78.9727L51.8042 80.9478C53.1828 80.7281 54.2872 80.5915 55.1265 80.5333L54.9881 78.5381ZM51.5612 78.9639C51.412 78.9768 51.2972 78.9827 51.2123 78.9838C51.1205 78.985 51.0925 78.98 51.1051 78.982L50.7879 80.9567C51.0595 81.0003 51.4022 80.985 51.7324 80.9566L51.5612 78.9639ZM51.1051 78.982C51.0363 78.9709 51.0178 78.9588 51.0293 78.9648C51.0454 78.9732 51.0869 79.0001 51.126 79.0541C51.1651 79.1082 51.1776 79.156 51.1805 79.1739C51.1826 79.1868 51.1769 79.1654 51.188 79.0966L49.2133 78.7794C49.1412 79.2278 49.1709 79.7636 49.5054 80.2262C49.84 80.6888 50.3395 80.8847 50.7879 80.9567L51.1051 78.982ZM51.188 79.0966C51.1834 79.1247 51.1709 79.1642 51.1458 79.2039C51.1213 79.2426 51.0974 79.2617 51.092 79.2656C51.0887 79.268 51.1057 79.2551 51.1573 79.2364C51.2088 79.2177 51.2855 79.1967 51.3937 79.1789L51.0701 77.2053C50.3101 77.3299 49.382 77.7286 49.2133 78.7794L51.188 79.0966ZM54.6879 94.3137L55.631 94.4955L56.0097 92.5317L55.0666 92.3498L54.6879 94.3137ZM55.6618 94.5009C57.4012 94.7803 59.3833 94.2746 61.5407 93.1868L60.6402 91.401C58.6539 92.4025 57.1225 92.7099 55.9789 92.5263L55.6618 94.5009ZM61.556 93.1789C61.5424 93.1861 61.5299 93.1909 61.52 93.1939C61.5152 93.1953 61.5114 93.1963 61.5087 93.1968C61.506 93.1974 61.5046 93.1975 61.5046 93.1975C61.5052 93.1975 61.5289 93.1948 61.5825 93.2034L61.8996 91.2287C61.4935 91.1635 61.0439 91.1885 60.6249 91.4089L61.556 93.1789ZM61.5825 93.2034C61.6512 93.2145 61.6698 93.2266 61.6582 93.2206C61.6421 93.2122 61.6006 93.1853 61.5615 93.1313C61.5224 93.0772 61.5099 93.0294 61.507 93.0115C61.5049 92.9986 61.5106 93.0201 61.4996 93.0888L63.4743 93.406C63.5463 92.9576 63.5167 92.4218 63.1821 91.9592C62.8475 91.4966 62.348 91.3007 61.8996 91.2287L61.5825 93.2034ZM61.4996 93.0888C61.5198 92.9629 61.5676 92.8827 61.5884 92.8522C61.6088 92.8224 61.6163 92.8209 61.589 92.8448C61.531 92.8958 61.4043 92.9853 61.1725 93.1072L62.1036 94.8772C62.4029 94.7198 62.6832 94.5455 62.9081 94.3482C63.1112 94.1699 63.4015 93.8588 63.4743 93.406L61.4996 93.0888ZM61.1768 93.105C59.0504 94.2106 57.3091 94.563 55.9008 94.3368L55.5837 96.3115C57.5719 96.6308 59.7611 96.0953 62.0994 94.8795L61.1768 93.105ZM55.9008 94.3368C54.2698 94.0748 53.2104 93.703 52.6062 93.2944L51.4858 94.9512C52.453 95.6052 53.8578 96.0343 55.5837 96.3115L55.9008 94.3368ZM52.6062 93.2944C51.999 92.8838 51.5784 92.3407 51.3282 91.6372L49.4438 92.3075C49.8355 93.4086 50.5216 94.2991 51.4858 94.9512L52.6062 93.2944ZM51.34 91.6726C51.314 91.5897 51.3161 91.5416 51.3204 91.5147L49.3457 91.1976C49.2866 91.5656 49.324 91.9283 49.432 92.2721L51.34 91.6726ZM51.3204 91.5147C51.3314 91.4459 51.3436 91.4274 51.3376 91.439C51.3292 91.455 51.3023 91.4966 51.2483 91.5357C51.1942 91.5747 51.1464 91.5872 51.1285 91.5902C51.1156 91.5923 51.137 91.5865 51.2058 91.5976L51.523 89.6229C51.0746 89.5509 50.5388 89.5805 50.0762 89.9151C49.6136 90.2496 49.4177 90.7492 49.3457 91.1976L51.3204 91.5147ZM51.2058 91.5976C51.1903 91.5951 51.1474 91.5836 51.1007 91.5486C51.0554 91.5148 51.0401 91.4841 51.0423 91.4885L52.8258 90.5835C52.5659 90.0711 52.1124 89.7176 51.523 89.6229L51.2058 91.5976ZM51.0941 91.5786C51.122 91.6217 51.1424 91.6558 51.1569 91.6815C51.164 91.6942 51.1691 91.7039 51.1726 91.7109C51.1762 91.7178 51.1775 91.7209 51.1773 91.7204C51.1771 91.72 51.1745 91.7141 51.1707 91.7032C51.167 91.6926 51.1609 91.6736 51.1548 91.6475C51.1488 91.6219 51.1414 91.583 51.1378 91.5337C51.1342 91.4847 51.1336 91.4162 51.1467 91.3349L53.1214 91.6521C53.1768 91.3072 53.053 91.018 53.0099 90.9193C52.9459 90.7731 52.8608 90.6276 52.774 90.4933L51.0941 91.5786ZM51.18 91.7932C51.3926 92.4699 51.9185 93.0239 52.5229 93.4827L53.7321 91.8895C53.2532 91.5261 53.1168 91.2851 53.0881 91.1938L51.18 91.7932ZM54.1246 92.7621C54.2871 90.6311 54.5547 88.4032 54.9282 86.078L52.9535 85.7609C52.5721 88.1355 52.2975 90.4187 52.1304 92.6101L54.1246 92.7621ZM54.9282 86.078L55.4991 82.5236L53.5244 82.2064L52.9535 85.7609L54.9282 86.078ZM55.4991 82.5236C55.5101 82.4548 55.5222 82.4363 55.5162 82.4478C55.5078 82.4639 55.481 82.5054 55.4269 82.5445C55.3729 82.5836 55.325 82.5961 55.3071 82.599C55.2943 82.6012 55.3157 82.5954 55.3845 82.6065L55.7016 80.6318C55.2532 80.5598 54.7175 80.5894 54.2549 80.9239C53.7923 81.2585 53.5964 81.758 53.5244 82.2064L55.4991 82.5236ZM55.3845 82.6065C55.4532 82.6175 55.4718 82.6297 55.4602 82.6236C55.4441 82.6152 55.4026 82.5884 55.3635 82.5343C55.3244 82.4803 55.3119 82.4324 55.309 82.4146C55.3069 82.4017 55.3126 82.4231 55.3016 82.4919L57.2763 82.809C57.3483 82.3606 57.3187 81.8249 56.9841 81.3623C56.6496 80.8997 56.15 80.7038 55.7016 80.6318L55.3845 82.6065ZM55.3016 82.4919L54.7307 86.0463L56.7054 86.3635L57.2763 82.809L55.3016 82.4919ZM54.7307 86.0463C54.3874 88.1838 54.1364 90.2571 53.9781 92.2662L55.9719 92.4233C56.1257 90.4717 56.37 88.4519 56.7054 86.3635L54.7307 86.0463ZM53.9799 92.2462L53.8821 93.2332L55.8724 93.4303L55.9701 92.4433L53.9799 92.2462ZM71.6871 92.5374L70.8767 93.1234L70.8842 93.1335L71.6871 92.5374ZM71.0856 91.7419L70.2753 92.3279L70.2825 92.3378L70.2899 92.3475L71.0856 91.7419ZM70.4344 90.8777L69.5744 91.388L69.6208 91.4662L69.6805 91.5347L70.4344 90.8777ZM69.897 90.0622L69.0537 90.5996L69.0618 90.6123L69.0703 90.6248L69.897 90.0622ZM69.369 89.1874L68.4595 89.6031L68.4711 89.6284L68.484 89.6529L69.369 89.1874ZM68.9891 88.3364L69.9043 87.9331L69.8986 87.9206L68.9891 88.3364ZM68.6579 87.3716L67.6687 87.5177L67.6698 87.5256L67.6711 87.5334L68.6579 87.3716ZM70.4468 82.0986L71.0682 82.8821L70.4468 82.0986ZM76.2703 82.7301L75.4197 83.256L75.427 83.2675L76.2703 82.7301ZM76.2146 86.6711L75.422 86.0614L75.4173 86.0676L75.4126 86.0738L76.2146 86.6711ZM74.8171 85.5351L75.6675 86.0612L75.6748 86.0495L75.6817 86.0375L74.8171 85.5351ZM74.8312 83.7447L75.7079 83.2637L75.7079 83.2637L74.8312 83.7447ZM71.5159 83.5768L72.1452 84.354L72.1517 84.3487L72.1581 84.3433L71.5159 83.5768ZM70.6473 87.6608L71.5719 87.28L71.5719 87.28L70.6473 87.6608ZM71.5006 89.3474L70.6606 89.89L70.6749 89.9121L70.6903 89.9334L71.5006 89.3474ZM72.9971 91.3805L72.1941 91.9765L72.2014 91.9861L72.9971 91.3805ZM74.6757 94.172L73.7618 94.5778L74.4497 96.1269L75.4729 94.7756L74.6757 94.172ZM77.3302 91.8333L76.8052 90.9821L76.7969 90.9873L77.3302 91.8333ZM80.4723 90.2414L80.8222 91.1783L80.829 91.1757L80.4723 90.2414ZM83.0788 88.9585L82.5566 88.1057L82.5505 88.1094L82.5444 88.1133L83.0788 88.9585ZM83.4164 85.1539L82.593 85.7214L82.5994 85.7307L82.6061 85.74L83.4164 85.1539ZM79.2557 83.8172L78.8082 82.9229L78.8014 82.9263L78.7947 82.9298L79.2557 83.8172ZM78.7128 82.0893L78.3204 81.1694L78.3113 81.1734L78.7128 82.0893ZM84.8555 84.1393L84.0314 84.7057L84.0359 84.7123L84.0405 84.7188L84.8555 84.1393ZM82.2396 91.3457L82.6116 92.2739L82.6175 92.2715L82.2396 91.3457ZM79.273 92.6011L78.8664 91.6874L78.8572 91.6916L79.273 92.6011ZM76.6354 94.4563L77.3407 95.1653L77.3482 95.1578L76.6354 94.4563ZM74.4267 97.1097C74.6767 95.5534 73.8613 93.7882 72.49 91.9412L70.8842 93.1335C72.2108 94.9203 72.5636 96.0976 72.452 96.7925L74.4267 97.1097ZM72.4974 91.9513C72.4385 91.8698 72.2275 91.5911 71.8814 91.1363L70.2899 92.3475C70.6463 92.8158 70.8363 93.0674 70.8768 93.1234L72.4974 91.9513ZM71.8959 91.1559C71.5725 90.7087 71.327 90.3798 71.1883 90.2207L69.6805 91.5347C69.7471 91.6111 69.9357 91.8584 70.2753 92.3279L71.8959 91.1559ZM71.2945 90.3675C71.196 90.2016 70.9986 89.9035 70.7237 89.4995L69.0703 90.6248C69.3525 91.0395 69.5134 91.2852 69.5744 91.388L71.2945 90.3675ZM70.7403 89.5247C70.4814 89.1186 70.3258 88.8582 70.254 88.7218L68.484 89.6529C68.5985 89.8706 68.7948 90.1934 69.0537 90.5996L70.7403 89.5247ZM70.2785 88.7716C70.1914 88.5812 70.067 88.3025 69.9042 87.9331L68.0741 88.7396C68.2379 89.1114 68.3667 89.4001 68.4595 89.6031L70.2785 88.7716ZM69.8986 87.9206C69.7335 87.5594 69.6647 87.3313 69.6448 87.2098L67.6711 87.5334C67.7331 87.9112 67.885 88.3263 68.0797 88.7521L69.8986 87.9206ZM69.6472 87.2255C69.5357 86.4703 69.5298 85.9788 69.5753 85.6959L67.6006 85.3787C67.5065 85.9647 67.5473 86.6961 67.6687 87.5177L69.6472 87.2255ZM69.5753 85.6959C69.7848 84.3914 70.3024 83.4895 71.0682 82.8821L69.8253 81.3151C68.5948 82.2911 67.8732 83.6817 67.6006 85.3787L69.5753 85.6959ZM71.0682 82.8821C71.8103 82.2934 72.7441 82.0523 73.9774 82.2504L74.2945 80.2757C72.6053 80.0044 71.0796 80.3203 69.8253 81.3151L71.0682 82.8821ZM73.9774 82.2504C74.579 82.347 75.0469 82.653 75.4198 83.256L77.1208 82.2041C76.4646 81.1428 75.5096 80.4708 74.2945 80.2757L73.9774 82.2504ZM75.427 83.2675C75.8167 83.879 75.9451 84.5024 75.836 85.1822L77.8107 85.4994C77.9996 84.3229 77.7594 83.2059 77.1136 82.1926L75.427 83.2675ZM75.836 85.1822C75.7939 85.444 75.6723 85.7359 75.422 86.0614L77.0073 87.2808C77.4226 86.7408 77.7068 86.1459 77.8107 85.4994L75.836 85.1822ZM75.4126 86.0738C75.36 86.1445 75.3166 86.1932 75.2838 86.2253C75.2507 86.2577 75.234 86.2678 75.2354 86.2669C75.2376 86.2656 75.2618 86.2514 75.3065 86.2412C75.3535 86.2305 75.4084 86.2276 75.4641 86.2366L75.1469 88.2113C76.0245 88.3522 76.6529 87.7568 77.0167 87.2684L75.4126 86.0738ZM75.4641 86.2366C75.3953 86.2255 75.3767 86.2134 75.3883 86.2194C75.4044 86.2278 75.4459 86.2547 75.485 86.3087C75.5241 86.3627 75.5366 86.4106 75.5395 86.4285C75.5416 86.4413 75.5359 86.4199 75.5469 86.3512L73.5722 86.034C73.5002 86.4824 73.5299 87.0182 73.8644 87.4808C74.199 87.9433 74.6985 88.1392 75.1469 88.2113L75.4641 86.2366ZM75.5469 86.3512C75.5574 86.2857 75.5878 86.1901 75.6675 86.0612L73.9667 85.009C73.7729 85.3223 73.6315 85.665 73.5722 86.034L75.5469 86.3512ZM75.6817 86.0375C75.7586 85.9053 75.8274 85.7793 75.8818 85.6653C75.9236 85.5776 76.0025 85.4063 76.0334 85.2139L74.0587 84.8968C74.0651 84.8572 74.0729 84.8278 74.0775 84.8118C74.0823 84.795 74.0862 84.7842 74.0876 84.7806C74.0899 84.7745 74.0877 84.7811 74.0768 84.8038C74.0549 84.8497 74.0156 84.924 73.9525 85.0327L75.6817 86.0375ZM76.0334 85.2139C76.1428 84.5328 76.0401 83.8692 75.7079 83.2637L73.9545 84.2257C74.061 84.4199 74.1016 84.63 74.0587 84.8968L76.0334 85.2139ZM75.7079 83.2637C75.3464 82.6048 74.7609 82.1737 74.0091 82.0529L73.6919 84.0276C73.8089 84.0464 73.8772 84.0849 73.9545 84.2257L75.7079 83.2637ZM74.0091 82.0529C72.8403 81.8652 71.7507 82.0754 70.8736 82.8103L72.1581 84.3433C72.4982 84.0584 72.965 83.9108 73.6919 84.0276L74.0091 82.0529ZM70.8866 82.7997C70.0367 83.4878 69.5663 84.4908 69.3778 85.6642L71.3525 85.9813C71.4876 85.1405 71.7843 84.6462 72.1452 84.354L70.8866 82.7997ZM69.3778 85.6642C69.2522 86.446 69.3961 87.2485 69.7226 88.0415L71.5719 87.28C71.3447 86.7282 71.3005 86.3053 71.3525 85.9813L69.3778 85.6642ZM69.7226 88.0415C70.0152 88.7521 70.3263 89.3725 70.6606 89.89L72.3406 88.8048C72.0909 88.4183 71.8331 87.9142 71.5719 87.28L69.7226 88.0415ZM70.6903 89.9334C71.0091 90.3742 71.511 91.0561 72.1941 91.9764L73.8001 90.7845C73.1177 89.865 72.622 89.1915 72.3109 88.7614L70.6903 89.9334ZM72.2014 91.9861C72.8629 92.8553 73.3805 93.7194 73.7618 94.5778L75.5896 93.7661C75.1378 92.7487 74.5364 91.7518 73.7929 90.7748L72.2014 91.9861ZM75.4729 94.7756C76.0273 94.0435 76.8138 93.3409 77.8634 92.6793L76.7969 90.9873C75.5927 91.7463 74.6096 92.6027 73.8785 93.5683L75.4729 94.7756ZM77.8551 92.6845C78.9633 92.0011 79.9513 91.5035 80.8222 91.1782L80.1225 89.3047C79.0971 89.6876 77.9903 90.2513 76.8053 90.9821L77.8551 92.6845ZM80.829 91.1757C81.8533 90.7847 82.783 90.3286 83.6131 89.8038L82.5444 88.1133C81.8415 88.5577 81.0335 88.9568 80.1157 89.3072L80.829 91.1757ZM83.6009 89.8114C84.4549 89.2885 85.215 88.5852 85.3692 87.6249L83.3945 87.3077C83.3839 87.3742 83.2752 87.6657 82.5566 88.1057L83.6009 89.8114ZM85.3692 87.6249C85.4535 87.1 85.3241 86.5737 85.1275 86.103C84.9263 85.6212 84.6167 85.1072 84.2267 84.5679L82.6061 85.74C82.9453 86.209 83.1613 86.5847 83.2819 86.8736C83.3414 87.0161 83.3719 87.1237 83.3857 87.2001C83.3995 87.2762 83.3945 87.3082 83.3945 87.3077L85.3692 87.6249ZM84.2398 84.5865C83.4899 83.4984 82.5859 82.6404 81.4786 82.4626L81.1615 84.4373C81.4365 84.4814 81.93 84.7594 82.593 85.7214L84.2398 84.5865ZM81.4786 82.4626C80.5689 82.3165 79.6695 82.4919 78.8082 82.9229L79.7032 84.7115C80.2515 84.4371 80.7285 84.3677 81.1615 84.4373L81.4786 82.4626ZM78.7947 82.9298C78.4715 83.0977 78.2329 83.2038 78.0683 83.2623C77.9865 83.2914 77.9408 83.3023 77.9243 83.3054C77.8991 83.3102 77.9567 83.2946 78.0608 83.3113L77.7436 85.286C78.1225 85.3469 78.4998 85.2316 78.7386 85.1467C79.0253 85.0447 79.3548 84.8926 79.7166 84.7046L78.7947 82.9298ZM78.0608 83.3113C77.992 83.3003 77.9735 83.2881 77.985 83.2942C78.0011 83.3026 78.0426 83.3294 78.0817 83.3835C78.1208 83.4375 78.1333 83.4854 78.1362 83.5033C78.1384 83.5161 78.1326 83.4947 78.1437 83.4259L76.169 83.1088C76.097 83.5572 76.1266 84.0929 76.4611 84.5555C76.7957 85.0181 77.2952 85.214 77.7436 85.286L78.0608 83.3113ZM78.1437 83.4259C78.1342 83.4851 78.1173 83.5303 78.1034 83.5599C78.0897 83.5887 78.0786 83.6032 78.0781 83.6038C78.0776 83.6044 78.0848 83.5951 78.1042 83.5766C78.1235 83.5583 78.1519 83.5338 78.1918 83.5036C78.3617 83.375 78.6562 83.206 79.1144 83.0051L78.3113 81.1734C77.7889 81.4025 77.3337 81.6448 76.9848 81.9089C76.6701 82.147 76.2608 82.5372 76.169 83.1088L78.1437 83.4259ZM79.1052 83.0091C79.9367 82.6543 80.7695 82.5513 81.6246 82.6886L81.9418 80.7139C80.7038 80.5151 79.4896 80.6707 78.3204 81.1695L79.1052 83.0091ZM81.6246 82.6886C82.2675 82.7918 83.0861 83.3305 84.0314 84.7057L85.6796 83.5729C84.6216 82.0336 83.3921 80.9469 81.9418 80.7139L81.6246 82.6886ZM84.0405 84.7188C85.041 86.1258 85.2666 87.0026 85.1908 87.4747L87.1655 87.7918C87.3751 86.4867 86.7189 85.0342 85.6704 83.5598L84.0405 84.7188ZM85.1908 87.4747C85.09 88.1025 84.7869 88.6238 84.228 89.0674L85.4714 90.6339C86.3984 89.8982 86.9809 88.9412 87.1655 87.7918L85.1908 87.4747ZM84.228 89.0674C83.5685 89.5909 82.7829 90.0438 81.8617 90.4198L82.6175 92.2715C83.6906 91.8335 84.6451 91.2897 85.4714 90.6339L84.228 89.0674ZM81.8676 90.4174C80.8812 90.8127 79.8809 91.2361 78.8665 91.6875L79.6795 93.5148C80.6721 93.0731 81.6495 92.6595 82.6116 92.2739L81.8676 90.4174ZM78.8572 91.6916C77.7603 92.1931 76.781 92.8828 75.9227 93.7549L77.3482 95.1578C78.0391 94.4556 78.8182 93.9085 79.6887 93.5106L78.8572 91.6916ZM75.9302 93.7474C75.0071 94.6655 74.4368 95.7856 74.2292 97.0779L76.2039 97.3951C76.3452 96.5152 76.7208 95.7819 77.3406 95.1653L75.9302 93.7474ZM74.2292 97.0779C74.2069 97.2169 74.1792 97.3039 74.1584 97.3526C74.1379 97.4004 74.1312 97.3951 74.157 97.3702C74.1878 97.3404 74.2337 97.3132 74.2823 97.3003C74.3247 97.2891 74.3357 97.2976 74.2963 97.2913L73.9791 99.266C74.5162 99.3522 75.0938 99.246 75.5464 98.8087C75.9505 98.4185 76.1253 97.885 76.2039 97.3951L74.2292 97.0779ZM74.2963 97.2913C74.2568 97.2849 74.27 97.2803 74.3067 97.3043C74.3488 97.3317 74.3839 97.3719 74.4038 97.4098C74.4205 97.4415 74.4124 97.4445 74.408 97.3927C74.4034 97.3399 74.4044 97.2486 74.4267 97.1097L72.452 96.7925C72.3733 97.2824 72.3723 97.8438 72.6338 98.3409C72.9268 98.8979 73.442 99.1797 73.9791 99.266L74.2963 97.2913ZM101.12 86.0526L100.122 85.9841L100.117 86.063L100.124 86.1417L101.12 86.0526ZM101.142 85.722L100.155 85.5635L100.148 85.6083L100.145 85.6535L101.142 85.722ZM101.484 85.1085L100.946 84.2652L100.922 84.2809L100.898 84.2982L101.484 85.1085ZM102.92 86.0075L103.916 85.9282L103.915 85.9172L103.914 85.9063L102.92 86.0075ZM101.68 94.1034L102.609 94.4724L102.611 94.4697L101.68 94.1034ZM99.6953 97.9473L100.529 98.4992L100.532 98.4944L99.6953 97.9473ZM96.8854 100.686L97.3974 101.545L97.3974 101.545L96.8854 100.686ZM91.1566 100.222L90.4109 100.888L90.4159 100.894L90.421 100.899L91.1566 100.222ZM90.1508 97.7816L91.1437 97.6629L91.1428 97.6546L91.1416 97.6464L90.1508 97.7816ZM91.9591 85.7664L91.0269 85.4044L91.0234 85.4134L91.02 85.4225L91.9591 85.7664ZM92.4192 85.1718L92.9566 86.0151L92.9566 86.0151L92.4192 85.1718ZM93.7363 86.0518L94.6868 86.3624L94.7112 86.2878L94.7236 86.2104L93.7363 86.0518ZM93.557 86.6003L94.4933 86.9516L94.5009 86.9314L94.5076 86.9109L93.557 86.6003ZM91.87 94.0774L90.8776 93.9542L90.8775 93.9555L91.87 94.0774ZM91.748 95.972L90.7482 95.9508L90.7479 95.9667L90.7481 95.9826L91.748 95.972ZM91.9164 97.7614L90.9391 97.9735L90.9408 97.981L90.9425 97.9884L91.9164 97.7614ZM92.5354 99.0154L91.7609 99.648L91.771 99.6603L91.7814 99.6724L92.5354 99.0154ZM96.946 98.4173L97.6368 99.1404L97.6427 99.1346L96.946 98.4173ZM99.5765 94.5251L98.6673 94.1086L98.6627 94.1189L99.5765 94.5251ZM102.117 86.1212L102.14 85.7906L100.145 85.6535L100.122 85.9841L102.117 86.1212ZM102.13 85.8806C102.137 85.8355 102.144 85.8304 102.135 85.8478C102.13 85.8566 102.122 85.869 102.11 85.8827C102.097 85.8965 102.084 85.9088 102.07 85.9187L100.898 84.2982C100.451 84.6214 100.231 85.091 100.155 85.5635L102.13 85.8806ZM102.021 85.9518C102.046 85.9363 102.046 85.9407 102.023 85.9463C102.012 85.949 101.997 85.9515 101.979 85.9523C101.961 85.9531 101.943 85.952 101.926 85.9492L102.243 83.9745C101.757 83.8964 101.312 84.0323 100.946 84.2652L102.021 85.9518ZM101.926 85.9492C101.95 85.9531 101.947 85.9561 101.93 85.9465C101.911 85.9359 101.893 85.9206 101.882 85.9067C101.863 85.8827 101.905 85.9188 101.925 86.1087L103.914 85.9063C103.871 85.4784 103.743 85.0313 103.445 84.6588C103.132 84.2662 102.704 84.0485 102.243 83.9745L101.926 85.9492ZM101.923 86.0868C102.038 87.5416 101.998 88.8414 101.814 89.9925L103.788 90.3097C104.003 88.9727 104.042 87.5101 103.916 85.9282L101.923 86.0868ZM101.814 89.9925C101.627 91.1538 101.275 92.4013 100.749 93.7371L102.611 94.4697C103.18 93.0239 103.575 91.6365 103.788 90.3097L101.814 89.9925ZM100.751 93.7344C100.23 95.0454 99.5991 96.2667 98.8583 97.4002L100.532 98.4944C101.349 97.2447 102.041 95.9035 102.609 94.4724L100.751 93.7344ZM98.8615 97.3953C98.1603 98.4546 97.3296 99.2574 96.3734 99.8274L97.3974 101.545C98.6365 100.807 99.6791 99.7836 100.529 98.4992L98.8615 97.3953ZM96.3734 99.8274C95.443 100.382 94.5862 100.55 93.7684 100.419L93.4513 102.393C94.8056 102.611 96.1325 102.299 97.3974 101.545L96.3734 99.8274ZM93.7684 100.419C92.8598 100.273 92.2705 99.9554 91.8922 99.5446L90.421 100.899C91.181 101.725 92.2273 102.197 93.4513 102.393L93.7684 100.419ZM91.9023 99.5557C91.5187 99.1265 91.2463 98.5199 91.1437 97.6629L89.1579 97.9004C89.2975 99.0674 89.6955 100.088 90.4109 100.888L91.9023 99.5557ZM91.1416 97.6464C90.9353 96.1348 90.9897 94.324 91.3312 92.1982L89.3565 91.881C88.9938 94.139 88.9196 96.1562 89.16 97.9169L91.1416 97.6464ZM91.3312 92.1982C91.6769 90.0455 92.1999 88.0168 92.8981 86.1102L91.02 85.4225C90.275 87.4569 89.7212 89.6104 89.3565 91.881L91.3312 92.1982ZM92.8913 86.1283C92.9131 86.072 92.9326 86.0425 92.9427 86.0295C92.9517 86.0178 92.9561 86.0154 92.9566 86.0151L91.8817 84.3285C91.4672 84.5927 91.1925 84.9777 91.0269 85.4044L92.8913 86.1283ZM92.9566 86.0151C92.9899 85.9939 92.994 85.9973 92.9704 86.0035C92.9432 86.0107 92.8937 86.0177 92.8318 86.0078L93.149 84.0331C92.6577 83.9542 92.2206 84.1125 91.8817 84.3285L92.9566 86.0151ZM92.8318 86.0078C92.9006 86.0189 92.9191 86.031 92.9076 86.025C92.8915 86.0166 92.85 85.9897 92.8109 85.9357C92.7718 85.8816 92.7593 85.8338 92.7564 85.8159C92.7543 85.803 92.76 85.8244 92.7489 85.8932L94.7236 86.2104C94.7956 85.762 94.766 85.2262 94.4315 84.7636C94.0969 84.301 93.5974 84.1051 93.149 84.0331L92.8318 86.0078ZM92.7858 85.7412L92.6065 86.2897L94.5076 86.9109L94.6868 86.3624L92.7858 85.7412ZM92.6208 86.249C91.9995 87.9048 91.5647 89.4831 91.324 90.9816L93.2987 91.2988C93.5147 89.9538 93.9103 88.5054 94.4933 86.9516L92.6208 86.249ZM91.324 90.9816C91.0989 92.383 90.9491 93.3782 90.8776 93.9542L92.8624 94.2006C92.929 93.6644 93.0734 92.7015 93.2987 91.2988L91.324 90.9816ZM90.8775 93.9555C90.8063 94.5344 90.7642 95.201 90.7482 95.9508L92.7478 95.9933C92.7627 95.2895 92.8019 94.6931 92.8625 94.1993L90.8775 93.9555ZM90.7481 95.9826C90.756 96.7338 90.8152 97.4027 90.9391 97.9735L92.8936 97.5493C92.808 97.1546 92.755 96.6306 92.7479 95.9615L90.7481 95.9826ZM90.9425 97.9884C91.0856 98.6021 91.361 99.1584 91.7609 99.648L93.3098 98.3828C93.1004 98.1263 92.9631 97.8466 92.8903 97.5343L90.9425 97.9884ZM91.7814 99.6724C92.2538 100.214 92.8711 100.538 93.5791 100.652L93.8962 98.6769C93.6169 98.632 93.4327 98.523 93.2893 98.3584L91.7814 99.6724ZM93.5791 100.652C95.0684 100.891 96.4372 100.286 97.6368 99.1403L96.2552 97.6942C95.3492 98.5598 94.5791 98.7866 93.8962 98.6769L93.5791 100.652ZM97.6427 99.1346C98.8042 98.0067 99.7493 96.5981 100.49 94.9314L98.6627 94.1189C98.0084 95.5906 97.1999 96.7768 96.2493 97.6999L97.6427 99.1346ZM100.486 94.9416C101.231 93.3142 101.73 91.7723 101.963 90.3205L99.9888 90.0033C99.7906 91.237 99.3567 92.6039 98.6674 94.1087L100.486 94.9416ZM101.963 90.3205C102.195 88.8759 102.246 87.4229 102.116 85.9635L100.124 86.1417C100.239 87.4363 100.194 88.7228 99.9888 90.0033L101.963 90.3205Z" fill="white"/>
</svg>
