<svg width="120" height="38" viewBox="0 0 120 38" fill="none" xmlns="http://www.w3.org/2000/svg">
<path opacity="0.8" d="M25.6942 20.7241C25.6942 20.7241 24.3813 20.7241 21.7555 20.7241L20.2839 26.5131C20.1973 26.8377 19.9737 27 19.613 27H17.7302C17.5499 27 17.4201 26.9351 17.3407 26.8052C17.2613 26.6682 17.2433 26.5059 17.2866 26.3183L20.5328 13.5933H19.7537C19.5301 13.5933 19.3858 13.532 19.3209 13.4094C19.2559 13.2867 19.2595 13.0812 19.3317 12.7926L19.6888 11.3968C19.732 11.202 19.7789 11.0794 19.8294 11.0289C19.8799 10.9784 19.9809 10.9531 20.1324 10.9531C20.1324 10.9531 20.6698 10.9531 21.7447 10.9531H23.6274H28.3452C28.7925 10.9531 28.962 11.1912 28.8538 11.6673L28.5724 12.9766C28.5436 13.1425 28.4498 13.2867 28.2911 13.4094C28.1396 13.532 27.9809 13.5933 27.815 13.5933H23.5733L22.4264 18.0947H26.2244C26.6356 18.0947 26.7907 18.3291 26.6897 18.798L26.3975 20.1073C26.3687 20.2732 26.2821 20.4175 26.1378 20.5401C26.0008 20.6628 25.8529 20.7241 25.6942 20.7241ZM30.8419 18.6682C30.5389 19.8368 30.3369 20.8611 30.2359 21.7412C30.1422 22.6213 30.153 23.2994 30.2684 23.7755C30.391 24.2444 30.611 24.4788 30.9284 24.4788C31.1737 24.4788 31.3973 24.3995 31.5993 24.2408C31.8013 24.0748 32.0285 23.7827 32.281 23.3643C32.7427 22.5564 33.2008 21.2507 33.6552 19.4472C33.8716 18.5672 34.0376 17.7845 34.153 17.0992C34.2684 16.4139 34.3369 15.8151 34.3586 15.303C34.3802 14.7908 34.3333 14.4013 34.2179 14.1344C34.1097 13.8602 33.9366 13.7232 33.6985 13.7232C33.3955 13.7232 33.1394 13.7881 32.9303 13.9179C32.7283 14.0406 32.5119 14.2931 32.281 14.6754C31.8121 15.44 31.3324 16.771 30.8419 18.6682ZM27.6931 17.954C28.0466 16.5834 28.5082 15.3679 29.0781 14.3075C29.6552 13.2399 30.3441 12.385 31.1449 11.743C31.9528 11.101 32.804 10.78 33.6985 10.78C34.0448 10.78 34.4235 10.8305 34.8347 10.9315C35.2459 11.0252 35.5993 11.1587 35.8951 11.3318C36.4289 11.6492 36.8076 12.1289 37.0312 12.771C37.2621 13.4058 37.3775 14.2426 37.3775 15.2813C37.3775 16.6159 37.1286 18.2678 36.6309 20.2372C36.3856 21.1966 36.0899 22.0766 35.7436 22.8774C35.4046 23.6781 35.0006 24.4031 34.5317 25.0523C34.07 25.6943 33.5326 26.1993 32.9194 26.5672C32.3063 26.9279 31.6498 27.1082 30.9501 27.1082C30.0917 27.1082 29.3991 26.9603 28.8725 26.6646C28.2305 26.3039 27.7725 25.7484 27.4983 24.9982C27.2314 24.248 27.098 23.2885 27.098 22.1199C27.098 20.8792 27.2963 19.4905 27.6931 17.954ZM41.6848 18.3003L42.5179 18.1812C42.9219 18.1307 43.2682 18.0189 43.5567 17.8458C43.8453 17.6727 44.0977 17.3841 44.3142 16.9802C44.4296 16.6267 44.545 16.147 44.6604 15.541C44.783 14.9351 44.8444 14.4554 44.8444 14.1019C44.8444 13.9648 44.7722 13.8458 44.628 13.7448C44.4909 13.6438 44.343 13.5933 44.1843 13.5933C44.1194 13.5933 44.0256 13.5933 43.903 13.5933C43.7876 13.5861 43.6289 13.5825 43.4269 13.5825C43.2249 13.5753 43.0482 13.5717 42.8967 13.5717L41.6848 18.3003ZM39.8561 13.55H39.1095C38.9291 13.55 38.7957 13.4887 38.7091 13.3661C38.6225 13.2435 38.6009 13.0992 38.6442 12.9333L39.0445 11.3968C39.0734 11.2669 39.1419 11.1623 39.2501 11.083C39.3583 10.9964 39.4593 10.9531 39.5531 10.9531H41.0572H42.9399H44.2709C45.2736 10.9531 46.0851 11.1912 46.7055 11.6673C47.3259 12.1434 47.6361 12.8647 47.6361 13.8314C47.6361 14.7619 47.4485 15.7574 47.0734 16.8179C46.6983 17.8711 46.2943 18.5924 45.8615 18.982C45.3637 19.4797 44.8876 19.8404 44.4332 20.064L45.3313 26.0694C45.4179 26.6898 45.2195 27 44.7362 27H42.9832C42.7812 27 42.6081 26.899 42.4638 26.697C42.3268 26.495 42.2366 26.2281 42.1933 25.8963L41.5225 20.5401H41.1221L39.5964 26.5131C39.5098 26.8377 39.2862 27 38.9255 27H37.0427C36.8624 27 36.7326 26.9351 36.6532 26.8052C36.5738 26.6682 36.5558 26.5059 36.5991 26.3183L39.8561 13.55ZM57.9417 13.6907C57.9417 13.6907 57.0472 17.1966 55.2582 24.2083C55.3881 24.2227 55.6478 24.2299 56.0373 24.2299C57.0545 24.2299 57.9706 22.6357 58.7857 19.4472C59.1464 18.0334 59.3087 16.7674 59.2727 15.6492C59.2366 14.5311 59.013 13.9107 58.6018 13.7881C58.4864 13.7448 58.2664 13.7124 57.9417 13.6907ZM54.8687 13.8097C54.6306 13.8386 54.407 13.8783 54.1978 13.9288C53.9886 13.972 53.8407 13.9937 53.7542 13.9937C53.5738 13.9937 53.444 13.9324 53.3646 13.8097C53.2925 13.6871 53.2673 13.5392 53.2889 13.3661L53.5053 11.624C53.5414 11.4076 53.7109 11.2597 54.0139 11.1803C54.0211 11.1803 54.1113 11.1623 54.2844 11.1262C54.4575 11.0902 54.5946 11.0649 54.6956 11.0505C54.8038 11.0289 54.9769 11 55.215 10.9639C55.4602 10.9279 55.6947 10.899 55.9183 10.8774C56.1419 10.8557 56.4196 10.8377 56.7515 10.8233C57.0905 10.8088 57.4368 10.8016 57.7903 10.8016C58.4828 10.8016 59.0959 10.8846 59.6297 11.0505C60.1708 11.2164 60.618 11.4436 60.9715 11.7322C61.325 12.0207 61.6135 12.3706 61.8371 12.7818C62.068 13.1858 62.2303 13.615 62.3241 14.0694C62.4178 14.5167 62.4647 15.0072 62.4647 15.541C62.4647 16.8611 62.2267 18.4265 61.7506 20.2372C61.5486 21.009 61.3141 21.7268 61.0472 22.3904C60.7875 23.0469 60.4701 23.6709 60.095 24.2624C59.7199 24.8467 59.3087 25.3445 58.8615 25.7556C58.4215 26.1668 57.9129 26.4914 57.3358 26.7295C56.7659 26.9675 56.1563 27.0866 55.5071 27.0866C53.949 27.0866 52.8994 27.0361 52.3583 26.9351C52.077 26.8774 51.8894 26.7656 51.7957 26.5996C51.7019 26.4337 51.6983 26.1849 51.7848 25.853L54.8687 13.8097ZM65.6411 22.6826L63.7259 26.578C63.5744 26.8954 63.293 27.0433 62.8819 27.0216L61.1614 26.9567C60.8945 26.9495 60.7177 26.8629 60.6312 26.697C60.5446 26.5311 60.559 26.3436 60.6745 26.1344L68.0757 11.8837C68.2272 11.5951 68.4112 11.3751 68.6276 11.2236C68.844 11.0721 69.064 10.9964 69.2876 10.9964L71.8413 10.9748C72.1154 10.9748 72.3318 11.0649 72.4905 11.2453C72.6564 11.4256 72.7286 11.6925 72.7069 12.046L71.8846 26.5131C71.8629 26.8377 71.6429 27 71.2245 27H69.4283C69.0676 27 68.8981 26.8016 68.9197 26.4049L69.1578 22.6826H65.6411ZM66.9287 20.0424H69.3417L69.7204 14.3508L66.9287 20.0424ZM79.4808 13.6907C79.4808 13.6907 78.5863 17.1966 76.7973 24.2083C76.9272 24.2227 77.1868 24.2299 77.5764 24.2299C78.5935 24.2299 79.5097 22.6357 80.3248 19.4472C80.6855 18.0334 80.8478 16.7674 80.8117 15.6492C80.7757 14.5311 80.552 13.9107 80.1409 13.7881C80.0254 13.7448 79.8054 13.7124 79.4808 13.6907ZM76.4078 13.8097C76.1697 13.8386 75.9461 13.8783 75.7369 13.9288C75.5277 13.972 75.3798 13.9937 75.2932 13.9937C75.1129 13.9937 74.9831 13.9324 74.9037 13.8097C74.8316 13.6871 74.8063 13.5392 74.828 13.3661L75.0444 11.624C75.0804 11.4076 75.25 11.2597 75.5529 11.1803C75.5602 11.1803 75.6503 11.1623 75.8235 11.1262C75.9966 11.0902 76.1336 11.0649 76.2346 11.0505C76.3428 11.0289 76.516 11 76.754 10.9639C76.9993 10.9279 77.2337 10.899 77.4574 10.8774C77.681 10.8557 77.9587 10.8377 78.2905 10.8233C78.6296 10.8088 78.9758 10.8016 79.3293 10.8016C80.0218 10.8016 80.635 10.8846 81.1688 11.0505C81.7098 11.2164 82.1571 11.4436 82.5106 11.7322C82.864 12.0207 83.1526 12.3706 83.3762 12.7818C83.607 13.1858 83.7694 13.615 83.8631 14.0694C83.9569 14.5167 84.0038 15.0072 84.0038 15.541C84.0038 16.8611 83.7657 18.4265 83.2896 20.2372C83.0877 21.009 82.8532 21.7268 82.5863 22.3904C82.3266 23.0469 82.0092 23.6709 81.6341 24.2624C81.259 24.8467 80.8478 25.3445 80.4006 25.7556C79.9605 26.1668 79.4519 26.4914 78.8749 26.7295C78.305 26.9675 77.6954 27.0866 77.0462 27.0866C75.488 27.0866 74.4384 27.0361 73.8974 26.9351C73.6161 26.8774 73.4285 26.7656 73.3347 26.5996C73.2409 26.4337 73.2373 26.1849 73.3239 25.853L76.4078 13.8097ZM89.723 13.6907C89.723 13.6907 88.8285 17.1966 87.0395 24.2083C87.1693 24.2227 87.429 24.2299 87.8186 24.2299C88.8357 24.2299 89.7518 22.6357 90.567 19.4472C90.9277 18.0334 91.09 16.7674 91.0539 15.6492C91.0179 14.5311 90.7942 13.9107 90.383 13.7881C90.2676 13.7448 90.0476 13.7124 89.723 13.6907ZM86.65 13.8097C86.4119 13.8386 86.1883 13.8783 85.9791 13.9288C85.7699 13.972 85.622 13.9937 85.5354 13.9937C85.3551 13.9937 85.2252 13.9324 85.1459 13.8097C85.0738 13.6871 85.0485 13.5392 85.0702 13.3661L85.2866 11.624C85.3226 11.4076 85.4922 11.2597 85.7951 11.1803C85.8023 11.1803 85.8925 11.1623 86.0656 11.1262C86.2388 11.0902 86.3758 11.0649 86.4768 11.0505C86.585 11.0289 86.7582 11 86.9962 10.9639C87.2415 10.9279 87.4759 10.899 87.6995 10.8774C87.9232 10.8557 88.2009 10.8377 88.5327 10.8233C88.8718 10.8088 89.218 10.8016 89.5715 10.8016C90.264 10.8016 90.8772 10.8846 91.411 11.0505C91.952 11.2164 92.3993 11.4436 92.7527 11.7322C93.1062 12.0207 93.3948 12.3706 93.6184 12.7818C93.8492 13.1858 94.0115 13.615 94.1053 14.0694C94.1991 14.5167 94.246 15.0072 94.246 15.541C94.246 16.8611 94.0079 18.4265 93.5318 20.2372C93.3298 21.009 93.0954 21.7268 92.8285 22.3904C92.5688 23.0469 92.2514 23.6709 91.8763 24.2624C91.5012 24.8467 91.09 25.3445 90.6427 25.7556C90.2027 26.1668 89.6941 26.4914 89.117 26.7295C88.5472 26.9675 87.9376 27.0866 87.2884 27.0866C85.7302 27.0866 84.6806 27.0361 84.1396 26.9351C83.8582 26.8774 83.6707 26.7656 83.5769 26.5996C83.4831 26.4337 83.4795 26.1849 83.5661 25.853L86.65 13.8097ZM99.7055 17.0884C101.213 14.8088 102.328 12.8611 103.049 11.2453C103.143 11.0289 103.363 10.9315 103.709 10.9531L105.592 11.0397C105.765 11.0541 105.884 11.1335 105.949 11.2777C106.014 11.422 105.985 11.6096 105.862 11.8404C104.218 14.7331 102.328 17.6078 100.192 20.4644L98.6559 26.5131C98.5693 26.8377 98.3493 27 97.9958 27H96.1131C95.9327 27 95.8029 26.9351 95.7235 26.8052C95.6442 26.6682 95.6261 26.5059 95.6694 26.3183L97.2168 20.2047C97.2168 19.2236 97.1013 17.835 96.8705 16.0388C96.6469 14.2353 96.416 12.872 96.178 11.9486C96.0842 11.6889 96.0878 11.4653 96.1888 11.2777C96.2898 11.0902 96.4485 10.9892 96.6649 10.9748L98.4395 10.8882C98.6487 10.8738 98.7966 10.899 98.8831 10.9639C98.9697 11.0289 99.0346 11.1803 99.0779 11.4184C99.4169 13.4382 99.6261 15.3282 99.7055 17.0884Z" fill="white"/>
</svg>
