<svg class="icon__vector" width="36" height="36" viewBox="0 0 36 36" xmlns="http://www.w3.org/2000/svg">
<path d="M13.6992 7.76562L13.7031 7.76953C13.8086 7.32422 14.1875 7 14.6602 7H28.1328C28.1484 7 28.1641 6.99219 28.1836 6.99219C27.8945 2.21484 23.8867 0 20.3516 0H6.87891C6.40234 0 6.02734 0.335938 5.92188 0.777344L5.91797 0.773438L0.0273447 27.8125H0.0429697C0.0273447 27.8789 0.00390625 27.9375 0.00390625 28.0078C0.00390625 28.5625 0.449219 29 1.00391 29H9.07422L13.6992 7.76562Z" fill="#1565C0"/>
<path d="M28.1836 6.99219C28.2344 7.87109 28.1797 8.82422 27.9531 9.875C26.6719 15.8711 22.043 18.9922 16.3203 18.9922C16.3203 18.9922 12.8477 18.9922 12.0078 18.9922C11.4844 18.9922 11.2383 19.2969 11.125 19.5312L9.38672 27.5781L9.08203 29.0078H9.07422L7.8125 34.8047H7.82422C7.8125 34.8711 7.78516 34.9297 7.78516 35C7.78516 35.5547 8.23438 36 8.78516 36H16.1172L16.1328 35.9883C16.6055 35.9844 16.9805 35.6445 17.0781 35.2031L17.0938 35.1875L18.9062 26.7695C18.9062 26.7695 19.0312 25.9688 19.8789 25.9688C20.7227 25.9688 24.0547 25.9688 24.0547 25.9688C29.7773 25.9688 34.457 22.8633 35.7383 16.8672C37.1797 10.1055 32.3594 7.01953 28.1836 6.99219Z" fill="#039BE5"/>
<path d="M14.6602 7.00012C14.1875 7.00012 13.8086 7.32434 13.7031 7.76965L13.6992 7.76574L11.125 19.5314C11.2383 19.297 11.4844 18.9923 12.0039 18.9923C12.8477 18.9923 16.2383 18.9923 16.2383 18.9923C21.9648 18.9923 26.6719 15.8712 27.9531 9.87902C28.1797 8.82434 28.2344 7.87121 28.1836 6.99621C28.1641 6.9923 28.1484 7.00012 28.1328 7.00012H14.6602Z" fill="#283593"/>
</svg>