<svg class="icon__vector" width="42" height="30" viewBox="0 0 42 30" xmlns="http://www.w3.org/2000/svg">
<path d="M42 26C42 28.2109 40.2109 30 38 30H4C1.78906 30 0 28.2109 0 26V4C0 1.78906 1.78906 0 4 0H38C40.2109 0 42 1.78906 42 4V26Z" fill="#1976D2"/>
<path d="M19.2539 11L17.1406 15.6836L15.0391 11H12.3438V17.7266L9.33984 11H7.06641L4 17.9805H5.81641L6.48438 16.4219H9.91797L10.6016 17.9805H14.0664V12.7969L16.3633 17.9805H17.9258L20.2773 12.8867V17.9805H22V11H19.2539ZM7.13672 14.9141L8.16016 12.4766L9.22656 14.9141H7.13672Z" fill="white"/>
<path d="M34.8828 14.4141L38 11.0195H35.7812L33.7891 13.1836L31.8594 11H25V17.9805H31.6367L33.7266 15.6719L35.7656 18H37.9766L34.8828 14.4141ZM30.7266 16.5156H26.7188V15.1367H30.5547V13.8125H26.7188V12.5039L30.9492 12.5156L32.6445 14.4141L30.7266 16.5156Z" fill="white"/>
</svg>