<svg class="icon__vector" width="42" height="30" viewBox="0 0 42 30" xmlns="http://www.w3.org/2000/svg">
<path d="M42 26C42 28.2109 40.2109 30 38 30H4C1.78906 30 0 28.2109 0 26V4C0 1.78906 1.78906 0 4 0H38C40.2109 0 42 1.78906 42 4V26Z" fill="#3F51B5"/>
<path d="M37 15C37 20.5234 32.5234 25 27 25C21.4766 25 17 20.5234 17 15C17 9.47656 21.4766 5 27 5C32.5234 5 37 9.47656 37 15Z" fill="#FFC107"/>
<path d="M19.0156 21C18.5508 20.3828 18.1523 19.7148 17.8398 19H23.1641C23.4414 18.3633 23.6602 17.6953 23.8008 17H17.2031C17.0703 16.3555 17 15.6875 17 15H24C24 14.3125 23.9297 13.6445 23.8008 13H17.1992C17.3438 12.3047 17.5586 11.6367 17.8398 11H23.1641C22.8516 10.2852 22.4531 9.61719 21.9883 9H19.0156C19.4492 8.42188 19.9453 7.87891 20.4961 7.40625C18.7461 5.91016 16.4805 5 14 5C8.47656 5 4 9.47656 4 15C4 20.5234 8.47656 25 14 25C17.2695 25 20.1602 23.4258 21.9844 21H19.0156Z" fill="#FF3D00"/>
</svg>