<svg class="icon__vector" width="42" height="30" viewBox="0 0 42 30" xmlns="http://www.w3.org/2000/svg">
<path d="M42 26C42 28.2109 40.2109 30 38 30H4C1.78906 30 0 28.2109 0 26V4C0 1.78906 1.78906 0 4 0H38C40.2109 0 42 1.78906 42 4V26Z" fill="#1565C0"/>
<path d="M12.1875 10L9.55859 17.832C9.55859 17.832 8.89453 14.5195 8.82812 14.1016C7.33203 10.6914 5.125 10.8828 5.125 10.8828L7.72656 21V20.9961H10.8867L15.2578 10H12.1875Z" fill="white"/>
<path d="M14.6875 21H17.5586L19.2969 10H16.3906L14.6875 21Z" fill="white"/>
<path d="M35.0078 10H31.9883L27.2773 21H30.1289L30.7188 19.4297H34.3125L34.6172 21H37.2305L35.0078 10ZM31.5117 17.3281L33.0742 13.1719L33.8945 17.3281H31.5117Z" fill="white"/>
<path d="M23.3672 13.207C23.3672 12.6016 23.8672 12.1484 25.2969 12.1484C26.2227 12.1484 27.2852 12.8242 27.2852 12.8242L27.7539 10.5156C27.7539 10.5156 26.3945 10 25.0625 10C22.043 10 20.4844 11.4414 20.4844 13.2695C20.4844 16.5781 24.4648 16.125 24.4648 17.8203C24.4648 18.1133 24.2344 18.7852 22.5742 18.7852C20.9141 18.7852 19.8164 18.1758 19.8164 18.1758L19.3203 20.3945C19.3203 20.3945 20.3867 21 22.4375 21C24.4961 21 27.3555 19.4609 27.3555 17.2461C27.3555 14.5859 23.3672 14.3945 23.3672 13.207Z" fill="white"/>
<path d="M9.21094 15.9453L8.24609 11.1953C8.24609 11.1953 7.80859 10.168 6.67188 10.168C5.53516 10.168 2.23438 10.168 2.23438 10.168C2.23438 10.168 7.89453 11.8398 9.21094 15.9453Z" fill="#FFC107"/>
</svg>