<svg width="99" height="23" viewBox="0 0 99 23" fill="none" xmlns="http://www.w3.org/2000/svg">
<path d="M0.95 22.03L3.83 0.0099988L6.65 0.339998L3.77 22.39L0.95 22.03ZM6.83 13.24L6.98 11.14L15.8 4.18L17.57 6.4L9.95 12.43L17.18 20.05L15.17 22L6.83 13.24ZM30.7972 19.3L21.3172 20.86L19.6672 19.39L20.3872 7.27L23.2072 7.42L22.6072 17.77L30.1372 16.57L30.7672 7.24L33.6172 7.48L32.9572 17.29L35.5072 18.82L34.0372 21.22L30.7972 19.3ZM51.8539 20.98L51.3139 20.35L38.9239 22.33L37.3039 20.62L39.0439 13.75L40.3939 12.67H49.8739L49.2439 7.99L38.4439 10.63L37.7539 7.9L50.0839 4.87L51.8239 6.07L53.5039 18.52L55.6039 19.12L54.8539 21.82L51.8539 20.98ZM50.5339 17.59L50.2639 15.52H41.5039L40.5739 19.18L50.5339 17.59ZM59.1945 21.52L57.8445 19.93L59.9745 0.519999L62.7945 0.849999L60.8445 18.73L73.4145 19.12L73.2945 21.91L59.1945 21.52ZM76.25 4.42L78.98 3.67L79.88 7.03L77.15 7.78L76.25 4.42ZM75.5 21.43L76.97 9.52L79.79 9.85L78.32 21.76L75.5 21.43ZM83.7298 20.2L82.5898 18.61L84.0298 7.93L85.2898 6.73L94.0798 6.01L95.4598 6.76L98.0098 11.8L97.0198 13.81L87.6898 15.76L87.0898 13.03L94.6198 11.41L93.3598 8.92L86.6398 9.43L85.5598 17.68L95.8798 19.6L95.3398 22.36L83.7298 20.2Z" fill="black"/>
</svg>
