<svg width="172" height="124" viewBox="0 0 172 124" fill="none" xmlns="http://www.w3.org/2000/svg">
<path fill-rule="evenodd" clip-rule="evenodd" d="M0 84L11.5 82.5L18 57.5C32.735 57.7908 43.3173 55.2048 49.5 43.917C54.3417 35.0776 51.9343 25.2469 49.5 18C47.0657 10.7531 39.5611 5.45688 34.61 3.58118C29.6589 1.70548 25.5073 1.03693 19.52 0.354305C12.528 -0.442881 1.5 0.354305 1.5 0.354305L0 84ZM20 45L23 19.5C34.1438 20.2138 40.7169 23.1623 40.5 32.5C40.2831 41.8377 31 48 20 45Z" fill="#FCC032"/>
<path d="M57 27L62.5 81.5L71.37 80.5C71.37 80.5 70.8437 70.7027 72.5 65.5C74.1563 60.2973 76.4936 58.5 78.3966 58.5C81.5 58.5 81.5 63 81.5 65.5C81.5 68 80 79.5 80 79.5L90 77.5C90 77.5 91.6274 65.8516 89.5 58.5C87.3726 51.1484 83 50 79 50.5C75.5496 50.9313 69.9838 53.5 69.9838 53.5L69.5 27.5L57 27Z" fill="#FCC032"/>
<path d="M95.5 66L107 64L105 90.4045H96.5L95.5 66Z" fill="#FCC032"/>
<path d="M99.5 58.5C102 58.5 103.234 57.6148 104 56.5C105 55.0438 105 54.8565 105 52.5C105 50.4882 103.899 49.0204 102 48.5C99.581 47.8372 98.018 48 96.5 49.5C95.5 50.4882 94.5 52 95 55C95.3395 57.0369 97.4815 58.5 99.5 58.5Z" fill="#FCC032"/>
<path d="M114.5 72L110.5 42L119.5 41L121 43.5C121 43.5 126.5 39.6104 131.5 40C136.5 40.3896 137.5 42 138.5 45C139.5 48 139.822 56.2117 137.5 67.5L127 69.5L128.5 55C128.971 50.8481 127.385 48.3113 125.5 48.5C123.615 48.6887 122.253 49.7005 121.593 52.5V71L114.5 72Z" fill="#FCC032"/>
<path fill-rule="evenodd" clip-rule="evenodd" d="M153 70.5C153 76 155.5 81 170 75.5L171 81C164.5 84 163 84.5 157 84.5C151 84.5 144.133 80.2635 142.5 71C141.643 64.2551 141.757 61.5833 143.5 58.5C145.243 55.4167 149.066 52.4075 156 52C163.702 51.5818 167.296 55.1982 169.5 58C171.704 60.8018 172 66 172 66L153 70.5ZM161.5 63.9926L152.5 66C151.736 61.2376 152.948 58.5 156 58.5C159.052 58.5 159.974 58.6225 161.5 63.9926Z" fill="#FCC032"/>
<path d="M27.5 122.5L26.5 63L56 58.5L55.1595 76.5H37.5L35.7392 94.5L44.5 95L43.478 102.5L34.8636 103L32 120.5L27.5 122.5Z" fill="#FCC032"/>
<path d="M54.3418 100.646L64 99L63.5 122.5L57 124L54.3418 100.646Z" fill="#FCC032"/>
<path d="M68.5 93L76.5 92L77.5 94.5C77.5 94.5 87.1121 89.401 90.5 92C93.8879 94.599 97 103 93 116L84.5 118C85 108.76 86.7076 99.5 81.5 99.5C78.677 99.2759 77.8579 104.528 77.8579 104.528V120L71.5 120.5L68.5 93Z" fill="#FCC032"/>
<path d="M58.6334 93C60.9314 92.7707 62.1626 91.275 62.5 89C62.5 84.5 60.7227 84 58.6334 84C56.544 84 54 85.6983 54 88.5C54.2759 91.7456 56.0278 93.2599 58.6334 93Z" fill="#FCC032"/>
<path fill-rule="evenodd" clip-rule="evenodd" d="M114.5 118.541L114.728 120.112L122.5 122L128 75.5L118.5 77L117 95.5C109.5 92 101.5 94.6962 98.5 100.348C95.5 106 97.5141 113.079 101.5 115.5C105.486 117.921 107.5 118.5 110.5 118.541C113.5 118.581 114.5 118.541 114.5 118.541ZM116 107.5C115.105 111.979 113.218 113.873 110.5 113.366C107.782 112.86 106.263 110.464 106.5 106.5C107.488 102.307 109.03 100 112 100C115.435 100 116.895 103.021 116 107.5Z" fill="#FCC032"/>
<path d="M133 110.262L129.5 116.5C129.5 116.5 134.278 120.489 139 121.5C143.722 122.511 149.801 120.524 151.5 118.541C151.5 118.541 155.555 113.303 153 110C149.968 106.08 144.662 103 143.5 102C142.338 101 143.302 100.129 144 100C145.227 99.7738 149 100 149 100L154 94C150.352 90.647 143.5 91 143.5 91C143.5 91 135.233 91.2965 133 94C130.371 97.1821 131.678 101.873 131.678 101.873C131.678 101.873 132.688 104.543 136.455 107.055C138.659 108.525 142.338 110.262 142.338 110.262C142.338 110.262 144.944 112.15 144.5 113C144.056 113.85 141.059 114.955 138.5 114.5C135.941 114.045 134.474 112.68 133 110.262Z" fill="#FCC032"/>
</svg>
