<svg width="108" height="41" viewBox="0 0 108 41" fill="none" xmlns="http://www.w3.org/2000/svg">
<path d="M0.201172 9.49219C0.214193 9.4401 0.240234 9.42057 0.279297 9.43359C0.33138 9.43359 0.376953 9.42708 0.416016 9.41406C0.311849 9.3099 0.246745 9.17318 0.220703 9.00391C0.194661 8.82161 0.129557 8.67188 0.0253906 8.55469C0.0514323 8.48958 0.0709635 8.42448 0.0839844 8.35938C0.110026 8.29427 0.16862 8.26823 0.259766 8.28125C0.220703 7.99479 0.227214 7.72786 0.279297 7.48047C0.33138 7.23307 0.409505 6.9987 0.513672 6.77734C0.630859 6.55599 0.761068 6.34115 0.904297 6.13281C1.06055 5.91146 1.21029 5.6901 1.35352 5.46875C1.4707 5.44271 1.54232 5.45573 1.56836 5.50781C1.5944 5.54688 1.63997 5.53385 1.70508 5.46875C1.91341 5.32552 2.05664 5.16927 2.13477 5C2.21289 4.81771 2.25195 4.6224 2.25195 4.41406C2.36914 4.07552 2.49935 3.74349 2.64258 3.41797C2.79883 3.07943 2.97461 2.76693 3.16992 2.48047C3.36523 2.19401 3.57357 1.94661 3.79492 1.73828C4.01628 1.51693 4.25716 1.34766 4.51758 1.23047C4.69987 1.07422 4.92773 0.93099 5.20117 0.800781C5.48763 0.670573 5.78711 0.572917 6.09961 0.507812C6.42513 0.429688 6.75716 0.390625 7.0957 0.390625C7.43424 0.377604 7.74674 0.410156 8.0332 0.488281C8.09831 0.514323 8.13737 0.501302 8.15039 0.449219C8.16341 0.384115 8.19596 0.351562 8.24805 0.351562C8.89909 0.429688 9.47852 0.559896 9.98633 0.742188C10.5072 0.924479 10.9499 1.17839 11.3145 1.50391C11.5618 1.89453 11.7962 2.31771 12.0176 2.77344C12.2389 3.21615 12.4082 3.6849 12.5254 4.17969C12.6556 4.66146 12.7142 5.16276 12.7012 5.68359C12.6882 6.20443 12.5775 6.72526 12.3691 7.24609C11.9134 7.81901 11.36 8.28125 10.709 8.63281C10.0579 8.97135 9.35482 9.25781 8.59961 9.49219C7.85742 9.71354 7.08268 9.89583 6.27539 10.0391C5.48112 10.1823 4.70638 10.3385 3.95117 10.5078C3.96419 10.8594 3.96419 11.237 3.95117 11.6406C3.93815 12.0312 3.89258 12.4284 3.81445 12.832C3.74935 13.2227 3.64518 13.6068 3.50195 13.9844C3.37174 14.362 3.18945 14.7135 2.95508 15.0391C2.69466 15.026 2.42122 15.0521 2.13477 15.1172C1.86133 15.1823 1.61393 15.2474 1.39258 15.3125C1.28841 15.2474 1.18424 15.1823 1.08008 15.1172C0.988932 15.0651 0.871745 15.0326 0.728516 15.0195C0.767578 14.8633 0.728516 14.7005 0.611328 14.5312C0.507161 14.362 0.396484 14.1992 0.279297 14.043C0.17513 13.8737 0.103516 13.7109 0.0644531 13.5547C0.0384115 13.3854 0.116536 13.2357 0.298828 13.1055C0.194661 13.0143 0.142578 12.8711 0.142578 12.6758C0.194661 12.7279 0.259766 12.7539 0.337891 12.7539C0.311849 12.5195 0.337891 12.2396 0.416016 11.9141C0.507161 11.5885 0.578776 11.2695 0.630859 10.957C0.695964 10.6315 0.708984 10.3385 0.669922 10.0781C0.630859 9.80469 0.474609 9.60938 0.201172 9.49219ZM5.2793 4.92188C5.22721 5.0651 5.18164 5.19531 5.14258 5.3125C5.11654 5.41667 5.08398 5.51432 5.04492 5.60547C5.00586 5.69661 4.96029 5.78776 4.9082 5.87891C4.86914 5.97005 4.82357 6.07422 4.77148 6.19141C4.79753 6.26953 4.84961 6.32812 4.92773 6.36719C5.00586 6.40625 5.05794 6.46484 5.08398 6.54297C5.26628 6.45182 5.44857 6.38672 5.63086 6.34766C5.81315 6.29557 5.99544 6.25651 6.17773 6.23047C6.36003 6.20443 6.54232 6.17188 6.72461 6.13281C6.9069 6.09375 7.0957 6.02865 7.29102 5.9375C7.48633 5.84635 7.68815 5.77474 7.89648 5.72266C8.11784 5.65755 8.33268 5.59245 8.54102 5.52734C8.74935 5.46224 8.95117 5.39062 9.14648 5.3125C9.3418 5.22135 9.51107 5.10417 9.6543 4.96094C9.47201 4.79167 9.19857 4.64193 8.83398 4.51172C8.4694 4.38151 8.07227 4.30339 7.64258 4.27734C7.22591 4.23828 6.80273 4.26432 6.37305 4.35547C5.95638 4.44661 5.5918 4.63542 5.2793 4.92188ZM23.0137 4.00391C23.0267 4.09505 23.0267 4.16667 23.0137 4.21875C23.0137 4.25781 23.0072 4.29688 22.9941 4.33594C22.9941 4.375 22.9941 4.42057 22.9941 4.47266C22.9941 4.51172 23.0072 4.57682 23.0332 4.66797C22.7598 5.11068 22.4408 5.41667 22.0762 5.58594C21.7246 5.74219 21.3405 5.85938 20.9238 5.9375C20.5072 6.0026 20.0775 6.07422 19.6348 6.15234C19.2051 6.23047 18.7754 6.39974 18.3457 6.66016C18.1764 6.59505 18.0202 6.59505 17.877 6.66016C17.7467 6.72526 17.5514 6.74479 17.291 6.71875C17.2129 6.79688 17.1152 6.85547 16.998 6.89453C16.8809 6.92057 16.7637 6.95312 16.6465 6.99219C16.6986 7.10938 16.7181 7.23307 16.7051 7.36328C16.7051 7.48047 16.7246 7.57812 16.7637 7.65625C17.2194 7.69531 17.7207 7.6888 18.2676 7.63672C18.8275 7.58464 19.3743 7.55208 19.9082 7.53906C19.9212 7.60417 19.9147 7.64974 19.8887 7.67578C19.8626 7.6888 19.8561 7.72135 19.8691 7.77344C19.9603 7.83854 20.0514 7.92318 20.1426 8.02734C20.2337 8.11849 20.3249 8.20964 20.416 8.30078C20.5072 8.39193 20.5983 8.47005 20.6895 8.53516C20.7936 8.58724 20.9108 8.60677 21.041 8.59375C21.0931 8.69792 21.1257 8.8151 21.1387 8.94531C21.1647 9.0625 21.1517 9.1862 21.0996 9.31641C20.8913 9.45964 20.6829 9.60938 20.4746 9.76562C20.2663 9.90885 20.0449 10.0391 19.8105 10.1562C19.5892 10.2734 19.3483 10.3711 19.0879 10.4492C18.8405 10.5143 18.5605 10.5404 18.248 10.5273C18.1829 10.5273 18.1309 10.5273 18.0918 10.5273C18.0658 10.5273 18.0267 10.5078 17.9746 10.4688C17.8704 10.5339 17.7207 10.5534 17.5254 10.5273C17.3431 10.5013 17.1999 10.5208 17.0957 10.5859C16.9525 10.5208 16.7767 10.4948 16.5684 10.5078C16.373 10.5078 16.1973 10.4818 16.041 10.4297C15.8327 10.7031 15.6439 10.9961 15.4746 11.3086C15.3053 11.6211 15.1556 11.9531 15.0254 12.3047C15.4681 12.3698 15.8327 12.3958 16.1191 12.3828C16.4186 12.3698 16.6986 12.3503 16.959 12.3242C17.2194 12.2852 17.4863 12.2526 17.7598 12.2266C18.0332 12.1875 18.3783 12.1745 18.7949 12.1875C19.0553 12.0443 19.3613 11.9531 19.7129 11.9141C20.0775 11.862 20.4095 11.7839 20.709 11.6797C20.8132 11.7188 20.9043 11.7904 20.9824 11.8945C21.0605 11.9857 21.1322 12.0768 21.1973 12.168C21.2754 12.2461 21.3535 12.3177 21.4316 12.3828C21.5098 12.4479 21.6074 12.474 21.7246 12.4609C21.7767 12.513 21.8092 12.5781 21.8223 12.6562C21.8483 12.7214 21.8678 12.7865 21.8809 12.8516C21.8939 12.9167 21.9134 12.9753 21.9395 13.0273C21.9785 13.0664 22.0371 13.0794 22.1152 13.0664C21.9199 13.4961 21.6921 13.8281 21.4316 14.0625C21.1842 14.2839 20.8978 14.4531 20.5723 14.5703C20.2467 14.6875 19.8822 14.7786 19.4785 14.8438C19.0879 14.9089 18.6517 14.987 18.1699 15.0781C18.0527 15.1042 17.9551 15.0977 17.877 15.0586C17.7988 15.0326 17.7077 15.0195 17.6035 15.0195C17.304 15.0846 16.946 15.1432 16.5293 15.1953C16.1126 15.2474 15.6895 15.2669 15.2598 15.2539C14.8301 15.2409 14.4199 15.1823 14.0293 15.0781C13.6387 14.987 13.3197 14.8177 13.0723 14.5703C12.9681 14.4792 12.8965 14.375 12.8574 14.2578C12.8314 14.1276 12.7467 14.0299 12.6035 13.9648C12.5905 13.7956 12.5645 13.6068 12.5254 13.3984C12.4863 13.1901 12.4473 12.9753 12.4082 12.7539C12.3691 12.5195 12.3366 12.2917 12.3105 12.0703C12.2975 11.849 12.3105 11.6471 12.3496 11.4648C12.3887 11.2695 12.4668 11.0938 12.584 10.9375C12.7142 10.7812 12.7598 10.612 12.7207 10.4297C12.7858 10.4167 12.8249 10.3841 12.8379 10.332C12.8509 10.2669 12.903 10.2409 12.9941 10.2539C13.0723 10.0195 13.1569 9.79818 13.248 9.58984C13.3392 9.38151 13.4303 9.17969 13.5215 8.98438C13.6257 8.78906 13.7233 8.59375 13.8145 8.39844C13.9186 8.1901 14.0163 7.96224 14.1074 7.71484C13.9251 7.54557 13.7884 7.36328 13.6973 7.16797C13.6191 6.95964 13.5605 6.75781 13.5215 6.5625C13.4824 6.35417 13.4499 6.14583 13.4238 5.9375C13.3978 5.71615 13.3522 5.49479 13.2871 5.27344C13.4173 5.07812 13.5736 4.92188 13.7559 4.80469C13.9512 4.67448 14.1595 4.57031 14.3809 4.49219C14.6022 4.41406 14.8431 4.34896 15.1035 4.29688C15.3639 4.24479 15.6374 4.1862 15.9238 4.12109C16.4447 3.95182 16.9069 3.82161 17.3105 3.73047C17.7272 3.63932 18.1309 3.56771 18.5215 3.51562C18.9251 3.45052 19.3418 3.39193 19.7715 3.33984C20.2012 3.28776 20.6895 3.20964 21.2363 3.10547C21.3535 3.22266 21.4642 3.28125 21.5684 3.28125C21.6204 3.16406 21.679 3.13151 21.7441 3.18359C21.8223 3.22266 21.8548 3.18359 21.8418 3.06641C21.972 3.28776 22.1348 3.47656 22.3301 3.63281C22.5384 3.77604 22.7663 3.89974 23.0137 4.00391ZM25.4941 12.9688C25.3509 13.4896 25.2207 13.8867 25.1035 14.1602C24.9993 14.4206 24.8366 14.694 24.6152 14.9805C24.446 14.9544 24.3288 14.974 24.2637 15.0391C24.1986 15.1042 24.127 15.1628 24.0488 15.2148C23.9316 15.2409 23.847 15.2409 23.7949 15.2148C23.7428 15.1888 23.6973 15.1562 23.6582 15.1172C23.6191 15.0911 23.5671 15.0586 23.502 15.0195C23.4499 14.9935 23.3652 14.9805 23.248 14.9805C23.222 14.8763 23.1895 14.7786 23.1504 14.6875C23.1243 14.5964 23.0397 14.5638 22.8965 14.5898C22.9225 14.4857 22.929 14.401 22.916 14.3359C22.903 14.2578 22.8835 14.1927 22.8574 14.1406C22.8444 14.0755 22.8314 14.0169 22.8184 13.9648C22.8053 13.8997 22.8118 13.8216 22.8379 13.7305C22.7728 13.7305 22.7207 13.6849 22.6816 13.5938C22.6426 13.5026 22.597 13.4115 22.5449 13.3203C22.584 13.0859 22.623 12.8646 22.6621 12.6562C22.7012 12.4479 22.7467 12.2526 22.7988 12.0703C22.8639 11.888 22.916 11.7057 22.9551 11.5234C22.9941 11.3411 22.9746 11.1523 22.8965 10.957C22.9486 10.9961 22.9876 10.9896 23.0137 10.9375C23.0397 10.8724 23.0592 10.7943 23.0723 10.7031C23.0853 10.599 23.0918 10.5013 23.0918 10.4102C23.0918 10.306 23.0853 10.2214 23.0723 10.1562C23.2025 9.81771 23.3066 9.47266 23.3848 9.12109C23.4759 8.75651 23.554 8.39844 23.6191 8.04688C23.6973 7.69531 23.7754 7.35026 23.8535 7.01172C23.9316 6.67318 24.0358 6.36068 24.166 6.07422C24.3092 6.04818 24.4655 6.06771 24.6348 6.13281C24.8171 6.1849 24.9277 6.25651 24.9668 6.34766C25.3053 6.08724 25.6048 5.77474 25.8652 5.41016C26.1257 5.03255 26.3926 4.66797 26.666 4.31641C26.9395 3.96484 27.2389 3.65234 27.5645 3.37891C27.903 3.10547 28.3262 2.94271 28.834 2.89062C29.0944 3.08594 29.3809 3.28776 29.6934 3.49609C30.0189 3.69141 30.2858 3.95182 30.4941 4.27734C30.5983 4.32943 30.6829 4.38802 30.748 4.45312C30.8262 4.50521 30.9173 4.5638 31.0215 4.62891V4.86328C31.1777 5.00651 31.3014 5.17578 31.3926 5.37109C31.4967 5.55339 31.5879 5.75521 31.666 5.97656C31.7441 6.1849 31.8223 6.39974 31.9004 6.62109C31.9785 6.82943 32.0697 7.03125 32.1738 7.22656C32.1478 7.29167 32.1348 7.35026 32.1348 7.40234C32.1348 7.44141 32.1413 7.48698 32.1543 7.53906C32.1803 7.59115 32.1999 7.64323 32.2129 7.69531C32.2259 7.7474 32.2259 7.81901 32.2129 7.91016C32.1738 8.48307 31.985 8.94531 31.6465 9.29688C31.321 9.64844 30.9238 9.94141 30.4551 10.1758C29.9863 10.3971 29.485 10.5859 28.9512 10.7422C28.4173 10.8984 27.9355 11.0677 27.5059 11.25C27.5059 11.3021 27.5254 11.3281 27.5645 11.3281C27.6165 11.3281 27.6361 11.3607 27.623 11.4258C27.9355 11.6211 28.1829 11.7773 28.3652 11.8945C28.5475 12.0117 28.7168 12.1094 28.873 12.1875C29.0423 12.2656 29.2181 12.3372 29.4004 12.4023C29.5957 12.4544 29.8626 12.5195 30.2012 12.5977C30.5397 12.6758 30.8001 12.7409 30.9824 12.793C31.1777 12.832 31.3535 12.8711 31.5098 12.9102C31.666 12.9362 31.8223 12.9622 31.9785 12.9883C32.1478 13.0013 32.3822 13.0208 32.6816 13.0469C32.7988 13.1641 32.8965 13.3073 32.9746 13.4766C33.0658 13.6328 33.1243 13.7956 33.1504 13.9648C33.1764 14.1211 33.1829 14.2773 33.1699 14.4336C33.1569 14.5768 33.1113 14.694 33.0332 14.7852C33.0462 14.8242 33.0723 14.8438 33.1113 14.8438C33.1634 14.8307 33.2155 14.8307 33.2676 14.8438C33.1895 14.8958 33.1243 14.9609 33.0723 15.0391C33.0202 15.1172 32.9681 15.1953 32.916 15.2734C32.8639 15.3516 32.8053 15.4167 32.7402 15.4688C32.6751 15.5339 32.584 15.5729 32.4668 15.5859C32.0632 15.7422 31.5553 15.7487 30.9434 15.6055C30.3314 15.4753 29.5566 15.2279 28.6191 14.8633C28.1504 14.681 27.7663 14.5247 27.4668 14.3945C27.1803 14.2513 26.9264 14.1146 26.7051 13.9844C26.4967 13.8411 26.3014 13.6914 26.1191 13.5352C25.9499 13.3789 25.7415 13.1901 25.4941 12.9688ZM28.2871 6.26953C28.1439 6.47786 27.9811 6.66667 27.7988 6.83594C27.6296 7.00521 27.4603 7.18099 27.291 7.36328C27.1348 7.53255 26.9915 7.72786 26.8613 7.94922C26.7311 8.15755 26.64 8.40495 26.5879 8.69141C27.0436 8.63932 27.5189 8.51562 28.0137 8.32031C28.5085 8.11198 28.9772 7.91667 29.4199 7.73438C29.3678 7.33073 29.2246 7.00521 28.9902 6.75781C28.7689 6.51042 28.5345 6.34766 28.2871 6.26953ZM46.6855 14.6484C46.5553 14.7135 46.4316 14.7721 46.3145 14.8242C46.2103 14.8763 46.0866 14.9023 45.9434 14.9023C45.4355 14.5247 45.1686 13.8672 45.1426 12.9297C45.1296 11.9922 45.3314 10.8008 45.748 9.35547C45.8132 9.31641 45.8457 9.23828 45.8457 9.12109L45.6699 8.92578C45.6178 8.92578 45.5658 8.93229 45.5137 8.94531C45.4746 8.95833 45.4421 9.00391 45.416 9.08203C45.0775 9.32943 44.7064 9.58984 44.3027 9.86328C43.8991 10.1237 43.4759 10.3711 43.0332 10.6055C42.6035 10.8268 42.1608 11.0091 41.7051 11.1523C41.2624 11.2956 40.8262 11.3672 40.3965 11.3672C39.3027 11.3672 38.4824 10.8138 37.9355 9.70703L37.7793 9.41406L37.623 9.66797C37.584 9.72005 37.5254 9.83073 37.4473 10C37.3691 10.1562 37.291 10.3385 37.2129 10.5469C37.1348 10.7552 37.0632 10.9701 36.998 11.1914C36.946 11.3997 36.9264 11.582 36.9395 11.7383C36.8223 11.8555 36.6986 11.9922 36.5684 12.1484C36.4382 12.3047 36.3405 12.4805 36.2754 12.6758C36.2493 12.7799 36.2624 12.8776 36.3145 12.9688C36.2884 13.0859 36.2298 13.1771 36.1387 13.2422C36.0866 13.3073 36.028 13.3724 35.9629 13.4375C35.9108 13.4896 35.8652 13.5482 35.8262 13.6133C35.8001 13.6784 35.7806 13.7435 35.7676 13.8086C35.7676 13.8737 35.7611 13.9388 35.748 14.0039C35.748 14.0951 35.735 14.1797 35.709 14.2578C35.4876 14.7135 35.3118 15.0065 35.1816 15.1367C35.0514 15.2799 34.8757 15.3516 34.6543 15.3516C34.5501 15.3516 34.3809 15.332 34.1465 15.293C33.9772 15.1107 33.821 14.8633 33.6777 14.5508C33.5475 14.2253 33.4434 13.8802 33.3652 13.5156C33.3001 13.151 33.2676 12.7865 33.2676 12.4219C33.2806 12.0443 33.3457 11.7188 33.4629 11.4453C33.4629 11.4323 33.515 11.3021 33.6191 11.0547C33.7233 10.8073 33.8535 10.4883 34.0098 10.0977C34.179 9.70703 34.3678 9.27734 34.5762 8.80859C34.7845 8.32682 34.9928 7.86458 35.2012 7.42188C35.4095 6.96615 35.6048 6.54948 35.7871 6.17188C35.9824 5.79427 36.1452 5.50781 36.2754 5.3125C36.3796 5.15625 36.4707 5.01302 36.5488 4.88281C36.64 4.73958 36.7246 4.60286 36.8027 4.47266C37.0371 4.06901 37.2585 3.73698 37.4668 3.47656C37.6882 3.20312 38.0072 2.98828 38.4238 2.83203C38.7103 2.94922 38.9186 3.08594 39.0488 3.24219L39.0879 3.45703C39.14 3.58724 39.2181 3.65234 39.3223 3.65234C39.4655 3.69141 39.5827 3.73047 39.6738 3.76953C39.778 3.79557 39.8887 3.82161 40.0059 3.84766C40.097 3.95182 40.1816 4.07552 40.2598 4.21875C40.3639 4.375 40.4616 4.53125 40.5527 4.6875C40.6569 4.83073 40.735 4.98047 40.7871 5.13672C40.8522 5.27995 40.8848 5.42969 40.8848 5.58594C40.8978 5.74219 40.8717 5.90495 40.8066 6.07422L40.8262 6.26953C40.8913 6.38672 40.9043 6.54948 40.8652 6.75781C40.8522 6.84896 40.8457 6.94661 40.8457 7.05078C40.8457 7.14193 40.8587 7.24609 40.8848 7.36328C41.1191 7.54557 41.3275 7.63672 41.5098 7.63672C41.7181 7.63672 41.9069 7.59115 42.0762 7.5C42.2585 7.39583 42.4277 7.29167 42.584 7.1875C42.6882 7.10938 42.7923 7.04427 42.8965 6.99219C43.0007 6.92708 43.1048 6.88802 43.209 6.875C43.4434 6.65365 43.6517 6.45833 43.834 6.28906C44.0293 6.11979 44.2311 5.95052 44.4395 5.78125C44.8301 5.46875 45.2077 5.13021 45.5723 4.76562C45.9368 4.40104 46.2298 3.94531 46.4512 3.39844C46.5814 3.32031 46.7181 3.28125 46.8613 3.28125C47.0046 3.28125 47.1543 3.3138 47.3105 3.37891C47.4668 3.44401 47.6165 3.50911 47.7598 3.57422C47.7988 3.60026 47.8314 3.61979 47.8574 3.63281C47.8965 3.64583 47.929 3.65885 47.9551 3.67188C47.9551 3.80208 48.0072 3.91276 48.1113 4.00391C48.1634 4.04297 48.196 4.06901 48.209 4.08203C48.222 4.09505 48.2415 4.10807 48.2676 4.12109C48.4629 4.22526 48.5866 4.32943 48.6387 4.43359C48.7298 4.73307 48.8926 4.96094 49.127 5.11719C49.1009 5.2474 49.1009 5.37109 49.127 5.48828C49.166 5.59245 49.2116 5.70312 49.2637 5.82031C49.2767 5.85938 49.2897 5.89844 49.3027 5.9375C49.3158 5.97656 49.3353 6.02214 49.3613 6.07422L48.9902 6.03516L49.0488 6.40625C49.0749 6.58854 49.0553 6.79036 48.9902 7.01172C48.9382 7.23307 48.873 7.40885 48.7949 7.53906C48.8079 7.8776 48.8145 8.14453 48.8145 8.33984C48.8275 8.52214 48.821 8.69792 48.7949 8.86719C48.7689 9.02344 48.7298 9.17318 48.6777 9.31641C48.6387 9.45964 48.5801 9.61589 48.502 9.78516C48.554 10.6185 48.4564 11.3802 48.209 12.0703C47.9746 12.7474 47.7272 13.3854 47.4668 13.9844C47.4408 14.0495 47.4082 14.1146 47.3691 14.1797C47.3431 14.2448 47.3171 14.3099 47.291 14.375C47.1738 14.4141 47.0697 14.4596 46.9785 14.5117C46.8874 14.5508 46.7897 14.5964 46.6855 14.6484ZM59.791 13.3594C59.7129 13.5807 59.5957 13.8086 59.4395 14.043C59.2962 14.2643 59.1204 14.4661 58.9121 14.6484C58.7168 14.8177 58.4954 14.9609 58.248 15.0781C58.0007 15.1953 57.7402 15.2604 57.4668 15.2734C57.2975 15.2344 57.1803 15.1888 57.1152 15.1367C57.0632 15.0977 57.0046 15.0586 56.9395 15.0195C56.9004 14.9935 56.8613 14.974 56.8223 14.9609C56.7962 14.9349 56.7702 14.9154 56.7441 14.9023L56.5098 14.8047L56.5879 14.5508C56.6139 14.4466 56.6074 14.3685 56.5684 14.3164C56.5293 14.2513 56.4512 14.1667 56.334 14.0625C56.2949 14.0234 56.2559 13.9844 56.2168 13.9453C56.1777 13.9062 56.1452 13.8672 56.1191 13.8281L55.7871 13.457L56.3145 13.3203C56.64 13.2292 56.8548 13.112 56.959 12.9688C57.0762 12.8255 57.1217 12.5846 57.0957 12.2461C56.8353 12.194 56.6139 12.1875 56.4316 12.2266C56.2624 12.2656 56.0866 12.3112 55.9043 12.3633C55.6699 12.4284 55.429 12.487 55.1816 12.5391C54.9473 12.5781 54.6868 12.5977 54.4004 12.5977C54.2962 12.5977 54.1986 12.5977 54.1074 12.5977C54.0163 12.5846 53.9186 12.5716 53.8145 12.5586L53.6191 12.5195C53.5931 12.3763 53.5671 12.2982 53.541 12.2852C53.515 12.2591 53.4889 12.2331 53.4629 12.207C53.3978 12.1419 53.3262 12.0573 53.248 11.9531C53.1829 11.8359 53.1699 11.6927 53.209 11.5234C53.1439 11.4062 53.1048 11.2891 53.0918 11.1719C53.0137 11.3281 52.9551 11.4909 52.916 11.6602L52.8379 11.8555L52.6426 11.8945C52.6165 11.9076 52.597 11.9401 52.584 11.9922C52.571 12.0312 52.5645 12.0638 52.5645 12.0898L52.4668 12.4219C52.4408 12.4479 52.4147 12.474 52.3887 12.5C52.3626 12.513 52.3366 12.5326 52.3105 12.5586C52.2845 12.6758 52.252 12.793 52.2129 12.9102C52.1738 13.0273 52.1348 13.138 52.0957 13.2422C52.0306 13.4115 51.972 13.5807 51.9199 13.75C51.8809 13.9062 51.8678 14.0625 51.8809 14.2188L51.8027 14.4336C51.7376 14.5117 51.666 14.5768 51.5879 14.6289C51.5098 14.668 51.4316 14.707 51.3535 14.7461C51.3275 14.7721 51.2884 14.7982 51.2363 14.8242C51.1973 14.8372 51.1647 14.8503 51.1387 14.8633L51.0801 15.0781L50.8457 15.1172C50.7025 15.1432 50.5983 15.1628 50.5332 15.1758C50.4811 15.1888 50.416 15.1953 50.3379 15.1953L50.1426 15.1758C49.9993 15.0586 49.8887 14.9674 49.8105 14.9023C49.7324 14.8242 49.6413 14.7526 49.5371 14.6875C49.4199 14.5312 49.3548 14.4141 49.3418 14.3359C49.3288 14.2578 49.3158 14.1862 49.3027 14.1211C49.2767 14.043 49.2637 13.9779 49.2637 13.9258C49.2507 13.8737 49.2311 13.8346 49.2051 13.8086L48.9512 13.5742L49.166 13.3984L49.1855 13.0664C49.446 12.4023 49.7194 11.7643 50.0059 11.1523C50.3053 10.5404 50.6113 9.91536 50.9238 9.27734C51.028 9.06901 51.1257 8.86068 51.2168 8.65234C51.321 8.44401 51.4251 8.23568 51.5293 8.02734C51.5163 7.98828 51.5098 7.94271 51.5098 7.89062C51.5098 7.83854 51.5228 7.77995 51.5488 7.71484C51.6921 7.49349 51.8092 7.29818 51.9004 7.12891C51.9915 6.94661 52.0827 6.76432 52.1738 6.58203C52.278 6.36068 52.3822 6.14583 52.4863 5.9375C52.6035 5.72917 52.7467 5.51432 52.916 5.29297L53.2285 5.15625C53.2676 5.14323 53.3132 5.13021 53.3652 5.11719C53.4173 5.09115 53.4759 5.07812 53.541 5.07812L53.834 5.11719C54.1986 4.94792 54.5176 4.71354 54.791 4.41406C55.0645 4.10156 55.3444 3.73047 55.6309 3.30078L55.8262 3.02734L56.0801 3.18359C56.1452 3.22266 56.2363 3.26172 56.3535 3.30078C56.4707 3.32682 56.5944 3.35938 56.7246 3.39844C56.959 3.45052 57.1803 3.50911 57.3887 3.57422C57.597 3.63932 57.7663 3.73698 57.8965 3.86719C57.9746 4.07552 58.0202 4.23177 58.0332 4.33594C58.0462 4.4401 58.0658 4.54427 58.0918 4.64844C58.1309 4.86979 58.1634 5.09115 58.1895 5.3125C58.2285 5.53385 58.2546 5.78125 58.2676 6.05469C58.3327 6.27604 58.3848 6.4974 58.4238 6.71875C58.4759 6.92708 58.5215 7.14193 58.5605 7.36328C58.6257 7.67578 58.6908 7.98177 58.7559 8.28125C58.821 8.56771 58.9056 8.84115 59.0098 9.10156C59.1139 9.10156 59.179 9.10807 59.2051 9.12109C59.2702 9.09505 59.3353 9.07552 59.4004 9.0625C59.4785 9.04948 59.5632 9.03646 59.6543 9.02344L59.8691 9.00391L59.9473 9.19922C59.9603 9.26432 60.0254 9.32943 60.1426 9.39453C60.3118 9.40755 60.4355 9.44661 60.5137 9.51172C60.5918 9.5638 60.6634 9.6224 60.7285 9.6875C60.7806 9.73958 60.8327 9.77865 60.8848 9.80469L61.1777 9.92188L61.0215 10.2148C60.8913 10.4492 60.7025 10.6771 60.4551 10.8984C60.2207 11.1068 59.9538 11.2826 59.6543 11.4258C59.6673 11.5039 59.6738 11.582 59.6738 11.6602C59.6868 11.7253 59.7064 11.7969 59.7324 11.875C59.7715 12.0964 59.804 12.3242 59.8301 12.5586C59.8561 12.793 59.8561 13.0339 59.8301 13.2812L59.791 13.3594ZM54.1465 9.98047C54.5371 9.95443 54.8887 9.92839 55.2012 9.90234C55.5267 9.86328 55.8848 9.80469 56.2754 9.72656C56.1842 9.33594 56.0866 8.93229 55.9824 8.51562C55.8783 8.08594 55.7676 7.66276 55.6504 7.24609L55.5332 7.44141C55.2728 7.71484 55.0189 8.02083 54.7715 8.35938C54.5371 8.69792 54.3353 9.01693 54.166 9.31641C54.0879 9.43359 54.0098 9.55078 53.9316 9.66797C53.8535 9.78516 53.7819 9.90234 53.7168 10.0195C53.7949 10.0065 53.8665 10 53.9316 10C54.0098 10 54.0814 9.99349 54.1465 9.98047ZM65.084 11.4453C64.9668 11.4714 64.8822 11.543 64.8301 11.6602C64.778 11.7643 64.7259 11.875 64.6738 11.9922C64.6348 12.1094 64.5892 12.2201 64.5371 12.3242C64.498 12.4154 64.4329 12.4609 64.3418 12.4609C64.3288 12.5651 64.2897 12.6562 64.2246 12.7344C64.1725 12.8125 64.1204 12.8971 64.0684 12.9883C64.0163 13.0664 63.9772 13.1576 63.9512 13.2617C63.9251 13.3529 63.9382 13.4635 63.9902 13.5938C63.8861 13.6719 63.821 13.7826 63.7949 13.9258C63.7689 14.069 63.7363 14.2057 63.6973 14.3359C63.6712 14.4661 63.6191 14.5768 63.541 14.668C63.4629 14.7591 63.3197 14.7982 63.1113 14.7852C63.0723 14.8372 63.0658 14.8698 63.0918 14.8828C63.1178 14.8958 63.1374 14.9414 63.1504 15.0195C63.0072 14.9935 62.8965 15 62.8184 15.0391C62.7533 15.0911 62.6686 15.1237 62.5645 15.1367C62.3171 15.0586 62.1087 14.9219 61.9395 14.7266C61.7832 14.5312 61.64 14.3164 61.5098 14.082C61.3926 13.8346 61.2819 13.5872 61.1777 13.3398C61.0866 13.0924 60.9954 12.8776 60.9043 12.6953C60.9434 12.5521 60.9499 12.4154 60.9238 12.2852C60.8978 12.1419 60.8522 12.0247 60.7871 11.9336C61.4251 10.5794 62.1217 9.13411 62.877 7.59766C63.6322 6.0612 64.3483 4.54427 65.0254 3.04688C65.3249 3.16406 65.6178 3.30078 65.9043 3.45703C66.2038 3.60026 66.4707 3.76953 66.7051 3.96484C66.9525 4.16016 67.1608 4.38802 67.3301 4.64844C67.4993 4.89583 67.61 5.17578 67.6621 5.48828C67.6361 5.56641 67.6035 5.59896 67.5645 5.58594C67.5384 5.5599 67.5124 5.56641 67.4863 5.60547C67.5384 5.67057 67.5645 5.71615 67.5645 5.74219C67.5775 5.76823 67.5775 5.79427 67.5645 5.82031C67.5645 5.84635 67.5645 5.88542 67.5645 5.9375C67.5645 5.97656 67.584 6.03516 67.623 6.11328C67.571 6.10026 67.5319 6.10677 67.5059 6.13281C67.4928 6.15885 67.4538 6.15885 67.3887 6.13281C67.4408 6.27604 67.4538 6.39323 67.4277 6.48438C67.4147 6.57552 67.3887 6.66016 67.3496 6.73828C67.3105 6.80339 67.278 6.88151 67.252 6.97266C67.2259 7.05078 67.2324 7.15495 67.2715 7.28516C67.2324 7.28516 67.1999 7.29818 67.1738 7.32422C67.1608 7.33724 67.1478 7.35677 67.1348 7.38281C67.1217 7.39583 67.1022 7.41536 67.0762 7.44141C67.0632 7.45443 67.0371 7.45443 66.998 7.44141C67.0371 7.72786 67.0501 8.01432 67.0371 8.30078C67.0241 8.58724 67.0111 8.88021 66.998 9.17969C66.998 9.46615 67.0046 9.77214 67.0176 10.0977C67.0306 10.4102 67.0762 10.7357 67.1543 11.0742C67.623 10.8008 67.9941 10.4492 68.2676 10.0195C68.554 9.58984 68.7819 9.10807 68.9512 8.57422C69.1335 8.04036 69.2702 7.46745 69.3613 6.85547C69.4525 6.24349 69.5501 5.61849 69.6543 4.98047C69.7715 4.86328 69.8626 4.72005 69.9277 4.55078C69.9928 4.38151 70.0514 4.20573 70.1035 4.02344C70.1556 3.82812 70.2077 3.63932 70.2598 3.45703C70.3118 3.26172 70.377 3.08594 70.4551 2.92969C70.6504 2.95573 70.8132 3.02083 70.9434 3.125C71.0866 3.21615 71.2168 3.32031 71.334 3.4375C71.4512 3.54167 71.5749 3.64583 71.7051 3.75C71.8353 3.84115 71.998 3.89974 72.1934 3.92578C72.3496 4.14714 72.4928 4.36198 72.623 4.57031C72.7533 4.77865 72.8379 5 72.877 5.23438C72.8118 5.33854 72.7598 5.45573 72.7207 5.58594C72.6947 5.71615 72.6621 5.84635 72.623 5.97656C72.584 6.10677 72.5319 6.23047 72.4668 6.34766C72.4017 6.45182 72.3105 6.54297 72.1934 6.62109C72.1543 6.95964 72.1022 7.27214 72.0371 7.55859C71.985 7.83203 71.9264 8.10547 71.8613 8.37891C71.8092 8.65234 71.7637 8.9388 71.7246 9.23828C71.6855 9.52474 71.6725 9.84375 71.6855 10.1953C71.5814 10.4948 71.4707 10.8138 71.3535 11.1523C71.2363 11.4909 71.1452 11.7969 71.0801 12.0703C70.8717 12.2396 70.709 12.4414 70.5918 12.6758C70.4746 12.9102 70.3509 13.1445 70.2207 13.3789C70.1686 13.431 70.1361 13.444 70.123 13.418C70.11 13.3919 70.0645 13.3724 69.9863 13.3594C69.9993 13.4115 69.9993 13.4505 69.9863 13.4766C69.9733 13.5026 69.9538 13.5286 69.9277 13.5547C69.9147 13.5677 69.9017 13.5938 69.8887 13.6328C69.8887 13.6719 69.9017 13.724 69.9277 13.7891C69.7454 13.8672 69.5827 13.9779 69.4395 14.1211C69.2962 14.2643 69.14 14.3945 68.9707 14.5117C68.8145 14.6289 68.6191 14.707 68.3848 14.7461C68.1634 14.7852 67.8704 14.7396 67.5059 14.6094C66.972 14.2188 66.4967 13.7695 66.0801 13.2617C65.6764 12.7539 65.3444 12.1484 65.084 11.4453ZM83.2676 4.00391C83.2806 4.09505 83.2806 4.16667 83.2676 4.21875C83.2676 4.25781 83.2611 4.29688 83.248 4.33594C83.248 4.375 83.248 4.42057 83.248 4.47266C83.248 4.51172 83.2611 4.57682 83.2871 4.66797C83.0137 5.11068 82.6947 5.41667 82.3301 5.58594C81.9785 5.74219 81.5944 5.85938 81.1777 5.9375C80.7611 6.0026 80.3314 6.07422 79.8887 6.15234C79.459 6.23047 79.0293 6.39974 78.5996 6.66016C78.4303 6.59505 78.2741 6.59505 78.1309 6.66016C78.0007 6.72526 77.8053 6.74479 77.5449 6.71875C77.4668 6.79688 77.3691 6.85547 77.252 6.89453C77.1348 6.92057 77.0176 6.95312 76.9004 6.99219C76.9525 7.10938 76.972 7.23307 76.959 7.36328C76.959 7.48047 76.9785 7.57812 77.0176 7.65625C77.4733 7.69531 77.9746 7.6888 78.5215 7.63672C79.0814 7.58464 79.6283 7.55208 80.1621 7.53906C80.1751 7.60417 80.1686 7.64974 80.1426 7.67578C80.1165 7.6888 80.11 7.72135 80.123 7.77344C80.2142 7.83854 80.3053 7.92318 80.3965 8.02734C80.4876 8.11849 80.5788 8.20964 80.6699 8.30078C80.7611 8.39193 80.8522 8.47005 80.9434 8.53516C81.0475 8.58724 81.1647 8.60677 81.2949 8.59375C81.347 8.69792 81.3796 8.8151 81.3926 8.94531C81.4186 9.0625 81.4056 9.1862 81.3535 9.31641C81.1452 9.45964 80.9368 9.60938 80.7285 9.76562C80.5202 9.90885 80.2988 10.0391 80.0645 10.1562C79.8431 10.2734 79.6022 10.3711 79.3418 10.4492C79.0944 10.5143 78.8145 10.5404 78.502 10.5273C78.4368 10.5273 78.3848 10.5273 78.3457 10.5273C78.3197 10.5273 78.2806 10.5078 78.2285 10.4688C78.1243 10.5339 77.9746 10.5534 77.7793 10.5273C77.597 10.5013 77.4538 10.5208 77.3496 10.5859C77.2064 10.5208 77.0306 10.4948 76.8223 10.5078C76.627 10.5078 76.4512 10.4818 76.2949 10.4297C76.0866 10.7031 75.8978 10.9961 75.7285 11.3086C75.5592 11.6211 75.4095 11.9531 75.2793 12.3047C75.722 12.3698 76.0866 12.3958 76.373 12.3828C76.6725 12.3698 76.9525 12.3503 77.2129 12.3242C77.4733 12.2852 77.7402 12.2526 78.0137 12.2266C78.2871 12.1875 78.6322 12.1745 79.0488 12.1875C79.3092 12.0443 79.6152 11.9531 79.9668 11.9141C80.3314 11.862 80.6634 11.7839 80.9629 11.6797C81.0671 11.7188 81.1582 11.7904 81.2363 11.8945C81.3145 11.9857 81.3861 12.0768 81.4512 12.168C81.5293 12.2461 81.6074 12.3177 81.6855 12.3828C81.7637 12.4479 81.8613 12.474 81.9785 12.4609C82.0306 12.513 82.0632 12.5781 82.0762 12.6562C82.1022 12.7214 82.1217 12.7865 82.1348 12.8516C82.1478 12.9167 82.1673 12.9753 82.1934 13.0273C82.2324 13.0664 82.291 13.0794 82.3691 13.0664C82.1738 13.4961 81.946 13.8281 81.6855 14.0625C81.4382 14.2839 81.1517 14.4531 80.8262 14.5703C80.5007 14.6875 80.1361 14.7786 79.7324 14.8438C79.3418 14.9089 78.9056 14.987 78.4238 15.0781C78.3066 15.1042 78.209 15.0977 78.1309 15.0586C78.0527 15.0326 77.9616 15.0195 77.8574 15.0195C77.5579 15.0846 77.1999 15.1432 76.7832 15.1953C76.3665 15.2474 75.9434 15.2669 75.5137 15.2539C75.084 15.2409 74.6738 15.1823 74.2832 15.0781C73.8926 14.987 73.5736 14.8177 73.3262 14.5703C73.222 14.4792 73.1504 14.375 73.1113 14.2578C73.0853 14.1276 73.0007 14.0299 72.8574 13.9648C72.8444 13.7956 72.8184 13.6068 72.7793 13.3984C72.7402 13.1901 72.7012 12.9753 72.6621 12.7539C72.623 12.5195 72.5905 12.2917 72.5645 12.0703C72.5514 11.849 72.5645 11.6471 72.6035 11.4648C72.6426 11.2695 72.7207 11.0938 72.8379 10.9375C72.9681 10.7812 73.0137 10.612 72.9746 10.4297C73.0397 10.4167 73.0788 10.3841 73.0918 10.332C73.1048 10.2669 73.1569 10.2409 73.248 10.2539C73.3262 10.0195 73.4108 9.79818 73.502 9.58984C73.5931 9.38151 73.6842 9.17969 73.7754 8.98438C73.8796 8.78906 73.9772 8.59375 74.0684 8.39844C74.1725 8.1901 74.2702 7.96224 74.3613 7.71484C74.179 7.54557 74.0423 7.36328 73.9512 7.16797C73.873 6.95964 73.8145 6.75781 73.7754 6.5625C73.7363 6.35417 73.7038 6.14583 73.6777 5.9375C73.6517 5.71615 73.6061 5.49479 73.541 5.27344C73.6712 5.07812 73.8275 4.92188 74.0098 4.80469C74.2051 4.67448 74.4134 4.57031 74.6348 4.49219C74.8561 4.41406 75.097 4.34896 75.3574 4.29688C75.6178 4.24479 75.8913 4.1862 76.1777 4.12109C76.6986 3.95182 77.1608 3.82161 77.5645 3.73047C77.9811 3.63932 78.3848 3.56771 78.7754 3.51562C79.179 3.45052 79.5957 3.39193 80.0254 3.33984C80.4551 3.28776 80.9434 3.20964 81.4902 3.10547C81.6074 3.22266 81.7181 3.28125 81.8223 3.28125C81.8743 3.16406 81.9329 3.13151 81.998 3.18359C82.0762 3.22266 82.1087 3.18359 82.0957 3.06641C82.2259 3.28776 82.3887 3.47656 82.584 3.63281C82.7923 3.77604 83.0202 3.89974 83.2676 4.00391ZM86.8027 11.4453C86.6855 11.4714 86.6009 11.543 86.5488 11.6602C86.4967 11.7643 86.4447 11.875 86.3926 11.9922C86.3535 12.1094 86.3079 12.2201 86.2559 12.3242C86.2168 12.4154 86.1517 12.4609 86.0605 12.4609C86.0475 12.5651 86.0085 12.6562 85.9434 12.7344C85.8913 12.8125 85.8392 12.8971 85.7871 12.9883C85.735 13.0664 85.696 13.1576 85.6699 13.2617C85.6439 13.3529 85.6569 13.4635 85.709 13.5938C85.6048 13.6719 85.5397 13.7826 85.5137 13.9258C85.4876 14.069 85.4551 14.2057 85.416 14.3359C85.39 14.4661 85.3379 14.5768 85.2598 14.668C85.1816 14.7591 85.0384 14.7982 84.8301 14.7852C84.791 14.8372 84.7845 14.8698 84.8105 14.8828C84.8366 14.8958 84.8561 14.9414 84.8691 15.0195C84.7259 14.9935 84.6152 15 84.5371 15.0391C84.472 15.0911 84.3874 15.1237 84.2832 15.1367C84.0358 15.0586 83.8275 14.9219 83.6582 14.7266C83.502 14.5312 83.3587 14.3164 83.2285 14.082C83.1113 13.8346 83.0007 13.5872 82.8965 13.3398C82.8053 13.0924 82.7142 12.8776 82.623 12.6953C82.6621 12.5521 82.6686 12.4154 82.6426 12.2852C82.6165 12.1419 82.571 12.0247 82.5059 11.9336C83.1439 10.5794 83.8405 9.13411 84.5957 7.59766C85.3509 6.0612 86.0671 4.54427 86.7441 3.04688C87.0436 3.16406 87.3366 3.30078 87.623 3.45703C87.9225 3.60026 88.1895 3.76953 88.4238 3.96484C88.6712 4.16016 88.8796 4.38802 89.0488 4.64844C89.2181 4.89583 89.3288 5.17578 89.3809 5.48828C89.3548 5.56641 89.3223 5.59896 89.2832 5.58594C89.2572 5.5599 89.2311 5.56641 89.2051 5.60547C89.2572 5.67057 89.2832 5.71615 89.2832 5.74219C89.2962 5.76823 89.2962 5.79427 89.2832 5.82031C89.2832 5.84635 89.2832 5.88542 89.2832 5.9375C89.2832 5.97656 89.3027 6.03516 89.3418 6.11328C89.2897 6.10026 89.2507 6.10677 89.2246 6.13281C89.2116 6.15885 89.1725 6.15885 89.1074 6.13281C89.1595 6.27604 89.1725 6.39323 89.1465 6.48438C89.1335 6.57552 89.1074 6.66016 89.0684 6.73828C89.0293 6.80339 88.9967 6.88151 88.9707 6.97266C88.9447 7.05078 88.9512 7.15495 88.9902 7.28516C88.9512 7.28516 88.9186 7.29818 88.8926 7.32422C88.8796 7.33724 88.8665 7.35677 88.8535 7.38281C88.8405 7.39583 88.821 7.41536 88.7949 7.44141C88.7819 7.45443 88.7559 7.45443 88.7168 7.44141C88.7559 7.72786 88.7689 8.01432 88.7559 8.30078C88.7428 8.58724 88.7298 8.88021 88.7168 9.17969C88.7168 9.46615 88.7233 9.77214 88.7363 10.0977C88.7493 10.4102 88.7949 10.7357 88.873 11.0742C89.3418 10.8008 89.7129 10.4492 89.9863 10.0195C90.2728 9.58984 90.5007 9.10807 90.6699 8.57422C90.8522 8.04036 90.9889 7.46745 91.0801 6.85547C91.1712 6.24349 91.2689 5.61849 91.373 4.98047C91.4902 4.86328 91.5814 4.72005 91.6465 4.55078C91.7116 4.38151 91.7702 4.20573 91.8223 4.02344C91.8743 3.82812 91.9264 3.63932 91.9785 3.45703C92.0306 3.26172 92.0957 3.08594 92.1738 2.92969C92.3691 2.95573 92.5319 3.02083 92.6621 3.125C92.8053 3.21615 92.9355 3.32031 93.0527 3.4375C93.1699 3.54167 93.2936 3.64583 93.4238 3.75C93.554 3.84115 93.7168 3.89974 93.9121 3.92578C94.0684 4.14714 94.2116 4.36198 94.3418 4.57031C94.472 4.77865 94.5566 5 94.5957 5.23438C94.5306 5.33854 94.4785 5.45573 94.4395 5.58594C94.4134 5.71615 94.3809 5.84635 94.3418 5.97656C94.3027 6.10677 94.2507 6.23047 94.1855 6.34766C94.1204 6.45182 94.0293 6.54297 93.9121 6.62109C93.873 6.95964 93.821 7.27214 93.7559 7.55859C93.7038 7.83203 93.6452 8.10547 93.5801 8.37891C93.528 8.65234 93.4824 8.9388 93.4434 9.23828C93.4043 9.52474 93.3913 9.84375 93.4043 10.1953C93.3001 10.4948 93.1895 10.8138 93.0723 11.1523C92.9551 11.4909 92.8639 11.7969 92.7988 12.0703C92.5905 12.2396 92.4277 12.4414 92.3105 12.6758C92.1934 12.9102 92.0697 13.1445 91.9395 13.3789C91.8874 13.431 91.8548 13.444 91.8418 13.418C91.8288 13.3919 91.7832 13.3724 91.7051 13.3594C91.7181 13.4115 91.7181 13.4505 91.7051 13.4766C91.6921 13.5026 91.6725 13.5286 91.6465 13.5547C91.6335 13.5677 91.6204 13.5938 91.6074 13.6328C91.6074 13.6719 91.6204 13.724 91.6465 13.7891C91.4642 13.8672 91.3014 13.9779 91.1582 14.1211C91.015 14.2643 90.8587 14.3945 90.6895 14.5117C90.5332 14.6289 90.3379 14.707 90.1035 14.7461C89.8822 14.7852 89.5892 14.7396 89.2246 14.6094C88.6908 14.2188 88.2155 13.7695 87.7988 13.2617C87.3952 12.7539 87.0632 12.1484 86.8027 11.4453ZM105.201 5.60547C104.876 5.60547 104.524 5.63151 104.146 5.68359C103.769 5.72266 103.398 5.76823 103.033 5.82031C102.773 5.85938 102.519 5.89193 102.271 5.91797C102.037 5.94401 101.822 5.96354 101.627 5.97656C101.536 6.26302 101.445 6.51693 101.354 6.73828C101.262 6.95964 101.165 7.17448 101.061 7.38281C100.956 7.60417 100.859 7.83203 100.768 8.06641C100.689 8.28776 100.611 8.52865 100.533 8.78906C100.403 8.9974 100.292 9.19271 100.201 9.375C100.123 9.54427 100.058 9.73958 100.006 9.96094C99.8496 10.1562 99.7324 10.3646 99.6543 10.5859C99.5762 10.7943 99.5176 10.9766 99.4785 11.1328L99.4004 11.3672C99.3223 11.4453 99.2767 11.5104 99.2637 11.5625C99.2507 11.6016 99.2181 11.6406 99.166 11.6797C99.153 11.8229 99.1074 11.9661 99.0293 12.1094C99.0033 12.1745 98.9837 12.2396 98.9707 12.3047C98.9577 12.3568 98.9512 12.3958 98.9512 12.4219C98.9512 12.5521 98.9186 12.6367 98.8535 12.6758C98.8665 12.7409 98.8665 12.8125 98.8535 12.8906C98.8405 12.9557 98.8275 13.0208 98.8145 13.0859C98.7754 13.2422 98.7624 13.3659 98.7754 13.457C98.8145 13.5091 98.847 13.5547 98.873 13.5938C98.9121 13.6328 98.9382 13.6849 98.9512 13.75C99.0293 13.8021 99.0879 13.8346 99.127 13.8477C99.179 13.8867 99.2572 13.9323 99.3613 13.9844L99.5371 14.1797C99.6022 14.5573 99.5436 14.8568 99.3613 15.0781C99.166 15.3255 98.834 15.4492 98.3652 15.4492H98.1309C98.0658 15.3841 98.0267 15.332 98.0137 15.293C97.9095 15.2539 97.8249 15.2214 97.7598 15.1953C97.6947 15.1693 97.6361 15.1172 97.584 15.0391C97.4147 14.9609 97.278 14.8958 97.1738 14.8438L96.998 14.7461C96.998 14.6029 96.998 14.5247 96.998 14.5117C96.9069 14.3945 96.8353 14.2643 96.7832 14.1211C96.7441 13.9779 96.7116 13.8346 96.6855 13.6914C96.6595 13.5742 96.627 13.4635 96.5879 13.3594C96.5618 13.2552 96.5228 13.1641 96.4707 13.0859C96.4447 12.3307 96.5163 11.6927 96.6855 11.1719C96.8548 10.651 97.0306 10.1497 97.2129 9.66797C97.3171 9.40755 97.4212 9.14714 97.5254 8.88672C97.6296 8.61328 97.7207 8.33333 97.7988 8.04688L97.9746 7.85156C98.0658 7.64323 98.1374 7.47396 98.1895 7.34375C98.2546 7.20052 98.3197 7.05729 98.3848 6.91406C98.4238 6.82292 98.4564 6.73828 98.4824 6.66016C98.5215 6.56901 98.554 6.49089 98.5801 6.42578C98.502 6.42578 98.4303 6.43229 98.3652 6.44531C98.3001 6.44531 98.235 6.45182 98.1699 6.46484C98.0918 6.47786 98.0202 6.49089 97.9551 6.50391C97.89 6.50391 97.8249 6.50391 97.7598 6.50391C97.6686 6.50391 97.6035 6.4974 97.5645 6.48438C97.4212 6.54948 97.265 6.58203 97.0957 6.58203H96.9004C96.8613 6.58203 96.8223 6.58203 96.7832 6.58203C96.7572 6.56901 96.7311 6.5625 96.7051 6.5625C96.5749 6.5625 96.4707 6.58203 96.3926 6.62109C96.2363 6.62109 96.0866 6.62109 95.9434 6.62109H95.748C95.722 6.62109 95.6895 6.6276 95.6504 6.64062C95.6113 6.64062 95.5788 6.64062 95.5527 6.64062C95.4616 6.64062 95.3639 6.63411 95.2598 6.62109C95.1556 6.59505 95.0449 6.54948 94.9277 6.48438C94.7715 6.27604 94.6673 6.16536 94.6152 6.15234L94.4395 5.91797C94.4264 5.83984 94.4069 5.76823 94.3809 5.70312C94.3548 5.625 94.3288 5.54036 94.3027 5.44922C94.2507 5.31901 94.1986 5.18229 94.1465 5.03906C94.1074 4.88281 94.0879 4.70052 94.0879 4.49219C94.1009 4.38802 94.127 4.3099 94.166 4.25781C94.2051 4.20573 94.2376 4.16016 94.2637 4.12109L94.3223 3.82812L94.5762 3.84766H95.123C95.5397 3.84766 95.9629 3.83464 96.3926 3.80859C96.8223 3.76953 97.265 3.73047 97.7207 3.69141C97.9811 3.66536 98.2415 3.63932 98.502 3.61328C98.7754 3.58724 99.0553 3.5612 99.3418 3.53516C99.3939 3.41797 99.446 3.30729 99.498 3.20312L99.6934 3.10547C99.9277 3.09245 100.09 3.125 100.182 3.20312C100.286 3.26823 100.37 3.33333 100.436 3.39844C100.722 3.3724 101.008 3.34635 101.295 3.32031C101.594 3.28125 101.894 3.23568 102.193 3.18359C102.636 3.11849 103.079 3.0599 103.521 3.00781C103.977 2.95573 104.413 2.92969 104.83 2.92969C105.012 2.92969 105.188 2.9362 105.357 2.94922C105.527 2.96224 105.683 2.98177 105.826 3.00781L106.021 3.14453C106.061 3.22266 106.113 3.29427 106.178 3.35938C106.256 3.42448 106.334 3.48958 106.412 3.55469C106.568 3.69792 106.725 3.86719 106.881 4.0625C107.037 4.25781 107.096 4.54427 107.057 4.92188C106.952 5.07812 106.874 5.16927 106.822 5.19531L106.646 5.42969L106.451 5.41016C106.373 5.41016 106.301 5.42318 106.236 5.44922C106.171 5.46224 106.106 5.48177 106.041 5.50781C105.989 5.53385 105.937 5.5599 105.885 5.58594C105.833 5.59896 105.774 5.61198 105.709 5.625C105.592 5.625 105.494 5.625 105.416 5.625C105.351 5.61198 105.279 5.60547 105.201 5.60547ZM15.3184 40.2734C15.1882 40.2734 14.9863 40.2539 14.7129 40.2148C14.5046 39.9935 14.3158 39.694 14.1465 39.3164C13.9902 38.9258 13.8665 38.5156 13.7754 38.0859C13.6973 37.6432 13.6582 37.207 13.6582 36.7773C13.6712 36.3346 13.7493 35.944 13.8926 35.6055C13.8926 35.5924 13.9512 35.4362 14.0684 35.1367C14.1986 34.8372 14.3613 34.4596 14.5566 34.0039C14.752 33.5352 14.9733 33.0208 15.2207 32.4609C15.4681 31.888 15.7155 31.3281 15.9629 30.7812C16.2103 30.2344 16.4447 29.7396 16.666 29.2969C16.9004 28.8411 17.1022 28.4896 17.2715 28.2422C17.3887 28.0599 17.4928 27.8841 17.584 27.7148C17.6882 27.5456 17.7858 27.3893 17.877 27.2461C18.0202 27.0117 18.1504 26.7969 18.2676 26.6016C18.3978 26.3932 18.5345 26.2109 18.6777 26.0547C18.834 25.8854 19.0033 25.7422 19.1855 25.625C19.3678 25.4948 19.5892 25.3841 19.8496 25.293C20.0059 25.3581 20.1426 25.4297 20.2598 25.5078C20.377 25.5729 20.4811 25.6576 20.5723 25.7617L20.6309 26.0352C20.6569 26.1263 20.696 26.1914 20.748 26.2305C20.8132 26.2565 20.8652 26.2695 20.9043 26.2695C21.0736 26.3086 21.2168 26.3542 21.334 26.4062C21.4642 26.4453 21.6009 26.4714 21.7441 26.4844C21.7962 26.5625 21.8418 26.6406 21.8809 26.7188C21.9329 26.7969 21.985 26.8685 22.0371 26.9336C22.2975 27.3112 22.5124 27.6758 22.6816 28.0273C22.8509 28.3789 22.8509 28.763 22.6816 29.1797L22.7012 29.3945C22.7663 29.4857 22.7988 29.5703 22.7988 29.6484C22.7988 29.7266 22.7858 29.8372 22.7598 29.9805C22.7467 30.0846 22.7337 30.2018 22.7207 30.332C22.7207 30.4492 22.7402 30.5794 22.7793 30.7227L22.916 30.8789C23.1243 30.9831 23.3262 31.0352 23.5215 31.0352C23.7819 31.0352 24.0163 30.9766 24.2246 30.8594C24.4329 30.7422 24.6283 30.625 24.8105 30.5078C24.9538 30.4036 25.084 30.319 25.2012 30.2539C25.3314 30.1888 25.4551 30.1432 25.5723 30.1172C25.8457 29.8568 26.0931 29.6289 26.3145 29.4336C26.5488 29.2253 26.7897 29.0169 27.0371 28.8086C27.5059 28.431 27.9616 28.0273 28.4043 27.5977C28.847 27.1549 29.1986 26.6081 29.459 25.957C29.6022 25.8659 29.765 25.8203 29.9473 25.8203C30.1296 25.8203 30.3118 25.8594 30.4941 25.9375C30.6764 26.0026 30.8587 26.0807 31.041 26.1719C31.0801 26.1979 31.1126 26.2174 31.1387 26.2305C31.1777 26.2435 31.2168 26.263 31.2559 26.2891C31.2559 26.4323 31.3145 26.5625 31.4316 26.6797C31.4967 26.7318 31.5423 26.7643 31.5684 26.7773C31.5944 26.7904 31.6204 26.8034 31.6465 26.8164C31.7507 26.8815 31.8353 26.9401 31.9004 26.9922C31.9785 27.0443 32.0371 27.1159 32.0762 27.207C32.1934 27.5586 32.3887 27.832 32.6621 28.0273C32.6361 28.1706 32.6426 28.3138 32.6816 28.457C32.7207 28.5872 32.7663 28.7174 32.8184 28.8477C32.8444 28.8997 32.8639 28.9518 32.877 29.0039C32.89 29.043 32.9095 29.0951 32.9355 29.1602L32.5059 29.1211L32.5645 29.5508C32.6035 29.7721 32.584 30.0195 32.5059 30.293C32.4408 30.5664 32.3626 30.7812 32.2715 30.9375C32.2975 31.3281 32.3105 31.6406 32.3105 31.875C32.3105 32.0964 32.2975 32.3047 32.2715 32.5C32.2454 32.6953 32.1999 32.8841 32.1348 33.0664C32.0827 33.2357 32.0111 33.418 31.9199 33.6133C31.972 34.6029 31.8548 35.5078 31.5684 36.3281C31.2949 37.1484 30.9954 37.9167 30.6699 38.6328C30.6309 38.724 30.5918 38.8086 30.5527 38.8867C30.5137 38.9648 30.4811 39.043 30.4551 39.1211C30.3118 39.1602 30.1816 39.2057 30.0645 39.2578C29.9473 39.3099 29.8366 39.3685 29.7324 39.4336C29.5892 39.5247 29.446 39.6029 29.3027 39.668C29.1595 39.7201 29.0098 39.7461 28.8535 39.7461C28.2285 39.2904 27.903 38.5026 27.877 37.3828C27.8639 36.263 28.1048 34.8372 28.5996 33.1055C28.6908 33.0404 28.7298 32.9427 28.7168 32.8125V32.5977L28.5215 32.5781C28.4564 32.5781 28.3978 32.5846 28.3457 32.5977C28.2936 32.6107 28.2546 32.6693 28.2285 32.7734C27.8118 33.0729 27.3561 33.3854 26.8613 33.7109C26.3796 34.0234 25.8783 34.3164 25.3574 34.5898C24.8366 34.8503 24.3027 35.0716 23.7559 35.2539C23.222 35.4232 22.7012 35.5078 22.1934 35.5078C20.8913 35.5078 19.9082 34.8438 19.2441 33.5156L19.0684 33.1641L18.873 33.4766C18.834 33.5417 18.7624 33.6719 18.6582 33.8672C18.5671 34.0495 18.4694 34.2643 18.3652 34.5117C18.2741 34.7591 18.1895 35.013 18.1113 35.2734C18.0462 35.5339 18.0267 35.7617 18.0527 35.957C17.8965 36.1003 17.7402 36.263 17.584 36.4453C17.4408 36.6276 17.3366 36.8359 17.2715 37.0703C17.2454 37.1354 17.2389 37.2005 17.252 37.2656C17.265 37.3177 17.2845 37.3763 17.3105 37.4414C17.2975 37.5326 17.2715 37.5977 17.2324 37.6367C17.1934 37.6758 17.1478 37.7148 17.0957 37.7539C17.0306 37.819 16.9655 37.8906 16.9004 37.9688C16.8353 38.0339 16.7767 38.112 16.7246 38.2031C16.6986 38.2812 16.679 38.3659 16.666 38.457C16.653 38.5352 16.64 38.6068 16.627 38.6719C16.627 38.8151 16.6074 38.9128 16.5684 38.9648C16.4382 39.2383 16.321 39.4661 16.2168 39.6484C16.1257 39.8177 16.0345 39.9479 15.9434 40.0391C15.8522 40.1302 15.7546 40.1888 15.6504 40.2148C15.5592 40.2539 15.4486 40.2734 15.3184 40.2734ZM43.3652 38.3594C43.2871 38.5807 43.1699 38.8086 43.0137 39.043C42.8704 39.2643 42.6947 39.4661 42.4863 39.6484C42.291 39.8177 42.0697 39.9609 41.8223 40.0781C41.5749 40.1953 41.3145 40.2604 41.041 40.2734C40.8717 40.2344 40.7546 40.1888 40.6895 40.1367C40.6374 40.0977 40.5788 40.0586 40.5137 40.0195C40.4746 39.9935 40.4355 39.974 40.3965 39.9609C40.3704 39.9349 40.3444 39.9154 40.3184 39.9023L40.084 39.8047L40.1621 39.5508C40.1882 39.4466 40.1816 39.3685 40.1426 39.3164C40.1035 39.2513 40.0254 39.1667 39.9082 39.0625C39.8691 39.0234 39.8301 38.9844 39.791 38.9453C39.752 38.9062 39.7194 38.8672 39.6934 38.8281L39.3613 38.457L39.8887 38.3203C40.2142 38.2292 40.429 38.112 40.5332 37.9688C40.6504 37.8255 40.696 37.5846 40.6699 37.2461C40.4095 37.194 40.1882 37.1875 40.0059 37.2266C39.8366 37.2656 39.6608 37.3112 39.4785 37.3633C39.2441 37.4284 39.0033 37.487 38.7559 37.5391C38.5215 37.5781 38.2611 37.5977 37.9746 37.5977C37.8704 37.5977 37.7728 37.5977 37.6816 37.5977C37.5905 37.5846 37.4928 37.5716 37.3887 37.5586L37.1934 37.5195C37.1673 37.3763 37.1413 37.2982 37.1152 37.2852C37.0892 37.2591 37.0632 37.2331 37.0371 37.207C36.972 37.1419 36.9004 37.0573 36.8223 36.9531C36.7572 36.8359 36.7441 36.6927 36.7832 36.5234C36.7181 36.4062 36.679 36.2891 36.666 36.1719C36.5879 36.3281 36.5293 36.4909 36.4902 36.6602L36.4121 36.8555L36.2168 36.8945C36.1908 36.9076 36.1712 36.9401 36.1582 36.9922C36.1452 37.0312 36.1387 37.0638 36.1387 37.0898L36.041 37.4219C36.015 37.4479 35.9889 37.474 35.9629 37.5C35.9368 37.513 35.9108 37.5326 35.8848 37.5586C35.8587 37.6758 35.8262 37.793 35.7871 37.9102C35.748 38.0273 35.709 38.138 35.6699 38.2422C35.6048 38.4115 35.5462 38.5807 35.4941 38.75C35.4551 38.9062 35.4421 39.0625 35.4551 39.2188L35.377 39.4336C35.3118 39.5117 35.2402 39.5768 35.1621 39.6289C35.084 39.668 35.0059 39.707 34.9277 39.7461C34.9017 39.7721 34.8626 39.7982 34.8105 39.8242C34.7715 39.8372 34.7389 39.8503 34.7129 39.8633L34.6543 40.0781L34.4199 40.1172C34.2767 40.1432 34.1725 40.1628 34.1074 40.1758C34.0553 40.1888 33.9902 40.1953 33.9121 40.1953L33.7168 40.1758C33.5736 40.0586 33.4629 39.9674 33.3848 39.9023C33.3066 39.8242 33.2155 39.7526 33.1113 39.6875C32.9941 39.5312 32.929 39.4141 32.916 39.3359C32.903 39.2578 32.89 39.1862 32.877 39.1211C32.8509 39.043 32.8379 38.9779 32.8379 38.9258C32.8249 38.8737 32.8053 38.8346 32.7793 38.8086L32.5254 38.5742L32.7402 38.3984L32.7598 38.0664C33.0202 37.4023 33.2936 36.7643 33.5801 36.1523C33.8796 35.5404 34.1855 34.9154 34.498 34.2773C34.6022 34.069 34.6999 33.8607 34.791 33.6523C34.8952 33.444 34.9993 33.2357 35.1035 33.0273C35.0905 32.9883 35.084 32.9427 35.084 32.8906C35.084 32.8385 35.097 32.7799 35.123 32.7148C35.2663 32.4935 35.3835 32.2982 35.4746 32.1289C35.5658 31.9466 35.6569 31.7643 35.748 31.582C35.8522 31.3607 35.9564 31.1458 36.0605 30.9375C36.1777 30.7292 36.321 30.5143 36.4902 30.293L36.8027 30.1562C36.8418 30.1432 36.8874 30.1302 36.9395 30.1172C36.9915 30.0911 37.0501 30.0781 37.1152 30.0781L37.4082 30.1172C37.7728 29.9479 38.0918 29.7135 38.3652 29.4141C38.6387 29.1016 38.9186 28.7305 39.2051 28.3008L39.4004 28.0273L39.6543 28.1836C39.7194 28.2227 39.8105 28.2617 39.9277 28.3008C40.0449 28.3268 40.1686 28.3594 40.2988 28.3984C40.5332 28.4505 40.7546 28.5091 40.9629 28.5742C41.1712 28.6393 41.3405 28.737 41.4707 28.8672C41.5488 29.0755 41.5944 29.2318 41.6074 29.3359C41.6204 29.4401 41.64 29.5443 41.666 29.6484C41.7051 29.8698 41.7376 30.0911 41.7637 30.3125C41.8027 30.5339 41.8288 30.7812 41.8418 31.0547C41.9069 31.276 41.959 31.4974 41.998 31.7188C42.0501 31.9271 42.0957 32.1419 42.1348 32.3633C42.1999 32.6758 42.265 32.9818 42.3301 33.2812C42.3952 33.5677 42.4798 33.8411 42.584 34.1016C42.6882 34.1016 42.7533 34.1081 42.7793 34.1211C42.8444 34.0951 42.9095 34.0755 42.9746 34.0625C43.0527 34.0495 43.1374 34.0365 43.2285 34.0234L43.4434 34.0039L43.5215 34.1992C43.5345 34.2643 43.5996 34.3294 43.7168 34.3945C43.8861 34.4076 44.0098 34.4466 44.0879 34.5117C44.166 34.5638 44.2376 34.6224 44.3027 34.6875C44.3548 34.7396 44.4069 34.7786 44.459 34.8047L44.752 34.9219L44.5957 35.2148C44.4655 35.4492 44.2767 35.6771 44.0293 35.8984C43.7949 36.1068 43.528 36.2826 43.2285 36.4258C43.2415 36.5039 43.248 36.582 43.248 36.6602C43.2611 36.7253 43.2806 36.7969 43.3066 36.875C43.3457 37.0964 43.3783 37.3242 43.4043 37.5586C43.4303 37.793 43.4303 38.0339 43.4043 38.2812L43.3652 38.3594ZM37.7207 34.9805C38.1113 34.9544 38.4629 34.9284 38.7754 34.9023C39.1009 34.8633 39.459 34.8047 39.8496 34.7266C39.7585 34.3359 39.6608 33.9323 39.5566 33.5156C39.4525 33.0859 39.3418 32.6628 39.2246 32.2461L39.1074 32.4414C38.847 32.7148 38.5931 33.0208 38.3457 33.3594C38.1113 33.6979 37.9095 34.0169 37.7402 34.3164C37.6621 34.4336 37.584 34.5508 37.5059 34.668C37.4277 34.7852 37.3561 34.9023 37.291 35.0195C37.3691 35.0065 37.4408 35 37.5059 35C37.584 35 37.6556 34.9935 37.7207 34.9805ZM47.7988 37.9688C47.6556 38.4896 47.5254 38.8867 47.4082 39.1602C47.304 39.4206 47.1413 39.694 46.9199 39.9805C46.7507 39.9544 46.6335 39.974 46.5684 40.0391C46.5033 40.1042 46.4316 40.1628 46.3535 40.2148C46.2363 40.2409 46.1517 40.2409 46.0996 40.2148C46.0475 40.1888 46.002 40.1562 45.9629 40.1172C45.9238 40.0911 45.8717 40.0586 45.8066 40.0195C45.7546 39.9935 45.6699 39.9805 45.5527 39.9805C45.5267 39.8763 45.4941 39.7786 45.4551 39.6875C45.429 39.5964 45.3444 39.5638 45.2012 39.5898C45.2272 39.4857 45.2337 39.401 45.2207 39.3359C45.2077 39.2578 45.1882 39.1927 45.1621 39.1406C45.1491 39.0755 45.1361 39.0169 45.123 38.9648C45.11 38.8997 45.1165 38.8216 45.1426 38.7305C45.0775 38.7305 45.0254 38.6849 44.9863 38.5938C44.9473 38.5026 44.9017 38.4115 44.8496 38.3203C44.8887 38.0859 44.9277 37.8646 44.9668 37.6562C45.0059 37.4479 45.0514 37.2526 45.1035 37.0703C45.1686 36.888 45.2207 36.7057 45.2598 36.5234C45.2988 36.3411 45.2793 36.1523 45.2012 35.957C45.2533 35.9961 45.2923 35.9896 45.3184 35.9375C45.3444 35.8724 45.3639 35.7943 45.377 35.7031C45.39 35.599 45.3965 35.5013 45.3965 35.4102C45.3965 35.306 45.39 35.2214 45.377 35.1562C45.5072 34.8177 45.6113 34.4727 45.6895 34.1211C45.7806 33.7565 45.8587 33.3984 45.9238 33.0469C46.002 32.6953 46.0801 32.3503 46.1582 32.0117C46.2363 31.6732 46.3405 31.3607 46.4707 31.0742C46.6139 31.0482 46.7702 31.0677 46.9395 31.1328C47.1217 31.1849 47.2324 31.2565 47.2715 31.3477C47.61 31.0872 47.9095 30.7747 48.1699 30.4102C48.4303 30.0326 48.6973 29.668 48.9707 29.3164C49.2441 28.9648 49.5436 28.6523 49.8691 28.3789C50.2077 28.1055 50.6309 27.9427 51.1387 27.8906C51.3991 28.0859 51.6855 28.2878 51.998 28.4961C52.3236 28.6914 52.5905 28.9518 52.7988 29.2773C52.903 29.3294 52.9876 29.388 53.0527 29.4531C53.1309 29.5052 53.222 29.5638 53.3262 29.6289V29.8633C53.4824 30.0065 53.6061 30.1758 53.6973 30.3711C53.8014 30.5534 53.8926 30.7552 53.9707 30.9766C54.0488 31.1849 54.127 31.3997 54.2051 31.6211C54.2832 31.8294 54.3743 32.0312 54.4785 32.2266C54.4525 32.2917 54.4395 32.3503 54.4395 32.4023C54.4395 32.4414 54.446 32.487 54.459 32.5391C54.485 32.5911 54.5046 32.6432 54.5176 32.6953C54.5306 32.7474 54.5306 32.819 54.5176 32.9102C54.4785 33.4831 54.2897 33.9453 53.9512 34.2969C53.6257 34.6484 53.2285 34.9414 52.7598 35.1758C52.291 35.3971 51.7897 35.5859 51.2559 35.7422C50.722 35.8984 50.2402 36.0677 49.8105 36.25C49.8105 36.3021 49.8301 36.3281 49.8691 36.3281C49.9212 36.3281 49.9408 36.3607 49.9277 36.4258C50.2402 36.6211 50.4876 36.7773 50.6699 36.8945C50.8522 37.0117 51.0215 37.1094 51.1777 37.1875C51.347 37.2656 51.5228 37.3372 51.7051 37.4023C51.9004 37.4544 52.1673 37.5195 52.5059 37.5977C52.8444 37.6758 53.1048 37.7409 53.2871 37.793C53.4824 37.832 53.6582 37.8711 53.8145 37.9102C53.9707 37.9362 54.127 37.9622 54.2832 37.9883C54.4525 38.0013 54.6868 38.0208 54.9863 38.0469C55.1035 38.1641 55.2012 38.3073 55.2793 38.4766C55.3704 38.6328 55.429 38.7956 55.4551 38.9648C55.4811 39.1211 55.4876 39.2773 55.4746 39.4336C55.4616 39.5768 55.416 39.694 55.3379 39.7852C55.3509 39.8242 55.377 39.8438 55.416 39.8438C55.4681 39.8307 55.5202 39.8307 55.5723 39.8438C55.4941 39.8958 55.429 39.9609 55.377 40.0391C55.3249 40.1172 55.2728 40.1953 55.2207 40.2734C55.1686 40.3516 55.11 40.4167 55.0449 40.4688C54.9798 40.5339 54.8887 40.5729 54.7715 40.5859C54.3678 40.7422 53.86 40.7487 53.248 40.6055C52.6361 40.4753 51.8613 40.2279 50.9238 39.8633C50.4551 39.681 50.071 39.5247 49.7715 39.3945C49.485 39.2513 49.2311 39.1146 49.0098 38.9844C48.8014 38.8411 48.6061 38.6914 48.4238 38.5352C48.2546 38.3789 48.0462 38.1901 47.7988 37.9688ZM50.5918 31.2695C50.4486 31.4779 50.2858 31.6667 50.1035 31.8359C49.9342 32.0052 49.765 32.181 49.5957 32.3633C49.4395 32.5326 49.2962 32.7279 49.166 32.9492C49.0358 33.1576 48.9447 33.4049 48.8926 33.6914C49.3483 33.6393 49.8236 33.5156 50.3184 33.3203C50.8132 33.112 51.2819 32.9167 51.7246 32.7344C51.6725 32.3307 51.5293 32.0052 51.2949 31.7578C51.0736 31.5104 50.8392 31.3477 50.5918 31.2695ZM67.252 39.2969C66.627 39.3229 66.0736 39.3099 65.5918 39.2578C65.123 39.2057 64.6608 39.082 64.2051 38.8867C64.179 38.8737 64.153 38.8411 64.127 38.7891C64.1009 38.737 64.0749 38.6979 64.0488 38.6719C63.9707 38.6328 63.873 38.6198 63.7559 38.6328C63.6517 38.6328 63.5605 38.6198 63.4824 38.5938C63.3783 38.5417 63.2155 38.444 62.9941 38.3008C62.7728 38.1445 62.571 38.0013 62.3887 37.8711C62.1543 37.6888 61.9329 37.5065 61.7246 37.3242C61.5163 37.1419 61.334 36.9466 61.1777 36.7383C61.1387 36.6862 61.0866 36.6602 61.0215 36.6602C60.9564 36.6471 60.8978 36.6276 60.8457 36.6016C60.4681 36.8359 60.1491 37.1289 59.8887 37.4805C59.6283 37.832 59.3809 38.1901 59.1465 38.5547C58.9121 38.9193 58.6647 39.2643 58.4043 39.5898C58.1439 39.9154 57.8118 40.1628 57.4082 40.332C57.291 40.332 57.1868 40.3125 57.0957 40.2734C57.0046 40.2344 56.9199 40.1823 56.8418 40.1172C56.7637 40.0651 56.6855 40.013 56.6074 39.9609C56.5293 39.9089 56.4447 39.8698 56.3535 39.8438C56.3535 39.6875 56.321 39.5443 56.2559 39.4141C56.2038 39.2839 56.1452 39.1602 56.0801 39.043C56.028 38.9258 55.9889 38.8151 55.9629 38.7109C55.9368 38.5938 55.9629 38.4831 56.041 38.3789C55.9629 38.3008 55.8457 38.2161 55.6895 38.125C55.7676 38.0469 55.8001 37.9753 55.7871 37.9102C55.7871 37.8451 55.7741 37.7799 55.748 37.7148C55.722 37.6497 55.696 37.5781 55.6699 37.5C55.6569 37.4219 55.6764 37.3438 55.7285 37.2656C55.7936 37.2656 55.8717 37.2526 55.9629 37.2266C55.8848 37.1224 55.8457 37.0638 55.8457 37.0508C55.8587 37.0247 55.8457 36.9922 55.8066 36.9531C55.7806 36.875 55.7936 36.8294 55.8457 36.8164C55.8978 36.7904 55.9499 36.7643 56.002 36.7383C56.054 36.1003 56.1647 35.5078 56.334 34.9609C56.5033 34.4141 56.6921 33.8867 56.9004 33.3789C57.1087 32.8711 57.3105 32.3568 57.5059 31.8359C57.7142 31.3151 57.8835 30.7552 58.0137 30.1562C58.1569 30.013 58.2676 29.8438 58.3457 29.6484C58.4368 29.4531 58.528 29.2578 58.6191 29.0625C58.7233 28.8672 58.834 28.6784 58.9512 28.4961C59.0814 28.3008 59.2572 28.1445 59.4785 28.0273C59.6608 28.0404 59.8236 28.0924 59.9668 28.1836C60.11 28.2617 60.2858 28.2943 60.4941 28.2812C60.5332 28.3464 60.5658 28.4115 60.5918 28.4766C60.6309 28.5417 60.6764 28.6068 60.7285 28.6719L61.0215 28.6133C61.1647 28.7305 61.2884 28.8802 61.3926 29.0625C61.5098 29.2318 61.5879 29.4141 61.627 29.6094C61.666 29.8047 61.6595 29.9935 61.6074 30.1758C61.5553 30.3451 61.4316 30.4818 61.2363 30.5859C61.2493 30.651 61.2493 30.7031 61.2363 30.7422C61.2363 30.7682 61.2298 30.7943 61.2168 30.8203C61.2038 30.8464 61.1973 30.8724 61.1973 30.8984C61.1973 30.9245 61.2168 30.9635 61.2559 31.0156C60.9954 31.2109 60.8001 31.4844 60.6699 31.8359C60.5397 32.1875 60.4681 32.5 60.4551 32.7734C60.6113 32.6172 60.7806 32.4674 60.9629 32.3242C61.1582 32.168 61.3535 32.0182 61.5488 31.875C61.7572 31.7318 61.9525 31.5951 62.1348 31.4648C62.3301 31.3346 62.5059 31.2044 62.6621 31.0742C63.0918 30.6836 63.502 30.3711 63.8926 30.1367C64.2962 29.8893 64.7194 29.6159 65.1621 29.3164C65.2663 29.2904 65.3444 29.2904 65.3965 29.3164C65.4616 29.3294 65.5267 29.349 65.5918 29.375C65.5918 29.2969 65.5658 29.2513 65.5137 29.2383C65.4746 29.2253 65.4616 29.1732 65.4746 29.082C65.6699 29.0299 65.8392 28.9714 65.9824 28.9062C66.1257 28.8281 66.2819 28.7565 66.4512 28.6914C66.5684 28.8086 66.679 28.9323 66.7832 29.0625C66.8874 29.1797 67.0306 29.2513 67.2129 29.2773C67.278 29.4206 67.3561 29.5312 67.4473 29.6094C67.5384 29.6745 67.6296 29.7396 67.7207 29.8047C67.8118 29.8698 67.89 29.9479 67.9551 30.0391C68.0332 30.1302 68.0788 30.2734 68.0918 30.4688C68.0397 30.5599 67.9811 30.6576 67.916 30.7617C67.8639 30.8659 67.8118 30.9896 67.7598 31.1328C67.4993 31.3672 67.2324 31.5755 66.959 31.7578C66.6986 31.9401 66.4316 32.1159 66.1582 32.2852C65.8848 32.4544 65.6048 32.6237 65.3184 32.793C65.0319 32.9622 64.7389 33.1641 64.4395 33.3984C64.3743 33.4896 64.2897 33.5742 64.1855 33.6523C64.0944 33.7174 63.9967 33.7891 63.8926 33.8672C63.7884 33.9323 63.6908 34.0039 63.5996 34.082C63.5085 34.1602 63.4368 34.2513 63.3848 34.3555C63.3457 34.3685 63.3066 34.375 63.2676 34.375C63.2285 34.375 63.1895 34.3815 63.1504 34.3945C63.1113 34.4857 63.0462 34.5573 62.9551 34.6094C62.877 34.6615 62.8249 34.7331 62.7988 34.8242C62.9941 35.2409 63.248 35.5599 63.5605 35.7812C63.873 36.0026 64.2246 36.1654 64.6152 36.2695C65.0059 36.3607 65.429 36.4128 65.8848 36.4258C66.3405 36.4258 66.8158 36.4258 67.3105 36.4258C67.3626 36.4128 67.3822 36.3867 67.3691 36.3477C67.3691 36.2956 67.4017 36.276 67.4668 36.2891C67.7793 36.3932 68.0202 36.543 68.1895 36.7383C68.3587 36.9206 68.5605 37.1029 68.7949 37.2852C68.7689 37.7799 68.6191 38.1901 68.3457 38.5156C68.0723 38.8411 67.7077 39.1016 67.252 39.2969ZM79.2832 29.0039C79.2962 29.0951 79.2962 29.1667 79.2832 29.2188C79.2832 29.2578 79.2767 29.2969 79.2637 29.3359C79.2637 29.375 79.2637 29.4206 79.2637 29.4727C79.2637 29.5117 79.2767 29.5768 79.3027 29.668C79.0293 30.1107 78.7103 30.4167 78.3457 30.5859C77.9941 30.7422 77.61 30.8594 77.1934 30.9375C76.7767 31.0026 76.347 31.0742 75.9043 31.1523C75.4746 31.2305 75.0449 31.3997 74.6152 31.6602C74.446 31.5951 74.2897 31.5951 74.1465 31.6602C74.0163 31.7253 73.821 31.7448 73.5605 31.7188C73.4824 31.7969 73.3848 31.8555 73.2676 31.8945C73.1504 31.9206 73.0332 31.9531 72.916 31.9922C72.9681 32.1094 72.9876 32.2331 72.9746 32.3633C72.9746 32.4805 72.9941 32.5781 73.0332 32.6562C73.4889 32.6953 73.9902 32.6888 74.5371 32.6367C75.097 32.5846 75.6439 32.5521 76.1777 32.5391C76.1908 32.6042 76.1842 32.6497 76.1582 32.6758C76.1322 32.6888 76.1257 32.7214 76.1387 32.7734C76.2298 32.8385 76.321 32.9232 76.4121 33.0273C76.5033 33.1185 76.5944 33.2096 76.6855 33.3008C76.7767 33.3919 76.8678 33.4701 76.959 33.5352C77.0632 33.5872 77.1803 33.6068 77.3105 33.5938C77.3626 33.6979 77.3952 33.8151 77.4082 33.9453C77.4342 34.0625 77.4212 34.1862 77.3691 34.3164C77.1608 34.4596 76.9525 34.6094 76.7441 34.7656C76.5358 34.9089 76.3145 35.0391 76.0801 35.1562C75.8587 35.2734 75.6178 35.3711 75.3574 35.4492C75.11 35.5143 74.8301 35.5404 74.5176 35.5273C74.4525 35.5273 74.4004 35.5273 74.3613 35.5273C74.3353 35.5273 74.2962 35.5078 74.2441 35.4688C74.14 35.5339 73.9902 35.5534 73.7949 35.5273C73.6126 35.5013 73.4694 35.5208 73.3652 35.5859C73.222 35.5208 73.0462 35.4948 72.8379 35.5078C72.6426 35.5078 72.4668 35.4818 72.3105 35.4297C72.1022 35.7031 71.9134 35.9961 71.7441 36.3086C71.5749 36.6211 71.4251 36.9531 71.2949 37.3047C71.7376 37.3698 72.1022 37.3958 72.3887 37.3828C72.6882 37.3698 72.9681 37.3503 73.2285 37.3242C73.4889 37.2852 73.7559 37.2526 74.0293 37.2266C74.3027 37.1875 74.6478 37.1745 75.0645 37.1875C75.3249 37.0443 75.6309 36.9531 75.9824 36.9141C76.347 36.862 76.679 36.7839 76.9785 36.6797C77.0827 36.7188 77.1738 36.7904 77.252 36.8945C77.3301 36.9857 77.4017 37.0768 77.4668 37.168C77.5449 37.2461 77.623 37.3177 77.7012 37.3828C77.7793 37.4479 77.877 37.474 77.9941 37.4609C78.0462 37.513 78.0788 37.5781 78.0918 37.6562C78.1178 37.7214 78.1374 37.7865 78.1504 37.8516C78.1634 37.9167 78.1829 37.9753 78.209 38.0273C78.248 38.0664 78.3066 38.0794 78.3848 38.0664C78.1895 38.4961 77.9616 38.8281 77.7012 39.0625C77.4538 39.2839 77.1673 39.4531 76.8418 39.5703C76.5163 39.6875 76.1517 39.7786 75.748 39.8438C75.3574 39.9089 74.9212 39.987 74.4395 40.0781C74.3223 40.1042 74.2246 40.0977 74.1465 40.0586C74.0684 40.0326 73.9772 40.0195 73.873 40.0195C73.5736 40.0846 73.2155 40.1432 72.7988 40.1953C72.3822 40.2474 71.959 40.2669 71.5293 40.2539C71.0996 40.2409 70.6895 40.1823 70.2988 40.0781C69.9082 39.987 69.5892 39.8177 69.3418 39.5703C69.2376 39.4792 69.166 39.375 69.127 39.2578C69.1009 39.1276 69.0163 39.0299 68.873 38.9648C68.86 38.7956 68.834 38.6068 68.7949 38.3984C68.7559 38.1901 68.7168 37.9753 68.6777 37.7539C68.6387 37.5195 68.6061 37.2917 68.5801 37.0703C68.5671 36.849 68.5801 36.6471 68.6191 36.4648C68.6582 36.2695 68.7363 36.0938 68.8535 35.9375C68.9837 35.7812 69.0293 35.612 68.9902 35.4297C69.0553 35.4167 69.0944 35.3841 69.1074 35.332C69.1204 35.2669 69.1725 35.2409 69.2637 35.2539C69.3418 35.0195 69.4264 34.7982 69.5176 34.5898C69.6087 34.3815 69.6999 34.1797 69.791 33.9844C69.8952 33.7891 69.9928 33.5938 70.084 33.3984C70.1882 33.1901 70.2858 32.9622 70.377 32.7148C70.1947 32.5456 70.0579 32.3633 69.9668 32.168C69.8887 31.9596 69.8301 31.7578 69.791 31.5625C69.752 31.3542 69.7194 31.1458 69.6934 30.9375C69.6673 30.7161 69.6217 30.4948 69.5566 30.2734C69.6868 30.0781 69.8431 29.9219 70.0254 29.8047C70.2207 29.6745 70.429 29.5703 70.6504 29.4922C70.8717 29.4141 71.1126 29.349 71.373 29.2969C71.6335 29.2448 71.9069 29.1862 72.1934 29.1211C72.7142 28.9518 73.1764 28.8216 73.5801 28.7305C73.9967 28.6393 74.4004 28.5677 74.791 28.5156C75.1947 28.4505 75.6113 28.3919 76.041 28.3398C76.4707 28.2878 76.959 28.2096 77.5059 28.1055C77.623 28.2227 77.7337 28.2812 77.8379 28.2812C77.89 28.1641 77.9486 28.1315 78.0137 28.1836C78.0918 28.2227 78.1243 28.1836 78.1113 28.0664C78.2415 28.2878 78.4043 28.4766 78.5996 28.6328C78.8079 28.776 79.0358 28.8997 79.2832 29.0039ZM81.7637 37.9688C81.6204 38.4896 81.4902 38.8867 81.373 39.1602C81.2689 39.4206 81.1061 39.694 80.8848 39.9805C80.7155 39.9544 80.5983 39.974 80.5332 40.0391C80.4681 40.1042 80.3965 40.1628 80.3184 40.2148C80.2012 40.2409 80.1165 40.2409 80.0645 40.2148C80.0124 40.1888 79.9668 40.1562 79.9277 40.1172C79.8887 40.0911 79.8366 40.0586 79.7715 40.0195C79.7194 39.9935 79.6348 39.9805 79.5176 39.9805C79.4915 39.8763 79.459 39.7786 79.4199 39.6875C79.3939 39.5964 79.3092 39.5638 79.166 39.5898C79.1921 39.4857 79.1986 39.401 79.1855 39.3359C79.1725 39.2578 79.153 39.1927 79.127 39.1406C79.1139 39.0755 79.1009 39.0169 79.0879 38.9648C79.0749 38.8997 79.0814 38.8216 79.1074 38.7305C79.0423 38.7305 78.9902 38.6849 78.9512 38.5938C78.9121 38.5026 78.8665 38.4115 78.8145 38.3203C78.8535 38.0859 78.8926 37.8646 78.9316 37.6562C78.9707 37.4479 79.0163 37.2526 79.0684 37.0703C79.1335 36.888 79.1855 36.7057 79.2246 36.5234C79.2637 36.3411 79.2441 36.1523 79.166 35.957C79.2181 35.9961 79.2572 35.9896 79.2832 35.9375C79.3092 35.8724 79.3288 35.7943 79.3418 35.7031C79.3548 35.599 79.3613 35.5013 79.3613 35.4102C79.3613 35.306 79.3548 35.2214 79.3418 35.1562C79.472 34.8177 79.5762 34.4727 79.6543 34.1211C79.7454 33.7565 79.8236 33.3984 79.8887 33.0469C79.9668 32.6953 80.0449 32.3503 80.123 32.0117C80.2012 31.6732 80.3053 31.3607 80.4355 31.0742C80.5788 31.0482 80.735 31.0677 80.9043 31.1328C81.0866 31.1849 81.1973 31.2565 81.2363 31.3477C81.5749 31.0872 81.8743 30.7747 82.1348 30.4102C82.3952 30.0326 82.6621 29.668 82.9355 29.3164C83.209 28.9648 83.5085 28.6523 83.834 28.3789C84.1725 28.1055 84.5957 27.9427 85.1035 27.8906C85.3639 28.0859 85.6504 28.2878 85.9629 28.4961C86.2884 28.6914 86.5553 28.9518 86.7637 29.2773C86.8678 29.3294 86.9525 29.388 87.0176 29.4531C87.0957 29.5052 87.1868 29.5638 87.291 29.6289V29.8633C87.4473 30.0065 87.571 30.1758 87.6621 30.3711C87.7663 30.5534 87.8574 30.7552 87.9355 30.9766C88.0137 31.1849 88.0918 31.3997 88.1699 31.6211C88.248 31.8294 88.3392 32.0312 88.4434 32.2266C88.4173 32.2917 88.4043 32.3503 88.4043 32.4023C88.4043 32.4414 88.4108 32.487 88.4238 32.5391C88.4499 32.5911 88.4694 32.6432 88.4824 32.6953C88.4954 32.7474 88.4954 32.819 88.4824 32.9102C88.4434 33.4831 88.2546 33.9453 87.916 34.2969C87.5905 34.6484 87.1934 34.9414 86.7246 35.1758C86.2559 35.3971 85.7546 35.5859 85.2207 35.7422C84.6868 35.8984 84.2051 36.0677 83.7754 36.25C83.7754 36.3021 83.7949 36.3281 83.834 36.3281C83.8861 36.3281 83.9056 36.3607 83.8926 36.4258C84.2051 36.6211 84.4525 36.7773 84.6348 36.8945C84.8171 37.0117 84.9863 37.1094 85.1426 37.1875C85.3118 37.2656 85.4876 37.3372 85.6699 37.4023C85.8652 37.4544 86.1322 37.5195 86.4707 37.5977C86.8092 37.6758 87.0697 37.7409 87.252 37.793C87.4473 37.832 87.623 37.8711 87.7793 37.9102C87.9355 37.9362 88.0918 37.9622 88.248 37.9883C88.4173 38.0013 88.6517 38.0208 88.9512 38.0469C89.0684 38.1641 89.166 38.3073 89.2441 38.4766C89.3353 38.6328 89.3939 38.7956 89.4199 38.9648C89.446 39.1211 89.4525 39.2773 89.4395 39.4336C89.4264 39.5768 89.3809 39.694 89.3027 39.7852C89.3158 39.8242 89.3418 39.8438 89.3809 39.8438C89.4329 39.8307 89.485 39.8307 89.5371 39.8438C89.459 39.8958 89.3939 39.9609 89.3418 40.0391C89.2897 40.1172 89.2376 40.1953 89.1855 40.2734C89.1335 40.3516 89.0749 40.4167 89.0098 40.4688C88.9447 40.5339 88.8535 40.5729 88.7363 40.5859C88.3327 40.7422 87.8249 40.7487 87.2129 40.6055C86.6009 40.4753 85.8262 40.2279 84.8887 39.8633C84.4199 39.681 84.0358 39.5247 83.7363 39.3945C83.4499 39.2513 83.196 39.1146 82.9746 38.9844C82.7663 38.8411 82.571 38.6914 82.3887 38.5352C82.2194 38.3789 82.0111 38.1901 81.7637 37.9688ZM84.5566 31.2695C84.4134 31.4779 84.2507 31.6667 84.0684 31.8359C83.8991 32.0052 83.7298 32.181 83.5605 32.3633C83.4043 32.5326 83.2611 32.7279 83.1309 32.9492C83.0007 33.1576 82.9095 33.4049 82.8574 33.6914C83.3132 33.6393 83.7884 33.5156 84.2832 33.3203C84.778 33.112 85.2467 32.9167 85.6895 32.7344C85.6374 32.3307 85.4941 32.0052 85.2598 31.7578C85.0384 31.5104 84.804 31.3477 84.5566 31.2695Z" fill="black"/>
</svg>
