<svg width="93" height="43" viewBox="0 0 93 43" fill="none" xmlns="http://www.w3.org/2000/svg">
<path d="M8.84124 16.2137L11.7267 16.0784C13.8157 15.9883 15.4162 15.0866 16.5283 13.3733C17.5954 11.7352 18.1289 9.50346 18.1289 6.67809C18.1289 5.88157 17.8584 5.2128 17.3173 4.67178C16.7913 4.13075 16.0549 3.85272 15.1081 3.83769C14.1613 3.82266 13.1319 3.80763 12.0198 3.7926L8.84124 16.2137ZM8.25512 3.77006C7.77421 3.77006 7.30833 3.77006 6.85747 3.77006C6.40661 3.77006 6.09101 3.64232 5.91067 3.38683C5.73033 3.11632 5.68524 2.80823 5.77541 2.46258L6.00084 1.49324C6.06096 1.22272 6.20373 1.00481 6.42916 0.839495C6.65458 0.659152 6.86498 0.56898 7.06036 0.56898H14.9053C17.0243 0.56898 18.7225 1.10249 19.9999 2.16952C21.2774 3.22152 21.9161 4.78449 21.9161 6.85843C21.9161 8.93237 21.5178 10.8786 20.7213 12.697C19.9398 14.5155 19.0757 15.8154 18.1289 16.5969C17.1971 17.3634 16.4833 17.8744 15.9873 18.1298C15.4914 18.3703 14.9503 18.5882 14.3642 18.7836L16.4833 32.422C16.6486 33.474 16.3104 34 15.4688 34H13.8908C13.4851 34 13.192 33.8798 13.0117 33.6393C12.8463 33.3989 12.7261 32.9781 12.651 32.3769L10.9152 19.3472L8.0297 19.3922L4.5581 32.9856C4.37776 33.6619 3.91939 34 3.18299 34H1.85296C1.47725 34 1.20673 33.8647 1.04142 33.5942C0.876105 33.3087 0.838533 32.9705 0.928705 32.5798L8.25512 3.77006ZM34.9809 14.0496C33.4931 13.208 32.3058 13.0878 31.4192 13.6889C30.5325 14.275 29.6834 15.4548 28.8718 17.2281C27.4892 20.2338 26.5274 23.1945 25.9863 26.11C25.7459 27.4025 25.6482 28.3267 25.6933 28.8828C25.7534 29.4238 25.9863 29.807 26.3921 30.0325C26.7979 30.2579 27.3314 30.1001 27.9927 29.5591C28.6689 29.018 29.3678 28.199 30.0891 27.1019C30.8255 26.0048 31.5394 24.5621 32.2307 22.7737C32.937 20.9702 33.8538 18.0622 34.9809 14.0496ZM35.6798 11.4572C35.8451 10.7508 36.1982 10.3977 36.7393 10.3977L37.7988 10.3526C38.3548 10.3526 38.7456 10.5029 38.971 10.8034C39.1964 11.104 39.2265 11.5098 39.0612 12.0207L33.5382 30.4833C34.485 29.792 35.4318 28.7776 36.3786 27.44C36.7092 26.9591 37.0924 26.8539 37.5283 27.1244L38.6329 27.8683C39.1138 28.1839 39.1889 28.5672 38.8583 29.018C37.6109 30.5059 36.4537 31.6555 35.3867 32.4671C34.3197 33.2636 33.0648 33.8347 31.622 34.1803C31.4267 34.2254 31.2463 34.1954 31.081 34.0902C30.9307 33.985 30.833 33.8497 30.788 33.6844L29.9088 31.1145C29.4279 31.8058 28.8267 32.4821 28.1054 33.1434C27.399 33.8046 26.7829 34.1353 26.2569 34.1353H26.1667C25.9262 34.1353 25.543 33.9624 25.017 33.6168C24.506 33.2561 24.1003 32.8954 23.7997 32.5347C23.5141 32.174 23.3113 31.9185 23.191 31.7683C23.0858 31.618 22.9656 31.4301 22.8303 31.2047C22.6951 30.9642 22.5974 30.7313 22.5373 30.5059C22.4772 30.2804 22.4246 30.0174 22.3795 29.7169C22.2893 29.1909 22.3043 28.4169 22.4246 27.395C22.7552 24.8852 23.5292 22.0222 24.7465 18.8061C25.9788 15.575 27.1811 13.4109 28.3533 12.3138C29.5256 11.2017 30.9984 10.6456 32.7717 10.6456C33.8087 10.6456 34.778 10.9161 35.6798 11.4572ZM54.9073 15.4247C54.9073 15.1542 54.8021 15.0189 54.5917 15.0189C54.3813 15.0189 54.1259 15.1617 53.8253 15.4472C53.5397 15.7328 53.1415 16.2362 52.6305 16.9576C52.0143 17.8744 51.293 18.994 50.4664 20.3165C49.6549 21.624 48.6254 23.2471 47.378 25.1858C45.0787 28.7625 43.6585 31.0394 43.1174 32.0162C42.5764 32.9781 42.2834 33.4965 42.2383 33.5717C42.1932 33.6318 42.1481 33.6844 42.103 33.7295C42.0579 33.7746 42.0128 33.8121 41.9678 33.8422C41.9227 33.8723 41.8776 33.9023 41.8325 33.9324C41.7874 33.9474 41.7423 33.9624 41.6972 33.9775C41.6672 33.9925 41.6296 34 41.5845 34C41.0435 34 40.5926 34 40.232 34C39.5106 34 39.2551 33.6017 39.4655 32.8052L45.0561 11.7502C45.1313 11.3294 45.2289 11.0289 45.3492 10.8485C45.4844 10.6531 45.6948 10.5555 45.9804 10.5555H47.874C48.2647 10.5555 48.5127 10.6456 48.6179 10.826C48.7231 11.0063 48.7156 11.3595 48.5953 11.8855L45.1463 23.5176L49.9479 15.5825C50.9398 13.9143 51.9768 12.6595 53.0588 11.8179C54.1559 10.9763 55.0877 10.5555 55.8541 10.5555H56.8235C58.5217 10.5555 59.0477 11.878 58.4015 14.523L53.2166 33.3463C53.1265 33.7821 52.8785 34 52.4727 34H50.0832C49.7075 34 49.5872 33.6318 49.7225 32.8954L54.5692 17.0478C54.7946 16.2362 54.9073 15.6952 54.9073 15.4247ZM73.4016 10.6005C73.4016 10.6005 73.8525 10.5855 74.7542 10.5555C75.5206 10.5254 75.8212 10.9237 75.6559 11.7502C74.2883 17.1004 72.8155 22.5257 71.2375 28.0261C69.6595 33.5266 68.8705 36.2843 68.8705 36.2994C68.074 39.1698 66.8642 41.0484 65.2411 41.9351C64.5047 42.3258 64.0088 42.5663 63.7533 42.6564C63.1371 42.8969 62.2279 42.6715 61.0256 41.9802L56.3142 39.3201C55.9084 39.1398 55.6905 38.8768 55.6604 38.5311C55.6304 38.1855 55.728 37.8924 55.9535 37.6519L56.6523 36.6826C57.1482 36.1416 57.6517 36.0138 58.1627 36.2994L63.3024 39.4554C64.0088 39.771 64.5122 39.3502 64.8128 38.193L67.0445 30.1001C66.3532 31.2423 65.5943 32.2041 64.7677 32.9856C63.9411 33.752 63.2649 34.1353 62.7389 34.1353H62.6487C62.4082 34.1353 62.025 33.9624 61.499 33.6168C60.973 33.2561 60.462 32.7827 59.9661 32.1966C59.4852 31.5954 59.147 30.9793 58.9517 30.3481C58.7563 29.7169 58.7788 28.4319 59.0193 26.4932C59.2748 24.5546 60.0112 21.9696 61.2285 18.7385C62.4458 15.4923 63.6406 13.3357 64.8128 12.2687C65.985 11.1867 67.4653 10.6456 69.2537 10.6456C70.3057 10.6456 71.2826 10.9312 72.1843 11.5023C72.3196 11.1115 72.4473 10.8635 72.5675 10.7583C72.7028 10.6531 72.9808 10.6005 73.4016 10.6005ZM71.4629 14.0721C69.9601 13.2155 68.7653 13.0878 67.8786 13.6889C66.9919 14.275 66.1353 15.4623 65.3087 17.2507C63.9411 20.2414 62.9943 23.1945 62.4683 26.11C62.2279 27.4025 62.1302 28.3267 62.1753 28.8828C62.2204 29.4238 62.4458 29.807 62.8516 30.0325C63.2573 30.2579 63.7984 30.1001 64.4747 29.5591C65.1509 29.018 65.8498 28.199 66.5711 27.1019C67.3075 26.0048 68.0289 24.547 68.7353 22.7286C69.4566 20.9101 70.3208 18.1599 71.3277 14.4779L71.4629 14.0721ZM88.4966 14.0496C87.0087 13.208 85.8215 13.0878 84.9348 13.6889C84.0481 14.275 83.199 15.4548 82.3874 17.2281C81.0048 20.2338 80.043 23.1945 79.502 26.11C79.2615 27.4025 79.1638 28.3267 79.2089 28.8828C79.269 29.4238 79.502 29.807 79.9077 30.0325C80.3135 30.2579 80.847 30.1001 81.5083 29.5591C82.1846 29.018 82.8834 28.199 83.6048 27.1019C84.3412 26.0048 85.055 24.5621 85.7463 22.7737C86.4527 20.9702 87.3694 18.0622 88.4966 14.0496ZM89.1954 11.4572C89.3607 10.7508 89.7139 10.3977 90.2549 10.3977L91.3144 10.3526C91.8705 10.3526 92.2612 10.5029 92.4866 10.8034C92.7121 11.104 92.7421 11.5098 92.5768 12.0207L87.0538 30.4833C88.0006 29.792 88.9474 28.7776 89.8942 27.44C90.2248 26.9591 90.6081 26.8539 91.0439 27.1244L92.1485 27.8683C92.6294 28.1839 92.7045 28.5672 92.3739 29.018C91.1266 30.5059 89.9694 31.6555 88.9023 32.4671C87.8353 33.2636 86.5804 33.8347 85.1377 34.1803C84.9423 34.2254 84.762 34.1954 84.5966 34.0902C84.4464 33.985 84.3487 33.8497 84.3036 33.6844L83.4244 31.1145C82.9435 31.8058 82.3424 32.4821 81.621 33.1434C80.9146 33.8046 80.2985 34.1353 79.7725 34.1353H79.6823C79.4418 34.1353 79.0586 33.9624 78.5326 33.6168C78.0217 33.2561 77.6159 32.8954 77.3153 32.5347C77.0298 32.174 76.8269 31.9185 76.7067 31.7683C76.6015 31.618 76.4812 31.4301 76.346 31.2047C76.2107 30.9642 76.113 30.7313 76.0529 30.5059C75.9928 30.2804 75.9402 30.0174 75.8951 29.7169C75.8049 29.1909 75.82 28.4169 75.9402 27.395C76.2708 24.8852 77.0448 22.0222 78.2621 18.8061C79.4944 15.575 80.6967 13.4109 81.869 12.3138C83.0412 11.2017 84.514 10.6456 86.2874 10.6456C87.3243 10.6456 88.2937 10.9161 89.1954 11.4572Z" fill="black"/>
</svg>
